<?xml version="1.0" encoding="utf-8"?>
<!-- Generator: Adobe Illustrator 27.5.0, SVG Export Plug-In . SVG Version: 6.00 Build 0)  -->
<svg version="1.1" xmlns="http://www.w3.org/2000/svg" xmlns:xlink="http://www.w3.org/1999/xlink" x="0px" y="0px"
	 viewBox="0 0 750 500" style="enable-background:new 0 0 750 500;" xml:space="preserve">
<g id="BACKGROUND">
	<rect style="fill:#FFFFFF;" width="750" height="500"/>
</g>
<g id="OBJECTS">
	<g>
		<g>
			<g>
				<g>
					<path style="fill:#528E94;" d="M75.771,165.937c-1.694,4.282-6.432,6.454-10.778,4.931c-4.084-1.432-9.108-4.554-11.348-11.358
						c-4.085-12.413,4.557-9.428-4.557-18.227c-9.114-8.799-0.157-8.956-0.629-16.184c-0.471-7.228,5.657-6.6,8.014-4.243
						c2.357,2.357,4.557,6.914,8.485,6.914c3.928,0,5.028,3.928,3.3,8.485c-1.728,4.557,2.2,6.6,5.5,9.114
						C76.282,147.29,78.897,158.036,75.771,165.937z"/>
					<path style="fill:#528E94;" d="M91.135,171.254c-3.993,2.294-9.052,1.042-11.503-2.857c-2.302-3.664-4.288-9.236-1.801-15.954
						c4.537-12.255,9.438-4.536,7.79-17.097c-1.647-12.561,5.457-7.104,9.591-13.052c4.134-5.948,8.536-1.638,8.912,1.674
						c0.375,3.312-0.743,8.247,2.33,10.694c3.073,2.447,1.486,6.205-2.705,8.693c-4.191,2.488-2.39,6.533-1.375,10.555
						C103.15,156.986,98.502,167.021,91.135,171.254z"/>
					<path style="fill:#5FA4AB;" d="M72.734,166.616c-3.417-2.755-8.307-4.059-10.238-8.001c-1.168-2.385-0.939-5.218-1.767-7.741
						c-0.965-2.942-3.447-5.34-6.419-6.206c-2.291-0.667-4.767-0.462-7.055-1.139c-3.717-1.099-7.153-4.487-10.855-3.338
						c-2.03,0.63-3.5,2.732-3.395,4.854c0.097,1.969,1.36,3.661,2.059,5.504c1.043,2.75,0.811,5.808,0.372,8.716
						c-0.173,1.143-0.375,2.308-0.176,3.446c0.426,2.437,2.62,4.224,4.945,5.069c2.325,0.845,4.839,0.968,7.269,1.43
						c2.43,0.462,4.937,1.37,6.444,3.332c1.454,1.893,1.732,4.44,2.914,6.514c1.832,3.214,5.661,4.879,9.356,5.05
						c4.462,0.206,11.121-0.212,11.545-5.507C78.091,174.13,76.248,169.449,72.734,166.616z"/>
					<path style="fill:#5FA4AB;" d="M98.257,179.548c2.192-3.803,2.723-8.836,6.318-11.354c2.175-1.524,5.009-1.736,7.374-2.945
						c2.757-1.41,4.742-4.233,5.136-7.304c0.304-2.367-0.283-4.781,0.032-7.146c0.51-3.842,3.324-7.762,1.616-11.241
						c-0.937-1.908-3.241-3.034-5.322-2.601c-1.93,0.401-3.406,1.911-5.118,2.887c-2.555,1.456-5.612,1.701-8.553,1.718
						c-1.156,0.007-2.338-0.013-3.432,0.36c-2.341,0.798-3.767,3.243-4.242,5.671c-0.475,2.428-0.206,4.931-0.286,7.403
						s-0.589,5.09-2.293,6.882c-1.645,1.73-4.118,2.399-5.983,3.888c-2.891,2.308-3.943,6.348-3.539,10.026
						c0.488,4.44,1.933,10.954,7.23,10.552C91.664,186.005,96.003,183.458,98.257,179.548z"/>
					<path style="fill:#5FA4AB;" d="M86.093,171.051c-0.474-4.364-3.014-8.741-1.597-12.895c0.858-2.514,3.021-4.357,4.216-6.728
						c1.394-2.765,1.332-6.215-0.162-8.927c-1.151-2.09-3.049-3.694-4.191-5.789c-1.855-3.403-1.895-8.228-5.327-10.03
						c-1.882-0.988-4.407-0.538-5.832,1.039c-1.322,1.463-1.622,3.552-2.429,5.351c-1.204,2.683-3.527,4.685-5.892,6.433
						c-0.929,0.687-1.895,1.369-2.558,2.315c-1.419,2.026-1.128,4.841-0.079,7.081c1.049,2.24,2.743,4.103,4.137,6.147
						c1.394,2.044,2.527,4.457,2.209,6.91c-0.308,2.367-1.909,4.367-2.537,6.669c-0.973,3.569,0.562,7.452,3.057,10.183
						c3.013,3.298,8.023,7.704,12.063,4.255C84.579,180.155,86.58,175.539,86.093,171.051z"/>
				</g>
				<g>
					<g>
						<path style="fill:#051934;" d="M38.194,144.215c2.034,2.533,4.012,5.107,5.981,7.687l5.847,7.787l5.73,7.873
							c1.889,2.64,3.769,5.286,5.593,7.974c-2.034-2.533-4.012-5.107-5.982-7.687l-5.846-7.787l-5.729-7.874
							C41.9,149.549,40.019,146.903,38.194,144.215z"/>
					</g>
					<g>
						<polygon style="fill:#051934;" points="76.953,129.76 77.106,135.534 77.194,141.309 77.267,152.858 77.195,164.407 
							77.107,170.181 76.953,175.956 76.8,170.181 76.712,164.407 76.64,152.858 76.713,141.309 76.801,135.534 						"/>
					</g>
					<g>
						<path style="fill:#051934;" d="M114.56,140.235c-1.873,3.117-3.929,6.115-5.943,9.138c-2.026,3.016-4.104,5.995-6.157,8.992
							l-6.29,8.899c-2.12,2.95-4.249,5.894-6.437,8.796c1.974-3.052,4.004-6.065,6.04-9.073l6.171-8.981l6.276-8.908l3.168-4.433
							C112.456,143.195,113.529,141.73,114.56,140.235z"/>
					</g>
					<g>
						<path style="fill:#051934;" d="M100.418,121.379c-1.117,3.561-2.3,7.099-3.492,10.634l-3.65,10.578l-3.787,10.53
							c-1.287,3.501-2.584,6.999-3.947,10.474c1.116-3.561,2.299-7.1,3.491-10.634l3.651-10.578l3.788-10.53
							C97.76,128.352,99.056,124.854,100.418,121.379z"/>
					</g>
					<g>
						<polygon style="fill:#051934;" points="51.603,120.541 53.736,125.791 55.809,131.063 59.858,141.643 63.771,152.275 
							65.679,157.609 67.526,162.967 65.391,157.717 63.319,152.445 59.27,141.864 55.358,131.232 53.45,125.898 						"/>
					</g>
				</g>
			</g>
			<g>
				<path style="fill:#FFBF67;" d="M100.968,178.719c0.236-1.041-0.553-2.03-1.621-2.03h-21.66h-0.838h-21.66
					c-1.068,0-1.857,0.989-1.621,2.03c1.19,5.24,5.474,18.938,17.993,20.709l0.05,0.098h0.629h10.056h0.629l0.05-0.098
					C95.494,197.657,99.778,183.959,100.968,178.719z"/>
				<g>
					<g>
						<polygon style="fill:#051934;" points="54.615,179.727 60.258,179.574 65.902,179.486 77.189,179.413 88.476,179.485 
							94.12,179.573 99.764,179.727 94.12,179.881 88.476,179.969 77.189,180.041 65.902,179.968 60.258,179.88 						"/>
					</g>
					<g>
						<path style="fill:#051934;" d="M56.291,184.755c3.483-0.13,6.966-0.19,10.449-0.241l10.449-0.073l10.449,0.072
							c3.483,0.051,6.966,0.111,10.449,0.242c-3.483,0.131-6.966,0.191-10.449,0.242l-10.449,0.072l-10.449-0.073
							C63.257,184.946,59.774,184.885,56.291,184.755z"/>
					</g>
					<g>
						<path style="fill:#051934;" d="M61.109,191.46c2.68-0.13,5.36-0.19,8.04-0.241c2.68-0.052,5.36-0.047,8.04-0.073l8.04,0.072
							c2.68,0.051,5.36,0.111,8.04,0.242c-2.68,0.131-5.36,0.191-8.04,0.242l-8.04,0.072c-2.68-0.026-5.36-0.021-8.04-0.073
							C66.469,191.65,63.789,191.589,61.109,191.46z"/>
					</g>
					<g>
						<path style="fill:#051934;" d="M68.547,198.164c1.44-0.13,2.881-0.19,4.321-0.241c1.44-0.052,2.881-0.047,4.321-0.073
							c1.44,0.025,2.881,0.022,4.321,0.072c1.44,0.051,2.881,0.111,4.321,0.242c-1.44,0.131-2.881,0.191-4.321,0.242
							c-1.44,0.05-2.881,0.048-4.321,0.072c-1.44-0.026-2.881-0.021-4.321-0.073C71.428,198.354,69.987,198.293,68.547,198.164z"/>
					</g>
				</g>
			</g>
		</g>
		<g>
			<g>
				<path style="fill:#C46534;" d="M107.227,351.523H60.717V198.792h46.511V351.523z M63.859,348.381h40.226V201.935H63.859V348.381
					z"/>
			</g>
			<g>
				<path style="fill:#D16C38;" d="M95.6,351.523H49.089V198.792H95.6V351.523z M52.232,348.381h40.225V201.935H52.232V348.381z"/>
			</g>
		</g>
	</g>
	<g>
		<g>
			<rect x="143.059" y="84.294" style="fill:#A3CAF7;" width="69.974" height="91.764"/>
			<polygon style="fill:#FFBF67;" points="205.975,84.294 203.071,84.294 184.341,116.732 213.033,116.732 213.033,114.218 
				188.697,114.218 			"/>
			<g>
				<path style="fill:#FFBF67;" d="M151.224,99.636l-8.165,14.142v5.028l8.165-14.142l23.368,40.471h-31.533v2.514h35.889
					L151.224,99.636z"/>
			</g>
			<g>
				<path style="fill:#FFBF67;" d="M155.504,84.294H152.6l41.702,72.224h-51.243v2.514h55.593L155.504,84.294z M146.944,84.294
					l-3.884,6.725v5.028l6.788-11.753H146.944z"/>
			</g>
		</g>
		<g>
			<rect x="237.753" y="84.294" style="fill:#FFBF67;" width="69.98" height="91.764"/>
			<polygon style="fill:#A3CAF7;" points="246.037,84.294 243.133,84.294 260.405,114.218 237.753,114.218 237.753,116.732 
				264.76,116.732 			"/>
			<g>
				<path style="fill:#A3CAF7;" d="M268.029,176.059h2.898l36.806-63.751v-5.028L268.029,176.059z"/>
			</g>
			<g>
				
					<rect x="245.173" y="134.788" transform="matrix(0.5012 -0.8653 0.8653 0.5012 22.0702 310.3799)" style="fill:#A3CAF7;" width="70.216" height="2.514"/>
			</g>
		</g>
	</g>
	<g>
		<g>
			<polygon style="fill:#A3CAF7;" points="523.31,451.773 166.309,451.773 209.048,375.093 480.57,375.093 			"/>
			<g>
				<g>
					<polygon style="fill:#051934;" points="189.642,444.23 228.807,444.078 267.972,444.022 346.302,443.917 424.632,444.021 
						463.797,444.077 502.961,444.23 463.797,444.384 424.632,444.439 346.302,444.544 267.972,444.439 228.807,444.383 					"/>
				</g>
				<g>
					<polygon style="fill:#051934;" points="222.797,379.178 253.673,379.025 284.55,378.97 346.302,378.865 408.054,378.969 
						438.931,379.024 469.807,379.178 438.931,379.332 408.054,379.387 346.302,379.492 284.55,379.387 253.673,379.331 					"/>
				</g>
			</g>
		</g>
		<g>
			<g>
				<g>
					<g>
						<rect x="211.002" y="316.546" style="fill:#D16C38;" width="245.144" height="8.505"/>
						<path style="fill:#F5E3CB;" d="M450.668,295.534h-234.19l-8.525-67.73c-0.79-6.273,4.1-11.816,10.422-11.816h230.396
							c6.322,0,11.212,5.544,10.422,11.816L450.668,295.534z"/>
						<rect x="213.753" y="283.678" style="fill:#F5E3CB;" width="239.64" height="14.466"/>
						<rect x="205.145" y="297.474" style="fill:#F5E3CB;" width="256.856" height="21.699"/>
						<g>
							<polygon style="fill:#F5E3CB;" points="231.708,319.173 204.475,319.173 190.239,262.515 217.472,262.515 							"/>
							<polygon style="fill:#F5E3CB;" points="435.439,319.173 462.672,319.173 476.908,262.515 449.675,262.515 							"/>
						</g>
						<g>
							<g>
								<polygon style="fill:#D16C38;" points="227.944,356.522 222.444,356.522 234.762,321.954 243.404,321.954 								"/>
								<polygon style="fill:#D16C38;" points="263.171,351.18 258.571,351.18 268.873,322.268 276.101,322.268 								"/>
							</g>
							<g>
								<polygon style="fill:#D16C38;" points="439.203,356.522 444.703,356.522 432.385,321.954 423.742,321.954 								"/>
								<polygon style="fill:#D16C38;" points="403.976,351.18 408.576,351.18 398.274,322.268 391.046,322.268 								"/>
							</g>
						</g>
					</g>
				</g>
				<g>
					<g>
						<path style="fill:#051934;" d="M224.133,288.956c0.93,2.82,1.788,5.659,2.577,8.516l0.097,0.35l-0.369,0.006
							c-2.619,0.042-5.238,0.023-7.857-0.009c-1.309-0.004-2.619-0.065-3.928-0.094c-1.309-0.038-2.619-0.1-3.928-0.179
							c1.31-0.079,2.619-0.141,3.928-0.179c1.309-0.03,2.619-0.09,3.928-0.094c2.619-0.033,5.238-0.052,7.857-0.009l-0.273,0.355
							C225.417,294.75,224.739,291.863,224.133,288.956z"/>
					</g>
					<g>
						<polygon style="fill:#051934;" points="229.37,297.336 252.626,297.184 275.881,297.128 322.392,297.023 368.903,297.128 
							392.158,297.183 415.413,297.336 392.158,297.49 368.903,297.545 322.392,297.65 275.881,297.545 252.626,297.489 						"/>
					</g>
					<g>
						<path style="fill:#051934;" d="M274.205,283.928c9.637-0.06,19.275-0.176,28.912-0.178l28.912-0.075l0.206,0l0.042,0.205
							l1.167,5.662l0.62,2.821l0.334,1.401l0.184,0.689l0.104,0.325c0.012,0.042,0.052,0.116,0.032,0.084
							c-0.002-0.005-0.053-0.058-0.09-0.067c0,0-0.104-0.043-0.18-0.013c-0.091,0.031-0.125,0.078-0.125,0.078
							c-0.025,0.018-0.053,0.091-0.047,0.078l0.006-0.022l0.022-0.087l2.869-11.188l0.061-0.236l0.242,0.001l40.854,0.103
							l20.427,0.055l20.427,0.155l-20.427,0.154l-20.427,0.055l-40.854,0.103l0.303-0.235l-2.938,11.212l-0.023,0.088l-0.006,0.022
							c0,0-0.035,0.088-0.067,0.119c-0.006,0.009-0.043,0.058-0.143,0.089c-0.083,0.03-0.2-0.007-0.201-0.014
							c-0.048-0.019-0.113-0.079-0.123-0.097c-0.089-0.131-0.09-0.172-0.12-0.243c-0.045-0.126-0.081-0.245-0.115-0.364
							l-0.186-0.709l-0.33-1.414l-0.607-2.832l-1.139-5.675l0.248,0.204l-28.912-0.075
							C293.48,284.104,283.842,283.988,274.205,283.928z"/>
					</g>
					<g>
						<polygon style="fill:#051934;" points="334.543,283.09 334.391,274.762 334.303,266.434 334.229,249.778 334.302,233.122 
							334.39,224.794 334.543,216.466 334.697,224.794 334.785,233.122 334.857,249.778 334.784,266.434 334.696,274.762 						"/>
					</g>
				</g>
			</g>
			<g>
				<path style="fill:#A3CAF7;" d="M315.371,266.539h-79.194l0.21-49.758c0-1.099,0.891-1.99,1.99-1.99h75.213
					c1.099,0,1.99,0.891,1.99,1.99L315.371,266.539z"/>
				<g>
					<polygon style="fill:#F5F5F5;" points="236.237,254.387 236.177,260.673 315.371,260.673 315.431,254.387 					"/>
				</g>
				<g>
					<polygon style="fill:#F5F5F5;" points="236.237,246.636 236.177,250.616 315.371,250.616 315.431,246.636 					"/>
				</g>
			</g>
			<g>
				<path style="fill:#EB573D;" d="M218.093,251.476c5.115-1.204,15.289-3.495,25.39-5.161c1.969-0.325,3.909,0.708,4.748,2.519
					c2.665,5.748,8.144,18.786,9.557,31.514c0.234,2.107-1.038,4.089-3.057,4.734c-5.413,1.729-16.661,4.757-28.224,4.425
					c-1.627-0.047-3.089-1.001-3.814-2.459c-2.449-4.923-7.727-17.1-8.025-31.146C214.624,253.805,216.05,251.957,218.093,251.476z"
					/>
				<g>
					<path style="fill:#FFBF67;" d="M239.564,257.337c4.327-1.019,12.935-2.957,21.479-4.366c1.666-0.275,3.307,0.599,4.017,2.131
						c2.254,4.863,6.89,15.893,8.085,26.66c0.198,1.782-0.878,3.459-2.586,4.005c-4.579,1.463-14.095,4.024-23.877,3.743
						c-1.376-0.04-2.613-0.847-3.227-2.08c-2.072-4.165-6.537-14.467-6.789-26.349C236.629,259.307,237.836,257.744,239.564,257.337
						z"/>
					<g>
						<g>
							<path style="fill:#051934;" d="M237.96,265.177c2.357-0.612,4.728-1.155,7.102-1.689c2.373-0.535,4.757-1.015,7.135-1.525
								c2.388-0.46,4.771-0.947,7.164-1.383c2.393-0.435,4.789-0.86,7.198-1.217c-2.357,0.613-4.728,1.156-7.101,1.69
								c-2.373,0.534-4.757,1.016-7.135,1.524c-2.388,0.459-4.771,0.948-7.164,1.382
								C242.764,264.395,240.369,264.819,237.96,265.177z"/>
						</g>
						<g>
							<path style="fill:#051934;" d="M240.317,273.505c2.357-0.612,4.728-1.156,7.102-1.689c2.373-0.535,4.757-1.015,7.135-1.525
								c2.388-0.46,4.771-0.947,7.164-1.383c2.393-0.435,4.789-0.86,7.198-1.217c-2.357,0.612-4.728,1.156-7.101,1.69
								c-2.373,0.534-4.757,1.016-7.135,1.524c-2.388,0.459-4.771,0.948-7.164,1.382
								C245.121,272.723,242.726,273.147,240.317,273.505z"/>
						</g>
						<g>
							<path style="fill:#051934;" d="M242.674,281.833c2.357-0.611,4.728-1.155,7.101-1.689c2.373-0.535,4.757-1.015,7.135-1.525
								c2.388-0.46,4.771-0.947,7.164-1.383c2.393-0.435,4.788-0.86,7.198-1.217c-2.357,0.612-4.728,1.156-7.101,1.69
								c-2.373,0.533-4.757,1.016-7.135,1.524c-2.388,0.459-4.771,0.948-7.164,1.382
								C247.478,281.05,245.083,281.475,242.674,281.833z"/>
						</g>
					</g>
				</g>
			</g>
		</g>
	</g>
	<g>
		<g>
			<g>
				<rect x="473.971" y="81.573" style="fill:#A3CAF7;" width="189.186" height="111.877"/>
				<rect x="478.37" y="87.858" style="fill:#FFFFFF;" width="180.386" height="99.307"/>
			</g>
			<g>
				<g>
					<polygon style="fill:#051934;" points="515.768,145.996 522.004,139.544 528.286,133.138 540.922,120.398 553.662,107.76 
						560.068,101.479 566.521,95.243 560.285,101.696 554.003,108.102 541.366,120.842 528.626,133.478 522.22,139.76 					"/>
				</g>
				<g>
					<polygon style="fill:#051934;" points="518.596,166.423 527.896,156.907 537.242,147.437 556.007,128.568 574.874,109.803 
						584.345,100.457 593.862,91.158 584.562,100.675 575.216,110.145 556.451,129.012 537.582,147.777 528.112,157.123 					"/>
				</g>
			</g>
		</g>
		<g>
			<rect x="440.659" y="56.432" style="fill:#D16C38;" width="255.809" height="5.028"/>
			<g>
				<path style="fill:#F5E3CB;" d="M681.384,48.366c-4.4,0.105-10.999,2.514-14.77,0.524c-3.771-1.99-14.708,1.207-18.122,0.524
					c-2.69-0.538-5.576,0.594-7.129,1.361c-0.705,0.348-1.147,1.067-1.147,1.853v286.011h51.539V55.698v-2.998
					c0-0.808-0.465-1.541-1.2-1.878C688.586,49.92,684.572,48.29,681.384,48.366z"/>
				<g>
					<g>
						<polygon style="fill:#051934;" points="679.184,213.013 679.336,227.459 679.424,241.905 679.498,270.797 679.425,299.69 
							679.337,314.136 679.184,328.582 679.03,314.136 678.942,299.69 678.87,270.797 678.943,241.905 679.031,227.459 						"/>
					</g>
					<g>
						<polygon style="fill:#051934;" points="679.184,56.118 679.336,73.628 679.424,91.138 679.498,126.159 679.425,161.179 
							679.337,178.689 679.184,196.2 679.03,178.689 678.942,161.179 678.87,126.159 678.943,91.138 679.031,73.628 						"/>
					</g>
					<g>
						<polygon style="fill:#051934;" points="669.756,213.877 669.909,227.901 669.996,241.925 670.07,269.973 669.998,298.02 
							669.91,312.044 669.756,326.068 669.602,312.044 669.514,298.02 669.442,269.973 669.515,241.925 669.603,227.901 						"/>
					</g>
					<g>
						<path style="fill:#051934;" d="M669.756,174.594c0.13,1.615,0.19,3.23,0.241,4.845c0.052,1.615,0.047,3.23,0.073,4.845
							c-0.025,1.615-0.022,3.23-0.072,4.845c-0.051,1.615-0.111,3.23-0.242,4.845c-0.131-1.615-0.191-3.23-0.242-4.845
							c-0.05-1.615-0.048-3.23-0.072-4.845c0.026-1.615,0.021-3.23,0.073-4.845C669.565,177.824,669.626,176.209,669.756,174.594z"
							/>
					</g>
					<g>
						<polygon style="fill:#051934;" points="658.128,215.134 658.281,229.197 658.369,243.26 658.442,271.387 658.37,299.513 
							658.282,313.576 658.128,327.64 657.974,313.576 657.886,299.513 657.814,271.387 657.888,243.26 657.975,229.197 						"/>
					</g>
					<g>
						<polygon style="fill:#051934;" points="658.128,162.967 657.975,150.789 657.888,138.611 657.814,114.256 657.886,89.901 
							657.974,77.723 658.128,65.545 658.282,77.723 658.37,89.901 658.442,114.256 658.369,138.611 658.281,150.789 						"/>
					</g>
					<g>
						<path style="fill:#051934;" d="M648.386,115.513c0.13,2.017,0.19,4.033,0.241,6.049c0.052,2.017,0.047,4.033,0.073,6.049
							c-0.025,2.016-0.022,4.033-0.072,6.049c-0.051,2.017-0.111,4.033-0.242,6.05c-0.131-2.017-0.191-4.033-0.242-6.05
							c-0.05-2.016-0.047-4.033-0.072-6.049c0.026-2.017,0.022-4.033,0.073-6.049C648.196,119.546,648.256,117.53,648.386,115.513z"
							/>
					</g>
				</g>
			</g>
		</g>
	</g>
	<g>
		<g>
			<g>
				<g>
					<path style="fill:#ED8D5D;" d="M114.454,400.088l-3.484,4.409l-0.401,0.513l6.927,5.54l0.105-0.085l4.636-3.987
						C119.584,404.42,116.986,402.294,114.454,400.088z"/>
					<path style="fill:#ED8D5D;" d="M117.592,410.17c0,0-0.204,5.433,4.244,9.838c0,0,2.286,2.761,1.273,4.664
						c0,0-16.011-12.211-17.532-14.02s7.203-7.382,7.203-7.382L117.592,410.17z"/>
				</g>
				<g>
					<g>
						<path style="fill:#EB573D;" d="M103.528,410.915l19.189,14.443c0.258,0.194,0.624,0.142,0.817-0.115l0.234-0.311
							c0.194-0.258,0.142-0.624-0.115-0.817l-19.189-14.443c-0.258-0.194-0.624-0.142-0.817,0.115l-0.234,0.311
							C103.219,410.355,103.271,410.721,103.528,410.915z"/>
						<polygon style="fill:#EB573D;" points="115.808,419.414 116.1,420.254 121.142,418.504 120.501,417.845 						"/>
					</g>
				</g>
			</g>
			<g>
				<g>
					<path style="fill:#ED8D5D;" d="M196.046,423.018c0,0,3.823,4.294,10.06,3.761c0,0,3.584,0.048,4.377,2.053
						c0,0-19.676,4.281-22.039,4.267c-2.363-0.015-1.983-9.924-1.983-9.924L196.046,423.018z"/>
					<g>
						<g>
							<path style="fill:#EB573D;" d="M187.68,434.658l23.556-4.687c0.316-0.063,0.521-0.37,0.459-0.686l-0.076-0.382
								c-0.063-0.316-0.37-0.522-0.686-0.459l-23.555,4.687c-0.316,0.063-0.522,0.37-0.459,0.686l0.076,0.382
								C187.057,434.516,187.364,434.721,187.68,434.658z"/>
							<polygon style="fill:#EB573D;" points="202.2,431.164 203.021,431.506 205.075,426.58 204.156,426.618 							"/>
						</g>
					</g>
				</g>
				<polygon style="fill:#ED8D5D;" points="185.283,417.99 186.786,425.754 196.134,423.945 196.101,417.99 				"/>
			</g>
		</g>
		<g>
			<g>
				<g>
					<path style="fill:#ED8D5D;" d="M180.601,243.007c-2.737-3.503-4.091-8.948-4.091-8.948l-10.397-7.616
						c0,0-0.137,11.527-3.001,16.467c-2.38,1.316-13.123,7.488-15.044,12.683l50.243-0.124
						C198.311,255.468,193.928,246.437,180.601,243.007z"/>
					<path style="fill:#E6794E;" d="M177.888,238.177c-0.263,0.029-0.531,0.041-0.8,0.029c-4.319-0.251-8.504-4.103-10.926-11.725
						l0.07,0.047c2.48,6.455,6.338,9.729,10.307,9.963c0.228,0.012,0.449,0.006,0.677-0.018
						C177.398,236.998,177.619,237.582,177.888,238.177z"/>
				</g>
				<g>
					<path style="fill:#FFBF67;" d="M162.616,242.632c0,0,6.757,14.378,11.392,11.785c4.635-2.593,6.599-11.863,6.599-11.863
						s14.849,3.928,17.992,12.728c0,0-7.307,13.67-7.228,22.156c0.079,8.485,2.043,32.369,3.614,36.926c0,0-35.983,3.221-52.639,0
						c0,0,8.799-38.89,7.935-48.161c-0.864-9.271-0.157-14.849,0.864-16.263C152.167,248.524,162.616,242.632,162.616,242.632z"/>
					<g>
						<path style="fill:#051934;" d="M162.014,244.151c1.331,2.388,2.764,4.72,4.398,6.891c0.831,1.071,1.685,2.128,2.667,3.044
							c0.974,0.895,2.087,1.744,3.336,1.962c1.243,0.254,2.452-0.481,3.356-1.423c0.931-0.946,1.64-2.111,2.316-3.279
							c0.662-1.182,1.235-2.419,1.755-3.678c0.539-1.253,1.006-2.536,1.447-3.831c-0.636,2.662-1.534,5.271-2.775,7.737
							c-0.624,1.229-1.363,2.419-2.331,3.448c-0.487,0.509-1.04,0.978-1.699,1.305c-0.65,0.33-1.441,0.474-2.176,0.34
							c-1.476-0.29-2.615-1.226-3.622-2.166c-0.999-0.971-1.88-2.042-2.663-3.175C164.449,249.065,163.115,246.657,162.014,244.151z
							"/>
					</g>
				</g>
			</g>
			<g>
				<path style="fill:#EB573D;" d="M196.635,422.861l-10.528,1.1l-16.813-89.879c0,0-11.471,39.597-13.356,42.582
					c-1.886,2.986-36.612,33.469-36.612,33.469l-8.014-6.914l25.769-32.84l6.757-67.252c0,0,16.027,5.028,17.756-6.285
					c0.962-6.31-0.61-21.552-2.2-33.808c-1.037-8.083-2.087-14.865-2.407-16.926c-0.069-0.421-0.107-0.647-0.107-0.647l4.4-2.2
					c0,0,4.557,19.013,5.657,23.255h13.199c0,0,3.457-17.284,1.571-23.727c0,0,2.043,0.471,3.928,1.257c0,0,0.616,3.293,1.458,8.033
					c1.483,8.34,3.652,21.15,4.356,28.265c0.088,0.874,0.195,1.886,0.314,3.03c1.427,13.463,5.041,44.085,5.185,54.952
					C197.106,350.109,196.635,422.861,196.635,422.861z"/>
				<g>
					<g>
						<g>
							<path style="fill:#051934;" d="M151.381,306.584c0.086,1.379-0.026,2.766-0.252,4.136c-0.227,1.371-0.635,2.715-1.197,4.003
								c-0.624,1.25-1.419,2.482-2.587,3.323c-0.579,0.415-1.222,0.74-1.9,0.938c-0.688,0.166-1.389,0.228-2.077,0.171
								c1.373-0.133,2.679-0.612,3.679-1.488c1.018-0.849,1.762-1.992,2.317-3.208c0.584-1.21,0.974-2.514,1.295-3.835
								C150.976,309.301,151.208,307.951,151.381,306.584z"/>
						</g>
						<g>
							<path style="fill:#051934;" d="M165.837,335.339c1.198-0.703,2.462-1.228,3.741-1.709c1.286-0.463,2.589-0.881,3.958-1.119
								c-1.197,0.705-2.461,1.229-3.741,1.709C168.508,334.681,167.206,335.1,165.837,335.339z"/>
						</g>
						<g>
							<path style="fill:#051934;" d="M145.882,318.84c-0.368,7.906-0.85,15.807-1.484,23.698
								c-0.301,3.947-0.678,7.888-1.093,11.826c-0.428,3.937-0.882,7.872-1.579,11.785c-0.179,0.978-0.388,1.952-0.632,2.922
								c-0.148,0.483-0.255,0.969-0.458,1.448c-0.148,0.469-0.471,0.997-0.769,1.355c-1.21,1.577-2.452,3.115-3.69,4.66
								c-2.485,3.081-4.966,6.164-7.487,9.214l-7.554,9.157l-7.623,9.101l14.802-18.563l7.416-9.267
								c1.229-1.548,2.466-3.096,3.657-4.664c0.619-0.737,0.837-1.644,1.111-2.596c0.234-0.95,0.434-1.912,0.61-2.881
								c1.365-7.77,2.051-15.669,2.81-23.538c0.369-3.939,0.702-7.881,1.021-11.824C145.275,326.731,145.593,322.787,145.882,318.84
								z"/>
						</g>
						<g>
							<polygon style="fill:#051934;" points="170.865,333.611 173.235,344.757 175.54,355.916 180.051,378.253 184.419,400.619 
								186.552,411.812 188.621,423.018 186.251,411.872 183.945,400.713 179.435,378.375 175.068,356.009 172.935,344.816 							
								"/>
						</g>
					</g>
					<g>
						<path style="fill:#051934;" d="M168.037,268.401c1.912-0.247,3.823-0.304,5.735-0.314c1.912,0.009,3.824,0.065,5.735,0.314
							c-1.912,0.249-3.824,0.305-5.735,0.314C171.86,268.705,169.949,268.648,168.037,268.401z"/>
					</g>
				</g>
			</g>
			<g>
				<g>
					<g>
						
							<rect x="194.509" y="262.421" transform="matrix(0.8983 -0.4393 0.4393 0.8983 -127.1095 120.2761)" style="fill:#D16C38;" width="3.614" height="144.704"/>
						<path style="fill:#8F4A26;" d="M172.76,281.079l-4.36,2.132l-5.33-10.9c-0.589-1.204-0.09-2.657,1.114-3.246l0,0
							c1.204-0.589,2.657-0.09,3.246,1.114L172.76,281.079z"/>
						<path style="fill:#F5E3CB;" d="M253.506,416.213L225,430.152c-1.192,0.583-2.617-0.087-2.929-1.376l-3.823-15.793
							l25.854-12.643l10.117,12.715C255.044,414.094,254.698,415.63,253.506,416.213z"/>
						<path style="fill:#D16C38;" d="M247.297,401.304l-30.252,14.794l-1.049-2.145c-0.695-1.422-0.106-3.138,1.316-3.834
							l25.103-12.276c1.422-0.695,3.138-0.106,3.834,1.316L247.297,401.304z"/>
						<path style="fill:#8F4A26;" d="M232.629,406.903l-1.68,0.822c-0.51,0.25-1.127,0.061-1.41-0.432L221.4,393.14
							c-0.312-0.542-0.1-1.234,0.462-1.508l3.646-1.783c0.561-0.274,1.238-0.017,1.474,0.562l6.173,15.114
							C233.37,406.051,233.14,406.654,232.629,406.903z"/>
					</g>
					<g>
						<g>
							<path style="fill:#051934;" d="M222.247,414.795c0.916,2.055,1.651,4.168,2.342,6.294c0.672,2.133,1.299,4.28,1.744,6.486
								c-0.918-2.054-1.653-4.167-2.342-6.294C223.319,419.147,222.693,417,222.247,414.795z"/>
						</g>
						<g>
							<path style="fill:#051934;" d="M226.542,413.119c1.132,1.87,2.092,3.819,3.009,5.787c0.9,1.977,1.756,3.973,2.438,6.05
								c-1.134-1.869-2.093-3.818-3.009-5.787C228.082,417.192,227.225,415.195,226.542,413.119z"/>
						</g>
						<g>
							<path style="fill:#051934;" d="M232.932,410.605c1.142,1.685,2.099,3.415,3.013,5.168c0.897,1.76,1.747,3.535,2.434,5.413
								c-1.129-1.649-2.094-3.401-3.013-5.168C234.465,414.243,233.606,412.447,232.932,410.605z"/>
						</g>
						<g>
							<path style="fill:#051934;" d="M237.436,408.405c1.479,1.34,2.814,2.805,4.114,4.3c1.285,1.507,2.534,3.046,3.638,4.709
								c-1.48-1.339-2.815-2.804-4.114-4.3C239.79,411.606,238.541,410.068,237.436,408.405z"/>
						</g>
						<g>
							<path style="fill:#051934;" d="M243.198,405.577c1.632,1.422,3.123,2.973,4.579,4.555c1.443,1.595,2.85,3.222,4.115,4.978
								c-1.633-1.421-3.124-2.972-4.579-4.555C245.872,408.959,244.464,407.332,243.198,405.577z"/>
						</g>
					</g>
				</g>
				<g>
					<g>
						<g>
							<path style="fill:#ED8D5D;" d="M152.947,292.722l2.082-11.836c-1.789-0.99-3.558-2.037-5.394-2.937
								c-2.566-1.257-5.632-1.967-8.464-3.023c-0.646,3.435-1.173,6.97-1.599,10.533c-0.232,1.935-0.433,3.879-0.608,5.818
								c-0.473,5.239,2.622,10.161,7.554,11.991c1.457,0.541,2.893,1.06,4.3,1.559c14.544,5.153,26.066,8.038,26.066,8.038
								l2.681-5.685L152.947,292.722z"/>
							<path style="fill:#ED8D5D;" d="M178.879,307.095c0,0,5.814-1.414,6.835-0.825c1.021,0.589-2.312,2.763-2.312,2.763
								s4.001,1.204,4.472,1.872c0.471,0.668-0.118,1.689-0.118,1.689s1.781,0.746,1.152,2.396c-0.508,1.335-3.116-0.55-3.116-0.55
								s2.907,2.789,2.2,3.143c-0.707,0.354-6.112-2.868-6.112-2.868s2.773,3.261,2.027,3.654c-0.746,0.393-5.171-1.578-7.024-5.503
								C175.029,308.941,176.64,306.938,178.879,307.095z"/>
						</g>
						<g>
							<path style="fill:#051934;" d="M149.862,291.657c1.101,0.15,2.134,0.481,3.149,0.859l-0.407,0.397
								c-0.339-0.999-0.634-2.013-0.752-3.089c0.581,0.914,0.984,1.89,1.344,2.882l0.234,0.645l-0.641-0.248
								C151.778,292.712,150.786,292.275,149.862,291.657z"/>
						</g>
					</g>
					<g>
						<path style="fill:#FFBF67;" d="M156.252,247.503c-0.003-0.435,0.07-0.82,0.197-1.161c-2.036,0.968-6.625,3.969-9.311,7.289
							c-2.986,3.689-7.109,23.84-6.989,24.041c2.828,4.871,14.77,5.896,14.77,5.896s1.746-7.819,3.322-15.121
							C157.151,261.51,156.3,254.546,156.252,247.503z"/>
						<g>
							<path style="fill:#051934;" d="M154.628,283.591c0.912-2.146,1.395-4.38,1.815-6.648c0.436-2.258,0.793-4.585,1.658-6.762
								c-0.381,2.296-0.615,4.583-1.04,6.878C156.625,279.331,155.986,281.67,154.628,283.591z"/>
						</g>
					</g>
				</g>
				<g>
					<path style="fill:#FFBF67;" d="M206.534,279.168c-0.075,0.119-0.157,0.239-0.251,0.358c-2.414,2.948-11.779,4.664-13.758,4.997
						c-0.239,0.044-0.371,0.063-0.371,0.063s-0.145-0.446-0.39-1.213c-0.119-1.144-0.226-2.156-0.314-3.03
						c-0.704-7.115-2.872-19.924-4.356-28.265c1.05-1.666,2.376-2.816,3.727-2.847c3.381-0.082,5.732,1.49,7.781,6.053
						C200.638,259.835,206.534,279.168,206.534,279.168z"/>
					<g>
						<g>
							<path style="fill:#ED8D5D;" d="M210.28,290.997l-3.997-11.471c-2.414,2.948-11.779,4.664-13.758,4.997
								c1.71,4.519,3.658,9.038,5.701,13.413l-6.04,23.639c-0.227,0.133-0.555,0.486-0.802,0.649
								c1.722,0.72,3.533,1.242,5.262,1.954c0.567,0.234,1.146,0.466,1.727,0.699c-0.06-0.479-0.127-0.915-0.192-1.284
								c0.006-0.006,0-0.013,0-0.013c0.478-0.861,3.073-5.669,6.461-12.784c1.647-3.444,3.476-7.429,5.343-11.76
								C211.085,296.484,211.191,293.611,210.28,290.997z"/>
							<path style="fill:#ED8D5D;" d="M192.274,321.708c0,0-4.989,2.553-4.046,3.81c0.943,1.257,2.643,0.374,2.643,0.374
								s-1.425,3.161-0.718,3.986c0.707,0.825,1.336,0.275,1.336,0.275s-0.275,1.061,0.432,1.689
								c0.707,0.629,1.807-0.314,1.807-0.314s0.786,1.1,1.689,0.982c0.904-0.118,1.1-2.828,1.1-2.828s0.353,2.789,0.903,2.907
								c0.55,0.118,2.003-4.753,0.511-9.624C196.438,318.094,192.274,321.708,192.274,321.708z"/>
						</g>
						<g>
							<path style="fill:#051934;" d="M198.311,297.942c-0.118-0.556-0.051-1.068,0.062-1.568c0.131-0.496,0.308-0.979,0.672-1.418
								c0.119,0.557,0.052,1.068-0.062,1.568C198.85,297.019,198.673,297.503,198.311,297.942z"/>
						</g>
					</g>
				</g>
			</g>
		</g>
		<g>
			<g>
				<path style="fill:#ED8D5D;" d="M184.995,221.099c-0.61-9.164-4.896-10.609-4.896-10.609c-5.204-1.647-9.572-0.823-13.809,2.615
					c0,0-2.79,2.355-1.338,9.172c-0.43-0.186-1.036-0.258-1.84,0.063c-1.81,0.724-0.742,6.084,3.316,4.659
					c2.485,6.136,6.242,9.268,10.114,9.494c0.44,0.025,0.88-0.031,1.307-0.113c0.434-0.082,0.861-0.189,1.263-0.377
					c2.401-1.106,4.261-3.451,5.223-6.933c0.321-1.156,0.54-2.432,0.647-3.834C185.089,223.958,185.095,222.576,184.995,221.099z"/>
				<g>
					<path style="fill:#051934;" d="M177.942,221.15c0.182,0.484,0.327,0.956,0.479,1.423c0.152,0.471,0.312,0.911,0.461,1.413
						c0.133,0.494,0.209,1.098-0.024,1.639c-0.115,0.27-0.284,0.505-0.562,0.669c-0.308,0.131-0.562,0.06-0.814,0.018
						c0.237-0.093,0.512-0.148,0.635-0.287c0.121-0.14,0.214-0.359,0.253-0.559c0.082-0.42,0.009-0.851-0.122-1.31
						c-0.123-0.458-0.275-0.967-0.326-1.474C177.86,222.175,177.852,221.659,177.942,221.15z"/>
					<path style="fill:#051934;" d="M174.557,226.567c0.29,0.31,0.6,0.579,0.915,0.823c0.321,0.237,0.658,0.437,1.02,0.565
						c0.357,0.141,0.74,0.204,1.131,0.194c0.395,0.006,0.791-0.079,1.211-0.161c-0.344,0.242-0.737,0.458-1.179,0.516
						c-0.435,0.088-0.902,0.036-1.322-0.121C175.49,228.064,174.84,227.368,174.557,226.567z"/>
					<g>
						<path style="fill:#051934;" d="M163.051,224.227c0.06-0.32,0.335-0.605,0.67-0.717c0.339-0.128,0.73-0.079,1.048,0.071
							c0.317,0.156,0.58,0.412,0.734,0.712c0.162,0.295,0.219,0.628,0.192,0.946c-0.35-0.534-0.692-0.963-1.156-1.178
							c-0.226-0.113-0.469-0.166-0.721-0.148C163.566,223.939,163.293,224.017,163.051,224.227z"/>
						<path style="fill:#051934;" d="M164.407,225.902c-0.194-0.062-0.349-0.241-0.404-0.447c-0.065-0.208-0.039-0.43,0.03-0.623
							c0.078-0.188,0.193-0.368,0.381-0.489c0.178-0.127,0.437-0.154,0.609-0.039c-0.175,0.1-0.253,0.231-0.323,0.341
							c-0.062,0.117-0.122,0.245-0.169,0.376c-0.054,0.128-0.087,0.255-0.116,0.39C164.396,225.548,164.372,225.704,164.407,225.902
							z"/>
					</g>
					<path style="fill:#051934;" d="M175.202,222.306c0,0.721-0.325,1.305-0.727,1.305s-0.726-0.584-0.726-1.305
						c0-0.721,0.325-1.305,0.726-1.305S175.202,221.586,175.202,222.306z"/>
					<path style="fill:#E6794E;" d="M173.204,226.877c0,1.413-1.145,2.558-2.558,2.558c-1.413,0-2.558-1.145-2.558-2.558
						s1.145-2.558,2.558-2.558C172.059,224.319,173.204,225.464,173.204,226.877z"/>
					<path style="fill:#E6794E;" d="M184.982,225.234c-0.107,1.402-0.327,2.678-0.647,3.834c-0.383,0.232-0.83,0.365-1.314,0.365
						c-1.408,0-2.558-1.144-2.558-2.558c0-1.408,1.15-2.558,2.558-2.558C183.813,224.317,184.517,224.675,184.982,225.234z"/>
					<path style="fill:#051934;" d="M175.572,228.686c0.234,0.036,0.395,0.132,0.573,0.201c0.167,0.098,0.318,0.16,0.519,0.281
						c-0.208,0.135-0.456,0.072-0.653-0.008C175.825,229.048,175.646,228.916,175.572,228.686z"/>
					<path style="fill:#051934;" d="M179.864,222.306c0,0.721,0.325,1.305,0.726,1.305c0.401,0,0.727-0.584,0.727-1.305
						c0-0.721-0.325-1.305-0.727-1.305C180.189,221.001,179.864,221.586,179.864,222.306z"/>
					<path style="fill:#051934;" d="M171.511,220.566c0.026-0.411,0.205-0.794,0.458-1.122c0.253-0.332,0.611-0.592,1.012-0.752
						c0.405-0.145,0.851-0.208,1.261-0.112c0.413,0.069,0.785,0.266,1.086,0.536c-0.413,0.032-0.772,0.019-1.115,0.067
						c-0.342,0.031-0.656,0.114-0.953,0.23C172.655,219.634,172.125,220.047,171.511,220.566z"/>
					<path style="fill:#051934;" d="M182.641,220.458c-0.629-0.5-1.171-0.897-1.784-1.099c-0.301-0.107-0.617-0.18-0.96-0.2
						c-0.344-0.037-0.703-0.013-1.117-0.033c0.292-0.279,0.658-0.487,1.069-0.569c0.408-0.109,0.855-0.06,1.264,0.073
						c0.407,0.148,0.772,0.397,1.035,0.721C182.412,219.67,182.602,220.047,182.641,220.458z"/>
					<path style="fill:#051934;" d="M173.928,221.678c0,0-0.749,0.048-1.257-0.193c0,0,0.658,0.797,1.078,0.822L173.928,221.678z"/>
					<path style="fill:#051934;" d="M181.092,221.678c0,0,0.749,0.048,1.257-0.193c0,0-0.658,0.797-1.078,0.822L181.092,221.678z"/>
				</g>
			</g>
			<path style="fill:#051934;" d="M174.215,207.592c-7.699,1.364-14.085,6.65-13.564,12.835c0.16,1.89,0.756,3.627,1.505,5.129
				c-2.375,0.477-7.231,2.168-6.313,8.057c0.842,5.393,6.002,4.877,9.088,4.029c0.505-2.356,0.793-4.873,0.957-6.925
				c0.001,0.001,0.003,0.003,0.005,0.005c0.126-1.578,0.182-2.879,0.201-3.62c-0.672,0.184-1.254,0.172-1.749,0.029
				c-0.083-0.024-0.162-0.052-0.24-0.083c-0.021-0.009-0.044-0.016-0.065-0.025c-0.09-0.039-0.177-0.082-0.261-0.13
				c-0.026-0.015-0.049-0.032-0.074-0.048c-0.056-0.035-0.112-0.072-0.165-0.111c-0.033-0.024-0.064-0.05-0.096-0.076
				c-0.044-0.036-0.087-0.072-0.128-0.11c-0.029-0.026-0.057-0.053-0.085-0.081c-0.046-0.047-0.091-0.095-0.134-0.145
				c-0.018-0.021-0.037-0.041-0.054-0.062c-0.125-0.153-0.236-0.317-0.331-0.49c-0.006-0.01-0.011-0.02-0.016-0.03
				c-0.043-0.079-0.082-0.16-0.119-0.242c-0.558-1.257-0.378-2.793,0.532-3.16c0.805-0.321,1.414-0.245,1.842-0.057
				c-0.012-0.053,1.41,1.967,1.41,1.967s5.29-2.252,4.138-7.333c0,0,9.707,4.922,14.408,3.164c0.034,0.33,0.064,0.667,0.088,1.02
				c0.038,0.503,0.057,0.999,0.063,1.477C189.589,212.186,181.588,206.284,174.215,207.592z"/>
		</g>
	</g>
	<g>
		<g>
			<path style="fill:#EB573D;" d="M538.552,314.65h-43.978l4.549,39.492h0.004c0.064,1.316,7.844,2.38,17.435,2.38
				c9.592,0,17.372-1.064,17.435-2.38h0.004L538.552,314.65z"/>
			<path style="fill:#B3361E;" d="M538.55,314.648c0,0.572-1.154,1.112-3.156,1.571c-3.85,0.88-10.839,1.471-18.829,1.471
				c-7.996,0-14.99-0.591-18.835-1.471c-2.002-0.459-3.151-0.999-3.151-1.571c0-1.678,9.838-3.036,21.985-3.036
				C528.706,311.612,538.55,312.97,538.55,314.648z"/>
			<path style="fill:#EB7965;" d="M538.538,314.742l-0.239,2.074c-4.049,1.087-12.261,1.835-21.735,1.835
				c-9.474,0-17.692-0.748-21.741-1.835l-0.239-2.093c0.301,1.647,10.02,2.967,21.979,2.967
				C528.473,317.69,538.169,316.376,538.538,314.742z"/>
			<path style="fill:#A3CAF7;" d="M535.393,316.219c-3.85,0.88-10.839,1.471-18.829,1.471c-7.996,0-14.99-0.591-18.835-1.471
				c1.626-1.238,9.44-2.168,18.835-2.168C525.959,314.051,533.773,314.981,535.393,316.219z"/>
			<path style="fill:#EB8776;" d="M494.948,315.554c0.358,3.173,1.005,5.493,2.014,8.504c1.006,3.014,2.378,5.893,4.178,8.434
				c1.835,2.501,4.096,4.691,6.828,6.064c1.349,0.703,2.776,1.268,4.272,1.601c0.736,0.211,1.504,0.294,2.261,0.421
				c0.763,0.082,1.538,0.143,2.305,0.17c0.767-0.01,1.541,0.038,2.299-0.06c0.379-0.04,0.765-0.049,1.14-0.112l1.123-0.201
				c1.478-0.332,2.93-0.799,4.261-1.521c1.335-0.71,2.576-1.603,3.693-2.649c1.107-1.058,2.087-2.261,2.962-3.547
				c1.745-2.582,3.008-5.519,3.965-8.55c0.956-3.033,1.651-5.656,2.009-8.833l0.295-0.589c-0.001,3.287-0.156,6.605-0.925,9.809
				c-0.806,3.187-1.952,6.342-3.74,9.198c-0.887,1.426-1.908,2.791-3.123,3.994c-1.217,1.198-2.596,2.246-4.1,3.09
				c-1.5,0.863-3.163,1.395-4.831,1.787l-1.265,0.236c-0.422,0.072-0.849,0.09-1.274,0.137c-0.851,0.112-1.7,0.072-2.55,0.086
				c-0.426,0.014-0.846-0.055-1.268-0.079c-0.422-0.043-0.845-0.052-1.265-0.124c-0.839-0.144-1.683-0.248-2.506-0.487
				c-1.66-0.391-3.272-1.023-4.773-1.845c-1.51-0.811-2.895-1.845-4.123-3.021c-1.235-1.17-2.33-2.478-3.248-3.887
				c-1.851-2.813-3.12-5.928-3.978-9.108c-0.824-3.195-1.004-6.622-1-9.913L494.948,315.554z"/>
		</g>
		<g>
			<g>
				<g>
					<g>
						<g>
							<polygon style="fill:#CC6F49;" points="455.203,300.793 455.203,346.255 466.596,347.898 474.63,300.793 							"/>
							<path style="fill:#CC6F49;" d="M466.198,346.255c0,0,4.012,5.422,11.734,6.244c0,0,4.354,0.904,4.847,3.533
								c0,0-24.975,0.575-27.85,0c-2.875-0.575,1.26-12.734,1.26-12.734L466.198,346.255z"/>
						</g>
						<g>
							<path style="fill:#A3CAF7;" d="M454.293,356.522l28.033-0.06c0.376-0.001,0.681-0.307,0.68-0.683l-0.001-0.454
								c-0.001-0.376-0.307-0.681-0.683-0.68l-28.033,0.06c-0.376,0.001-0.681,0.306-0.68,0.683l0.001,0.454
								C453.611,356.219,453.917,356.523,454.293,356.522z"/>
							<polygon style="fill:#A3CAF7;" points="471.709,355.792 472.572,356.369 476.034,351.19 474.973,351.027 							"/>
						</g>
					</g>
					<g>
						<g>
							<polygon style="fill:#CC6F49;" points="421.035,300.793 418.898,347.652 430.646,346.009 440.421,300.793 							"/>
							<path style="fill:#CC6F49;" d="M419.65,346.009c0,0-5.184,5.422-13.084,6.244c0,0-4.549,0.904-5.611,3.533
								c0,0,24.85,0.575,27.85,0c3-0.575,1.493-12.734,1.493-12.734L419.65,346.009z"/>
						</g>
						<g>
							<path style="fill:#A3CAF7;" d="M429.526,356.522l-28.033-0.06c-0.376-0.001-0.681-0.307-0.68-0.683l0.001-0.454
								c0.001-0.376,0.306-0.681,0.683-0.68l28.033,0.06c0.376,0.001,0.681,0.306,0.68,0.683l-0.001,0.454
								C430.208,356.219,429.902,356.523,429.526,356.522z"/>
							<polygon style="fill:#A3CAF7;" points="412.111,355.792 411.247,356.369 407.785,351.19 408.846,351.027 							"/>
						</g>
					</g>
					<path style="fill:#051934;" d="M432.802,204.839c0,0-8.38,9.637-10.056,31.426c-1.676,21.789-3.562,72.909-3.562,72.909h20.532
						l15.294-75.632l-0.419,75.842h19.903c0,0,14.037-78.984,13.199-87.155c-0.838-8.171-6.794-18.746-10.056-21.37L432.802,204.839
						z"/>
				</g>
				<g>
					<path style="fill:#FFBF67;" d="M432.606,204.629c0,0-7.555,18.646-8.184,34.359c-0.496,12.391,0.312,30.384,0.675,37.439
						c0.091,1.768,1.403,3.229,3.152,3.505c7.765,1.226,29.048,3.968,44.564,0.126c1.413-0.35,2.478-1.509,2.745-2.94
						c1.889-10.113,9.225-50.603,7.945-62.852c-1.009-9.653-4.253-13.274-4.253-13.274L432.606,204.629z"/>
					<g>
						<g>
							<path style="fill:#051934;" d="M444.404,245.15c1.211-1.287,2.428-2.558,3.614-3.856c1.184-1.299,2.371-2.595,3.494-3.946
								c1.162-1.318,2.263-2.687,3.365-4.056c1.103-1.37,2.173-2.767,3.26-4.16c-0.871,1.538-1.847,3.013-2.875,4.452
								c-1.028,1.439-2.142,2.814-3.274,4.173c-1.171,1.325-2.359,2.637-3.625,3.872C447.1,242.864,445.791,244.054,444.404,245.15z
								"/>
						</g>
						<g>
							<path style="fill:#051934;" d="M448.259,252.337l4.005-4.862c1.327-1.624,2.669-3.234,3.959-4.887
								c1.329-1.621,2.609-3.281,3.902-4.932l3.87-4.97c-1.088,1.8-2.267,3.543-3.482,5.259c-1.216,1.716-2.505,3.379-3.8,5.036
								c-1.335,1.625-2.674,3.247-4.084,4.808C451.221,249.351,449.777,250.881,448.259,252.337z"/>
						</g>
					</g>
				</g>
			</g>
			<g>
				<g>
					<g>
						<g>
							<path style="fill:#CC6F49;" d="M435.233,171.137c-0.099-1.183-0.71-2.55-1.584-3.93c-2.708-4.285-9.549-3.516-10.595,1.196
								l-6.533,29.516l-26.578-20.591l-0.21-0.164l-4.364,5.021c0,0,0.033,0.04,0.092,0.118c1.13,1.446,12.691,16.135,27.696,30.818
								c0.036,0.036,0.073,0.071,0.11,0.107c5.265,5.137,14.127,2.815,16.227-4.235c0.082-0.276,0.164-0.552,0.245-0.828
								C433.544,195.211,436.127,181.869,435.233,171.137z"/>
							<path style="fill:#CC6F49;" d="M387.674,170.733c-0.913,0.148-1.371,3.496-1.371,3.496s-0.961-0.967-2.172-2.126
								c-0.057,0.055-0.113,0.116-0.171,0.166c-1.249,1.707-2.365,3.515-3.467,5.33c0.562,0.324,0.95,0.526,0.95,0.526l-1.169-0.167
								c-0.381,0.628-0.763,1.255-1.147,1.88c3.309,2.017,7.712,2.762,7.712,2.762l3.077-3.566
								C390.464,177.792,388.587,170.585,387.674,170.733z"/>
						</g>
						<g>
							<path style="fill:#051934;" d="M421.594,198.449c-1.691,0.034-3.374-0.021-5.052-0.128l0.22-0.508
								c2.233,1.953,4.409,3.97,6.404,6.188c-2.405-1.763-4.629-3.727-6.795-5.754l-0.637-0.596l0.857,0.088
								C418.263,197.911,419.932,198.135,421.594,198.449z"/>
						</g>
					</g>
					<g>
						<g>
							<g>
								<path style="fill:#A3CAF7;" d="M368.63,193.87c0,0-8.921,5.201-16.412,3.703c-1.18-0.236-2.393-0.299-3.587-0.151
									c-1.667,0.207-3.474,0.804-3.268,2.433c0.374,2.961,5.748,2.696,5.748,2.696s-3.886,4.022-2.715,5.869
									c1.171,1.847,6.737-1.041,6.737-1.041s-3.416,6.378-1.749,7.907c1.667,1.529,7.458-4.026,7.458-4.026
									s-0.379,6.933,1.269,7.641c1.649,0.708,5.02-5.231,5.02-5.231s1.092,6.571,3.549,6.241c2.458-0.33,2.27-5.716,1.825-7.448
									c-0.445-1.732-3.833-12.436-1.85-17.28L368.63,193.87z"/>
								<g>
									<path style="fill:#051934;" d="M370.35,196.009l-2.406-1.72l20.165-28.201c0.475-0.664,1.399-0.818,2.063-0.343l0,0
										c0.664,0.475,0.818,1.399,0.343,2.063L370.35,196.009z"/>
									
										<rect x="368.879" y="190.605" transform="matrix(0.8134 0.5817 -0.5817 0.8134 181.4689 -179.5382)" style="fill:#051934;" width="3.45" height="5.011"/>
								</g>
							</g>
							<g>
								<g>
									<path style="fill:#051934;" d="M351.409,202.429c1.436-0.353,2.854-0.741,4.255-1.177c1.399-0.441,2.79-0.902,4.144-1.46
										c1.376-0.502,2.698-1.131,4.009-1.78c1.32-0.64,2.564-1.413,3.829-2.183c-1.107,0.979-2.308,1.869-3.598,2.608
										c-1.284,0.748-2.633,1.385-4.011,1.94c-1.393,0.517-2.802,0.993-4.245,1.339
										C354.349,202.06,352.887,202.332,351.409,202.429z"/>
								</g>
								<g>
									<path style="fill:#051934;" d="M367.331,212.8c-0.23-1.311-0.33-2.639-0.387-3.967c-0.053-1.329-0.016-2.661,0.052-3.992
										c0.125-1.326,0.262-2.656,0.545-3.963c0.292-1.303,0.669-2.594,1.256-3.791c-0.34,1.287-0.591,2.576-0.78,3.876
										c-0.181,1.301-0.32,2.609-0.395,3.922c-0.12,1.311-0.147,2.628-0.197,3.946L367.331,212.8z"/>
								</g>
								<g>
									<path style="fill:#051934;" d="M355.913,207.038c1.764-1.763,3.648-3.378,5.563-4.957c1.926-1.564,3.883-3.092,5.96-4.471
										c-1.763,1.764-3.648,3.379-5.563,4.957C359.947,204.131,357.99,205.658,355.913,207.038z"/>
								</g>
								<g>
									<path style="fill:#051934;" d="M361.046,211.019c0.775-2.067,1.72-4.049,2.706-6.009c1.003-1.951,2.049-3.881,3.266-5.724
										c-0.774,2.068-1.718,4.049-2.706,6.009C363.307,207.246,362.261,209.176,361.046,211.019z"/>
								</g>
							</g>
						</g>
						<path style="fill:#B36140;" d="M384.21,171.985c0,0-2.082-0.511-1.768,1.611c0,0-2.165-0.364-1.515,1.998
							c0,0-1.981-0.152-1.392,1.891c0,0-1.846,0.55-1.218,1.925s2.986,0.786,2.75,0.236c-0.236-0.55-0.511-1.178-0.511-1.178
							s1.414,0.903,2.239,0.746c0.825-0.157-0.589-2.593-0.589-2.593s1.807,1.218,2.514,0.786s-1.021-2.514-1.021-2.514
							s1.964,1.571,2.475,1.218C386.685,175.756,386.135,173.203,384.21,171.985z"/>
					</g>
				</g>
				<g>
					<g>
						<path style="fill:#CC6F49;" d="M470.053,181.782c0.347-5.662,0.459-16.405-2.027-21.609l2.798-0.626
							c-2.942-4.692-14.72-8.538-17.319-9.34c-3.813-4.251-6.303-15.506-6.303-15.506l-8.621,9.581c0,0-0.212,5.612-2.178,9.602
							c-12.267,6.124-13.709,16.439-13.709,16.439l2.962-0.663c0.535,3.046,1.409,7.234,2.541,9.954
							c1.97,4.732,6.877,10.168,8.834,16.49c4.976-0.672,9.996-1.044,14.962-1.805c0.691-0.241,1.383-0.482,2.075-0.721
							c5.258-1.82,10.482-3.736,15.699-5.669c0.46-0.17,0.931-0.361,1.411-0.563C470.412,185.419,469.948,183.502,470.053,181.782z"
							/>
						<path style="fill:#C4533A;" d="M438.074,148.595c0.263-0.025,0.528-0.069,0.789-0.135c4.176-1.129,7.485-5.755,8.298-13.711
							l-0.059,0.06c-1.109,6.826-4.216,10.819-8.053,11.859c-0.22,0.058-0.439,0.098-0.666,0.121
							C438.313,147.341,438.216,147.958,438.074,148.595z"/>
					</g>
					<g>
						<path style="fill:#A3CAF7;" d="M431.545,156.39l1.257,13.828l18.542-2.986l2.2-17.599l6.285,2.357
							c0,0-3.771,15.242-0.314,19.798c3.457,4.557,11.628,5.971,11.628,5.971s-1.485,13.665,8.108,23.233
							c0.38,0.379,0.217,1.025-0.293,1.189c-4.997,1.606-25.624,7.594-46.204,4.298c-0.401-0.064-0.671-0.447-0.598-0.846
							c0.513-2.783,2.151-12.832-0.14-16.874c-2.671-4.714-7.228-8.695-7.071-13.251c0.157-4.557,3.614-16.918,3.614-16.918
							L431.545,156.39z"/>
						<g>
							<g>
								<path style="fill:#051934;" d="M468.314,177.393c-0.091,2.124-0.027,4.244,0.157,6.347c0.196,2.101,0.501,4.191,1.031,6.227
									c0.514,2.04,1.269,4.005,2.227,5.874c0.997,1.853,2.305,3.512,3.813,5.017c-1.679-1.307-3.125-2.932-4.234-4.78
									c-1.071-1.866-1.843-3.887-2.415-5.956c-0.489-2.089-0.808-4.215-0.903-6.35
									C467.905,181.638,467.965,179.495,468.314,177.393z"/>
							</g>
							<g>
								<path style="fill:#051934;" d="M439.312,183.554c1.423,0.923,2.868,1.792,4.364,2.56c1.495,0.767,3.02,1.475,4.599,2.042
									c1.562,0.614,3.174,1.09,4.804,1.499c1.631,0.409,3.29,0.71,4.968,0.956c-1.698,0.015-3.397-0.168-5.072-0.483
									c-1.676-0.316-3.316-0.805-4.921-1.383c-1.587-0.626-3.144-1.338-4.611-2.208
									C441.977,185.668,440.579,184.684,439.312,183.554z"/>
							</g>
							<g>
								<path style="fill:#051934;" d="M440.603,188.785c1.514,0.77,2.974,1.558,4.482,2.265c1.5,0.723,3.033,1.359,4.584,2.05
									c-1.689-0.212-3.318-0.761-4.854-1.483C443.287,190.879,441.834,189.96,440.603,188.785z"/>
							</g>
							<g>
								<path style="fill:#051934;" d="M432.803,172.365c1.551-0.381,3.112-0.694,4.676-0.997c1.563-0.304,3.135-0.553,4.702-0.832
									c1.575-0.229,3.146-0.484,4.725-0.688c1.579-0.203,3.16-0.397,4.752-0.521c-1.55,0.382-3.112,0.695-4.675,0.998
									c-1.563,0.303-3.135,0.553-4.702,0.831c-1.576,0.227-3.146,0.485-4.726,0.687
									C435.975,172.046,434.394,172.24,432.803,172.365z"/>
							</g>
						</g>
					</g>
				</g>
				<path style="fill:#CC6F49;" d="M498.321,240.483c0-0.004,0-0.005,0-0.009c-0.026-0.927-0.191-5.711-0.73-12.717
					c-0.686-8.935-1.983-21.496-4.398-34.298c-0.398-2.111-1.094-4.157-2.073-6.069c-6.076-11.872-13.274-23.155-21.191-30.252
					c-0.677-0.605-1.643-1.084-2.767-1.459c-0.348-0.112-0.716-0.217-1.091-0.316c-4.903-1.255-9.352,3.996-6.881,8.143
					l19.493,32.612l13.079,45.736l0,0.001c-1.245,2.23-2.695,6.329-2.067,6.65c0.823,0.421,3.173-2.008,3.173-2.008
					s1.428,9.516,2.165,8.943c0.737-0.573,0.455-6.421,0.455-6.421s1.727,7.133,2.653,6.063c0.926-1.07-0.132-6.505-0.132-6.505
					l2.353,4.42c0.112,0.21,0.397,0.221,0.494,0.012c0.772-1.661-1.767-6.778-1.767-6.778l2.912,2.85
					c0.288,0.282,0.722,0.033,0.667-0.377C502.247,245.523,499.72,242.145,498.321,240.483z"/>
			</g>
			<g>
				<g>
					<path style="fill:#CC6F49;" d="M449.302,130.07c-0.853-0.151-1.432,0.045-1.815,0.315c0.027-6.972-3.184-8.705-3.184-8.705
						c-4.85-2.497-9.293-2.412-14.052,0.263c0,0-3.897,2.287-2.622,11.383c0.21,1.472,0.493,2.82,0.854,4.055
						c0.394,1.347,0.867,2.557,1.42,3.615c1.65,3.214,3.956,5.126,6.533,5.725c0.368,0.085,0.749,0.105,1.131,0.105h0.177
						c0.44-0.007,0.881-0.039,1.301-0.158c3.748-1.014,6.787-4.847,7.964-11.36C451.272,135.874,451.222,130.409,449.302,130.07z"/>
					<g>
						<path style="fill:#051934;" d="M434.541,131.938c-0.079,0.511-0.125,1.003-0.178,1.491c-0.052,0.492-0.119,0.955-0.163,1.478
							c-0.029,0.511,0.02,1.118,0.359,1.599c0.168,0.241,0.382,0.436,0.686,0.54c0.329,0.065,0.562-0.056,0.801-0.148
							c-0.251-0.043-0.531-0.04-0.68-0.151c-0.147-0.112-0.282-0.307-0.362-0.495c-0.166-0.394-0.183-0.831-0.148-1.307
							c0.027-0.473,0.071-1.003,0.018-1.51C434.831,132.925,434.733,132.419,434.541,131.938z"/>
						<path style="fill:#051934;" d="M438.962,136.549c-0.22,0.363-0.469,0.689-0.728,0.992c-0.266,0.297-0.555,0.563-0.883,0.762
							c-0.32,0.21-0.682,0.351-1.068,0.421c-0.385,0.087-0.79,0.084-1.219,0.09c0.386,0.166,0.815,0.297,1.259,0.264
							c0.444-0.003,0.89-0.149,1.269-0.388C438.355,138.206,438.848,137.391,438.962,136.549z"/>
						<g>
							<path style="fill:#051934;" d="M449.747,131.906c-0.124-0.301-0.451-0.523-0.803-0.565c-0.358-0.056-0.731,0.072-1.011,0.284
								c-0.279,0.217-0.483,0.522-0.573,0.847c-0.098,0.322-0.087,0.66,0.005,0.966c0.234-0.595,0.48-1.085,0.891-1.39
								c0.199-0.157,0.425-0.258,0.676-0.292C449.184,131.73,449.466,131.75,449.747,131.906z"/>
							<path style="fill:#051934;" d="M448.762,133.823c0.177-0.1,0.292-0.308,0.304-0.52c0.021-0.217-0.05-0.428-0.157-0.604
								c-0.115-0.168-0.264-0.32-0.473-0.401c-0.2-0.088-0.46-0.062-0.604,0.087c0.192,0.062,0.295,0.174,0.386,0.268
								c0.085,0.102,0.17,0.214,0.242,0.334c0.079,0.114,0.137,0.231,0.193,0.358C448.7,133.475,448.755,133.622,448.762,133.823z"
								/>
						</g>
						<path style="fill:#051934;" d="M437.46,132.51c0.147,0.705,0.585,1.211,0.978,1.129s0.592-0.72,0.444-1.426
							c-0.147-0.706-0.585-1.211-0.978-1.129C437.511,131.167,437.312,131.805,437.46,132.51z"/>
						<path style="fill:#C4533A;" d="M440.349,136.576c0.289,1.383,1.644,2.27,3.027,1.981c1.383-0.289,2.27-1.644,1.981-3.027
							c-0.289-1.383-1.644-2.27-3.027-1.981C440.947,133.838,440.06,135.193,440.349,136.576z"/>
						<path style="fill:#C4533A;" d="M431.257,141.088c-0.467,0.099-0.933,0.059-1.354-0.092c-0.552-1.058-1.025-2.267-1.42-3.615
							c0.342-0.651,0.96-1.144,1.729-1.301c1.387-0.289,2.741,0.598,3.03,1.978C433.531,139.445,432.643,140.799,431.257,141.088z"
							/>
						<path style="fill:#051934;" d="M438.401,138.831c-0.222,0.083-0.36,0.21-0.519,0.314c-0.143,0.13-0.279,0.222-0.451,0.382
							c0.231,0.09,0.461-0.023,0.637-0.141C438.228,139.237,438.376,139.071,438.401,138.831z"/>
						<path style="fill:#051934;" d="M432.896,133.463c0.147,0.705-0.052,1.344-0.444,1.426s-0.831-0.423-0.978-1.129
							c-0.147-0.706,0.052-1.344,0.444-1.426C432.311,132.253,432.748,132.758,432.896,133.463z"/>
						<path style="fill:#051934;" d="M440.717,130.053c-0.11-0.397-0.363-0.736-0.678-1.004c-0.315-0.273-0.719-0.454-1.145-0.529
							c-0.426-0.059-0.875-0.03-1.258,0.148c-0.39,0.152-0.714,0.421-0.953,0.747c0.411-0.053,0.76-0.139,1.105-0.163
							c0.341-0.039,0.665-0.022,0.98,0.03C439.407,129.373,440.01,129.67,440.717,130.053z"/>
						<path style="fill:#051934;" d="M429.799,132.221c0.514-0.618,0.963-1.118,1.522-1.441c0.273-0.166,0.567-0.302,0.898-0.392
							c0.33-0.107,0.686-0.157,1.087-0.26c-0.343-0.213-0.744-0.342-1.163-0.338c-0.421-0.024-0.849,0.117-1.223,0.33
							c-0.368,0.228-0.675,0.547-0.866,0.917C429.863,131.403,429.753,131.812,429.799,132.221z"/>
						<path style="fill:#051934;" d="M438.578,131.635c0,0,0.743-0.106,1.191-0.446c0,0-0.481,0.915-0.887,1.025L438.578,131.635z"
							/>
						<path style="fill:#051934;" d="M431.565,133.099c0,0-0.723,0.2-1.27,0.068c0,0,0.807,0.646,1.223,0.584L431.565,133.099z"/>
					</g>
				</g>
				<path style="fill:#521802;" d="M462.186,153.486c-0.025-0.214-0.082-0.421-0.151-0.616c-0.226-0.597-0.591-1.138-0.83-1.735
					c-0.848-2.118,0.075-4.563-0.44-6.782c-0.358-1.527-1.376-2.822-2.545-3.872c-1.163-1.043-2.495-1.892-3.708-2.885
					c-0.987-0.798-1.942-1.76-2.244-2.998c-0.207-0.842-0.082-1.722-0.063-2.59c0.094-3.294-1.069-6.555-3.495-8.78
					c-0.195-1.383-1.106-2.596-2.244-3.4c-1.144-0.804-2.501-1.251-3.859-1.571c-2.684-0.635-5.525-0.836-8.19-0.113
					c-1.188,0.32-2.319,0.817-3.438,1.332c-1.056,0.478-2.118,0.987-3.004,1.741c-1.722,1.464-2.59,3.727-2.879,5.965
					c-0.176,1.307,0.189,2.652,0.553,3.916c1.012,3.495-1.075,7.178-0.767,10.804c0.163,1.898,1.018,3.74,2.363,5.091
					c0.792,0.798,1.766,1.458,2.263,2.458c0.635,1.276,0.377,2.81,0.798,4.167c0.339,1.087,1.138,2.005,2.15,2.527
					c1.188-0.792,2.495-1.559,3.947-2.269c1.125-2.282,1.672-5.097,1.942-7.083c-0.201,0.019-0.402,0.031-0.603,0.031h-0.176
					c-0.383,0-0.76-0.019-1.131-0.1c-2.577-0.603-4.884-2.514-6.53-5.726c-0.553-1.062-1.025-2.269-1.42-3.614
					c-0.365-1.238-0.647-2.583-0.855-4.054c-0.062-0.443-0.109-0.865-0.147-1.277c0.041,0.019,0.078,0.045,0.122,0.059
					c0.526,0.163,1.072-0.132,1.548-0.408c1.905-1.105,3.982-2.109,6.184-2.077c1.022,0.015,2.028,0.255,3.049,0.307
					s2.116-0.115,2.882-0.791c0.672-0.593,0.993-1.491,1.154-2.372c0.421,1.076,0.715,2.066,1.136,3.142
					c0.155,0.395,0.313,0.797,0.579,1.127c0.266,0.33,0.661,0.584,1.085,0.574c0.26-0.006,0.507-0.107,0.747-0.208
					c0.354-0.148,0.709-0.296,1.063-0.444c0.212-0.089,0.427-0.179,0.61-0.317c0.19-0.143,0.331-0.336,0.46-0.537
					c0.323-0.091,0.712-0.126,1.199-0.039c1.867,0.333,1.967,5.506-1.948,5.273c0.591,2.439,2.872,11.175,6.122,14.839l0.069-0.547
					l6.285,2.357c0,0-0.038,0.151-0.107,0.434C460.527,152.751,461.356,153.109,462.186,153.486z"/>
			</g>
		</g>
	</g>
	<g>
		<g>
			<g>
				<path style="fill:#FA9778;" d="M610.009,303.441h-17.774l2.192,18.836l2.99,25.676l-0.031,0.009c0,0-4.012,5.422-11.734,6.244
					c0,0-4.354,0.904-4.847,3.533c0,0,24.975,0.575,27.85,0c1.86-0.372,0.786-5.591-0.204-9.231L610.009,303.441z"/>
				<g>
					<path style="fill:#051934;" d="M609.724,357.097c-1.207,1.05-19.635,0.233-21.998,0.471c-2.351,0.239-7.146-0.314-7.146-0.314
						s0-3.067,2.2-3.532c1.917-0.415,3.293-0.585,3.614-0.622c0.05-0.006,0.075-0.006,0.075-0.006l8.611-5.808l1.76-1.188
						c0,0,1.496,0.082,2.124,0.547c0.629,0.478,1.886,0.71,1.961,1.182c0.082,0.471-0.943,1.496-0.943,1.496
						s3.168,1.779,5.695,0.918c0.176-0.057,0.346-0.126,0.515-0.214c2.589-1.333,2.25-2.464,2.25-2.464s1.05,0.503,0.893,1.596
						c-0.069,0.478,0.453,1.634,0.867,2.967C610.748,353.866,611.107,355.896,609.724,357.097z"/>
					<path style="fill:#EB573D;" d="M610.201,352.125c-0.66-0.182-1.257-1.546-1.257-1.546s-1.81,1.647-2.753,1.332
						c-0.597-0.201-0.597-1.062-0.515-1.672c0.176-0.057,0.346-0.126,0.515-0.214c2.589-1.333,2.25-2.464,2.25-2.464
						s1.05,0.503,0.893,1.596C609.265,349.636,609.787,350.793,610.201,352.125z"/>
					<g>
						
							<rect x="591.594" y="354.042" transform="matrix(0.7071 0.7071 -0.7071 0.7071 425.1301 -314.448)" style="fill:#EB573D;" width="1.086" height="3.823"/>
						
							<rect x="595.6" y="352.528" transform="matrix(0.7071 0.7071 -0.7071 0.7071 425.8691 -317.4661)" style="fill:#EB573D;" width="1.086" height="5.597"/>
						
							<rect x="598.965" y="352.56" transform="matrix(0.7071 0.7071 -0.7071 0.7071 426.8456 -319.8371)" style="fill:#EB573D;" width="1.086" height="5.56"/>
					</g>
					<path style="fill:#0D4187;" d="M580.579,357.254L580.579,357.254c0,0.659,0.437,1.238,1.073,1.413
						c1.09,0.3,2.761,0.708,3.805,0.708c1.652,0,16.914-0.157,18.566,0c0.938,0.089,2.84,0.128,4.308,0.144
						c1.102,0.013,2.006-0.862,2.032-1.962l0.032-1.325L580.579,357.254z"/>
				</g>
			</g>
			<g>
				<path style="fill:#FA9778;" d="M655.657,354.206c-6.664-0.709-10.558-4.837-11.502-5.957l4.696-44.808h-17.82l2.041,44.296
					c-1.032,3.621-2.415,9.603-0.419,10.002c2.875,0.575,27.85,0,27.85,0C660.011,355.11,655.657,354.206,655.657,354.206z"/>
				<g>
					<path style="fill:#051934;" d="M631.824,357.097c1.207,1.05,19.635,0.233,21.998,0.471c2.351,0.239,7.146-0.314,7.146-0.314
						s0-3.067-2.2-3.532c-1.917-0.415-3.293-0.585-3.614-0.622c-0.05-0.006-0.075-0.006-0.075-0.006l-8.611-5.808l-1.76-1.188
						c0,0-1.496,0.082-2.125,0.547c-0.628,0.478-1.885,0.71-1.961,1.182c-0.082,0.471,0.943,1.496,0.943,1.496
						s-3.168,1.779-5.694,0.918c-0.176-0.057-0.346-0.126-0.515-0.214c-2.589-1.333-2.25-2.464-2.25-2.464s-1.05,0.503-0.893,1.596
						c0.069,0.478-0.453,1.634-0.867,2.967C630.8,353.866,630.441,355.896,631.824,357.097z"/>
					<path style="fill:#EB573D;" d="M631.346,352.125c0.66-0.182,1.257-1.546,1.257-1.546s1.81,1.647,2.753,1.332
						c0.597-0.201,0.597-1.062,0.515-1.672c-0.176-0.057-0.346-0.126-0.515-0.214c-2.589-1.333-2.25-2.464-2.25-2.464
						s-1.05,0.503-0.893,1.596C632.283,349.636,631.761,350.793,631.346,352.125z"/>
					<g>
						
							<rect x="648.868" y="354.042" transform="matrix(-0.7071 0.7071 -0.7071 -0.7071 1360.3105 148.4478)" style="fill:#EB573D;" width="1.086" height="3.823"/>
						
							<rect x="644.863" y="352.528" transform="matrix(-0.7071 0.7071 -0.7071 -0.7071 1353.0298 150.2097)" style="fill:#EB573D;" width="1.086" height="5.597"/>
						
							<rect x="641.497" y="352.56" transform="matrix(-0.7071 0.7071 -0.7071 -0.7071 1347.2942 152.6116)" style="fill:#EB573D;" width="1.086" height="5.56"/>
					</g>
					<path style="fill:#0D4187;" d="M660.969,357.254L660.969,357.254c0,0.659-0.437,1.238-1.073,1.413
						c-1.09,0.3-2.761,0.708-3.805,0.708c-1.652,0-16.914-0.157-18.566,0c-0.938,0.089-2.84,0.128-4.308,0.144
						c-1.102,0.013-2.006-0.862-2.032-1.962l-0.032-1.325L660.969,357.254z"/>
				</g>
			</g>
			<g>
				<path style="fill:#051934;" d="M611.24,206.335h38.056c1.549,0,2.93,0.979,3.432,2.444c1.397,4.071,4.001,12.606,4.457,20.811
					c0.629,11.313-8.485,83.279-8.485,83.279h-18.227l-2.514-72.594l-16.027,43.997l-1.571,27.969h-17.913
					c0,0-5.028-27.027-3.143-35.197c1.652-7.157,15.118-56.028,18.434-68.044C608.174,207.424,609.606,206.335,611.24,206.335z"/>
				<g>
					<g>
						<path style="fill:#FFFFFF;" d="M611.408,214.401c5.518-0.091,11.121-0.198,16.76-0.238l0.254-0.002l-0.016,0.253
							c-0.277,4.297-0.951,8.566-2.216,12.7c-0.657,2.053-1.47,4.092-2.745,5.887c-0.649,0.884-1.422,1.705-2.376,2.302
							c-0.946,0.602-2.086,0.922-3.21,0.876c-2.245-0.1-4.359-1.235-5.742-2.966c-1.377-1.755-1.977-3.945-2.214-6.081
							c-0.24-2.152-0.147-4.32,0.146-6.448C610.341,218.556,610.787,216.451,611.408,214.401z M611.408,214.401
							c-0.547,2.071-0.915,4.186-1.128,6.311c-0.2,2.124-0.261,4.269,0.019,6.372c0.273,2.088,0.908,4.187,2.231,5.799
							c1.285,1.6,3.306,2.653,5.345,2.724c1.016,0.032,2.021-0.256,2.878-0.807c0.861-0.547,1.581-1.315,2.191-2.158
							c1.19-1.721,2.024-3.693,2.676-5.709c1.287-4.051,1.937-8.308,2.311-12.545l0.237,0.251
							C622.634,214.599,617.063,214.492,611.408,214.401z"/>
					</g>
					<g>
						<path style="fill:#FFFFFF;" d="M651.316,214.401c-5.656,0.091-11.226,0.198-16.76,0.238l0.237-0.251
							c0.374,4.237,1.023,8.494,2.311,12.545c0.652,2.017,1.486,3.988,2.676,5.709c0.61,0.843,1.33,1.611,2.191,2.158
							c0.857,0.551,1.862,0.84,2.878,0.807c2.039-0.071,4.061-1.125,5.345-2.724c1.323-1.612,1.958-3.71,2.231-5.799
							c0.28-2.104,0.219-4.249,0.019-6.372C652.231,218.587,651.862,216.472,651.316,214.401z M651.316,214.401
							c0.621,2.051,1.067,4.156,1.358,6.284c0.292,2.128,0.386,4.296,0.146,6.448c-0.237,2.136-0.837,4.326-2.214,6.081
							c-1.383,1.731-3.497,2.867-5.742,2.966c-1.124,0.045-2.264-0.275-3.21-0.876c-0.953-0.597-1.727-1.418-2.376-2.302
							c-1.275-1.795-2.088-3.835-2.745-5.887c-1.265-4.134-1.939-8.403-2.216-12.7l-0.016-0.253l0.254,0.002
							C640.194,214.203,645.797,214.309,651.316,214.401z"/>
					</g>
					<g>
						<path style="fill:#FFFFFF;" d="M592.605,307.841c1.375-0.13,2.75-0.19,4.125-0.241c1.375-0.052,2.75-0.047,4.125-0.073
							c1.375,0.025,2.75,0.022,4.125,0.072c1.375,0.051,2.75,0.111,4.125,0.242c-1.375,0.131-2.75,0.191-4.125,0.242
							c-1.375,0.05-2.75,0.048-4.125,0.072c-1.375-0.026-2.75-0.021-4.125-0.073C595.354,308.031,593.979,307.971,592.605,307.841z"
							/>
					</g>
					<g>
						<path style="fill:#FFFFFF;" d="M631.102,307.841c1.375-0.13,2.75-0.19,4.125-0.241c1.375-0.052,2.75-0.047,4.125-0.073
							c1.375,0.025,2.75,0.022,4.125,0.072c1.375,0.051,2.75,0.111,4.125,0.242c-1.375,0.131-2.75,0.191-4.125,0.242
							c-1.375,0.05-2.75,0.048-4.125,0.072c-1.375-0.026-2.75-0.021-4.125-0.073C633.851,308.031,632.477,307.971,631.102,307.841z"
							/>
					</g>
				</g>
			</g>
		</g>
		<g>
			<g>
				<g>
					<path style="fill:#A3CAF7;" d="M705.883,200.311c0,0-0.728,5.275-2.91,12.187c-1.63,5.163-0.774,11.596-0.237,14.52
						c0.168,0.914,0.963,1.578,1.893,1.578h8.595c0.929,0,1.726-0.663,1.893-1.577c0.626-3.438,1.728-11.708-0.957-16.795
						c-3.456-6.548-4.547-9.823-4.547-9.823L705.883,200.311z"/>
					<path style="fill:#EB573D;" d="M713.771,195.012c0,0,0.378,2.621,1.968,4.26c0.295,0.304-0.034,0.8-0.431,0.653
						c-1.269-0.469-2.815-1.424-3.856-3.367L713.771,195.012z"/>
					<path style="fill:#A3CAF7;" d="M716.818,192.966v2.411c0,0-1.218,0.09-2.539,0.583c-1.501,0.559-3.136,1.637-3.281,3.692
						h-5.503c0,0,0.046-0.91-2.273-2.501c-2.319-1.592-0.456-4.093,2.273-4.184c1.884-0.063,6.563-0.04,9.281-0.019
						C715.994,192.958,716.818,192.966,716.818,192.966z"/>
					<path style="fill:#EB573D;" d="M717,192.753v2.757c0,0-1.393,0.103-2.904,0.666l0.568-3.445
						C716.058,192.743,717,192.753,717,192.753z"/>
					<rect x="705.201" y="199.197" style="fill:#EB573D;" width="6.025" height="2.478"/>
				</g>
				<path style="fill:#FA9778;" d="M715.677,198.871c-0.471-0.354-4.832-0.393-4.832-0.393s4.36-1.257,4.007-2.082
					c-0.353-0.825-8.406,0.589-8.406,0.589s2.318-3.496,0.904-3.85c-1.414-0.354-5.63,3.934-5.63,3.934l-34.143,0.184
					l-16.634-37.692c-1.952-4.417-8.813-3.818-10.621,0.907c-0.592,1.531-0.92,2.984-0.789,4.167
					c1.144,9.95,5.685,21.518,11.363,32.71c0.992,1.952,2.018,3.893,3.067,5.812c2.85,5.214,8.628,8.132,14.508,7.275
					c1.563-0.228,3.101-0.464,4.607-0.705c15.583-2.497,27.689-5.593,29.161-5.974c1.96,1.307,10.335,1.246,10.257,0.578
					c-0.068-0.575-1.992-1.409-2.53-1.632c0.478,0.186,2.088,0.725,3.001-0.058c0.825-0.707-1.925-1.689-1.925-1.689
					C716.699,200.285,716.149,199.224,715.677,198.871z"/>
			</g>
			<g>
				<path style="fill:#A3CAF7;" d="M583.144,154.901c-1.314-6.025-7.996-24.536-15.445-22.674
					c-6.397,1.599-4.553,25.498-3.905,32.213c0.191,1.982,2.385,3.204,4.097,2.186c0.013-0.007,0.025-0.015,0.038-0.023
					c1.889-1.16,2.38-3.901,4.334-4.947c1.156-0.619,2.547-0.49,3.859-0.496c1.873-0.009,3.818-0.363,5.322-1.479
					C582.949,158.566,583.544,156.731,583.144,154.901z"/>
				<g>
					<g>
						<path style="fill:#FA9778;" d="M613.94,161.579c-1.065-4.949-7.755-6.585-10.365-2.524l-13.703,21.406l-12.336-30.16
							l-0.099-0.25l-6.29,2.162c0,0,0.006,0.053,0.026,0.164c0.276,1.991,3.148,21.813,9.247,42.851
							c0.016,0.055,0.032,0.11,0.048,0.165c2.094,7.207,11.58,8.885,16.03,2.842c0.138-0.187,0.275-0.374,0.412-0.562
							c7.716-10.555,14.387-21.794,17.16-31.849C614.387,164.674,614.282,163.182,613.94,161.579z"/>
						<path style="fill:#FA9778;" d="M572.214,153.315c0,0-5.194-4.296-6.265-8.641c-0.099-0.402,0.305-0.697,0.622-0.448
							l3.206,2.515c0,0-3.082-4.809-2.497-6.545c0.074-0.219,0.358-0.239,0.493-0.042l2.822,4.136c0,0-1.645-5.287-0.841-6.451
							c0.804-1.164,3.3,5.737,3.3,5.737s-0.919-5.783-0.249-6.433s3.129,8.653,3.129,8.653s2.07-2.671,2.935-2.342
							c0.864,0.328-1.112,7.508-2.207,8.311L572.214,153.315z"/>
					</g>
					<g>
						<path style="fill:#051934;" d="M589.776,180.565c0.713,1.071,1.25,2.214,1.743,3.376c0.476,1.169,0.909,2.356,1.164,3.617
							c-0.714-1.07-1.251-2.214-1.743-3.376C590.465,183.013,590.032,181.825,589.776,180.565z"/>
					</g>
				</g>
			</g>
			<g>
				<g>
					<path style="fill:#FA9778;" d="M624.908,152.575l-8.423-0.515c4.912-1.812,7.331-11.547,7.331-11.547l10.397-7.616
						c0,0,0.195,16.706,5.107,18.518l-8.241,1.16H624.908z"/>
					<path style="fill:#FA7C55;" d="M622.438,144.632c0.263,0.029,0.531,0.041,0.799,0.029c4.319-0.251,8.504-4.103,10.926-11.725
						l-0.07,0.047c-2.48,6.455-6.338,9.729-10.307,9.963c-0.228,0.012-0.45,0.006-0.677-0.018
						C622.929,143.453,622.707,144.037,622.438,144.632z"/>
				</g>
				<g>
					<path style="fill:#EB573D;" d="M649.434,195.44l14.246-8.904c-3.45-9.467-9.083-20.248-11.534-24.781
						c-2.51-6.618-14.602-12.617-14.602-12.617c-10.056,5.814-17.442,0-17.442,0s-1.257-1.257-8.485,2.828
						c-2.479,1.401-4.375,3.003-5.812,4.506c-3.023,2.107-15.872,23.149-15.872,23.149l9.323,17.075l8.868-12.485
						c0.113,1.732,0.276,3.288,0.508,4.524c1.414,7.542-0.471,20.113-0.471,20.113l43.525-0.471c0,0-1.398-6.294-2.282-13.003
						C649.423,195.417,649.434,195.44,649.434,195.44z"/>
					<g>
						<g>
							<path style="fill:#051934;" d="M618.374,150.317c1.585,0.789,3.227,1.437,4.898,1.96c1.674,0.505,3.381,0.921,5.117,1.026
								c1.732,0.142,3.471-0.019,5.141-0.478c1.678-0.476,3.165-1.418,4.564-2.508c-1.217,1.279-2.696,2.373-4.414,2.967
								c-1.713,0.579-3.542,0.743-5.338,0.644c-1.794-0.162-3.55-0.581-5.225-1.196
								C621.449,152.105,619.832,151.332,618.374,150.317z"/>
						</g>
						<g>
							<path style="fill:#051934;" d="M649.172,194.864c-0.381-2.292-0.695-4.59-0.999-6.89c-0.305-2.3-0.557-4.606-0.839-6.908
								l-0.706-6.922l-0.599-6.935c0.461,2.279,0.756,4.582,1.079,6.88c0.312,2.299,0.568,4.605,0.85,6.907
								c0.231,2.308,0.491,4.613,0.694,6.924C648.855,190.232,649.048,192.544,649.172,194.864z"/>
						</g>
						<g>
							<path style="fill:#051934;" d="M608.082,184.336c0.958-1.619,2.066-3.121,3.21-4.594c1.159-1.461,2.356-2.893,3.704-4.206
								c-0.957,1.62-2.065,3.122-3.21,4.594C610.625,181.591,609.429,183.022,608.082,184.336z"/>
						</g>
					</g>
				</g>
			</g>
		</g>
		<g>
			<g>
				<path style="fill:#FA9778;" d="M634.12,119.563c-4.239-3.437-8.603-4.265-13.808-2.622c0,0-4.285,1.446-4.896,10.614
					c-0.017,0.261-0.017,0.504-0.027,0.759c-0.289,1.237-0.739,2.458-1.063,3.689c-0.069,0.26-0.13,0.541-0.032,0.791
					c0.078,0.198,0.246,0.345,0.416,0.473c0.289,0.218,0.631,0.404,0.981,0.463c0.05,0.289,0.092,0.588,0.153,0.865
					c0.026,0.138,0.059,0.276,0.092,0.407c0.92,3.773,2.846,6.296,5.363,7.46c0.401,0.184,0.828,0.289,1.262,0.375
					c0.427,0.079,0.867,0.138,1.308,0.112c4.318-0.256,8.505-4.108,10.93-11.725C637.583,122.474,634.12,119.563,634.12,119.563z"/>
				<g>
					<path style="fill:#051934;" d="M618.57,133.023c-0.283,0.802-0.933,1.498-1.781,1.814c-0.27,0.099-0.565,0.158-0.854,0.164
						c-0.033-0.131-0.066-0.269-0.092-0.408c0.276-0.026,0.539-0.085,0.789-0.184c0.361-0.125,0.703-0.329,1.019-0.565
						C617.965,133.601,618.281,133.332,618.57,133.023z"/>
					<g>
						<path style="fill:#051934;" d="M628.075,130.682c-0.06-0.32-0.334-0.605-0.67-0.717c-0.339-0.128-0.731-0.079-1.048,0.071
							c-0.317,0.156-0.58,0.412-0.734,0.712c-0.162,0.295-0.219,0.628-0.192,0.947c0.35-0.534,0.692-0.964,1.156-1.178
							c0.226-0.113,0.469-0.166,0.721-0.148C627.56,130.394,627.833,130.472,628.075,130.682z"/>
						<path style="fill:#051934;" d="M626.719,132.357c0.194-0.062,0.349-0.241,0.404-0.447c0.065-0.208,0.039-0.43-0.03-0.623
							c-0.078-0.188-0.193-0.367-0.381-0.489c-0.178-0.127-0.437-0.154-0.609-0.039c0.176,0.1,0.253,0.231,0.323,0.341
							c0.062,0.117,0.122,0.245,0.169,0.376c0.054,0.128,0.087,0.254,0.116,0.39C626.73,132.003,626.754,132.159,626.719,132.357z"
							/>
					</g>
					<path style="fill:#051934;" d="M617.922,128.761c0,0.721,0.325,1.305,0.727,1.305c0.401,0,0.726-0.584,0.726-1.305
						c0-0.721-0.325-1.305-0.726-1.305C618.248,127.456,617.922,128.041,617.922,128.761z"/>
					<path style="fill:#FA7C55;" d="M619.537,133.332c0,1.413,1.145,2.558,2.558,2.558c1.413,0,2.558-1.145,2.558-2.558
						c0-1.413-1.145-2.558-2.558-2.558C620.682,130.774,619.537,131.919,619.537,133.332z"/>
					<path style="fill:#051934;" d="M617.552,135.141c-0.234,0.036-0.395,0.132-0.573,0.201c-0.167,0.098-0.318,0.16-0.519,0.281
						c0.208,0.135,0.456,0.072,0.653-0.008C617.3,135.503,617.478,135.371,617.552,135.141z"/>
					<path style="fill:#051934;" d="M621.613,127.021c-0.026-0.411-0.205-0.795-0.458-1.122c-0.253-0.332-0.61-0.592-1.012-0.752
						c-0.405-0.145-0.851-0.208-1.261-0.112c-0.413,0.069-0.785,0.266-1.086,0.536c0.413,0.032,0.772,0.019,1.115,0.067
						c0.342,0.031,0.656,0.114,0.953,0.23C620.469,126.089,620.999,126.502,621.613,127.021z"/>
				</g>
			</g>
			<path style="fill:#051934;" d="M615.428,127.219c-0.205-0.574-0.331-2.05-0.367-2.658c-0.135-2.275-0.273-2.78,0.317-4.983
				c0.697-2.603,3.551-5.161,6.197-5.67c0.542-0.104,1.088-0.162,1.619-0.157c3.123,0.031,6.33,0.537,9.013,2.125
				c3.13,1.853,5.185,6.412,4.671,10.013c-0.278,1.948-0.796,3.89-1.145,5.811c-0.418,2.301-0.665,4.69-0.221,6.973
				c0.097,0.497-0.199,0.985-0.683,1.134c-0.752,0.233-1.529,0.457-2.283,0.472c-1.055,0.02-2.157-0.261-2.925-0.984
				c-0.746-0.702-1.091-1.724-1.344-2.716c-0.271-1.059-0.469-2.137-0.592-3.223c0,0,2.631-2.208,0.903-4.408
				c-1.729-2.2-3.85,1.807-3.85,1.807s-1.807-0.393-1.886-6.521c0,0-3.535,1.728-6.049,0.393L615.428,127.219z"/>
		</g>
	</g>
</g>
<g id="DESIGNED_BY_FREEPIK">
	<g id="XMLID_30_">
		<g id="XMLID_230_">
			<g id="XMLID_249_">
				<path id="XMLID_257_" style="fill:#1C1C1B;" d="M385.104,465.465c-0.433,0.443-0.804,0.932-1.108,1.453l-0.465-0.241
					c-0.067-0.297-0.35-0.502-0.659-0.466c-0.331,0.039-0.567,0.339-0.529,0.67c0.039,0.331,0.339,0.567,0.67,0.528
					c0.066-0.007,0.127-0.025,0.184-0.052l0.451,0.234c-0.251,0.554-0.433,1.139-0.539,1.743l0.747,0.132
					c0.229-1.306,0.85-2.507,1.792-3.473L385.104,465.465z"/>
				<path id="XMLID_256_" style="fill:#1C1C1B;" d="M390.591,463.163c-0.171,0-0.341,0.006-0.509,0.017l-0.074-0.626
					c0.188-0.149,0.296-0.389,0.266-0.645c-0.046-0.393-0.402-0.674-0.795-0.628c-0.394,0.046-0.675,0.402-0.628,0.796
					c0.03,0.254,0.19,0.461,0.404,0.563l0.073,0.624c-0.714,0.116-1.402,0.332-2.06,0.645l0.327,0.685
					c0.935-0.447,1.941-0.674,2.995-0.674c0.497,0,0.993,0.053,1.476,0.158l0.16-0.741
					C391.692,463.222,391.142,463.163,390.591,463.163z"/>
				<path id="XMLID_255_" style="fill:#1C1C1B;" d="M397.194,465.71c0.331-0.04,0.566-0.341,0.525-0.672
					c-0.04-0.331-0.341-0.566-0.672-0.525c-0.31,0.038-0.535,0.304-0.53,0.608l-0.416,0.363c-0.418-0.43-0.89-0.813-1.407-1.14
					l-0.404,0.642c1.135,0.715,2.021,1.727,2.564,2.925l0.69-0.313c-0.251-0.554-0.567-1.071-0.942-1.545l0.402-0.351
					C397.065,465.715,397.128,465.719,397.194,465.71z"/>
				<path id="XMLID_254_" style="fill:#1C1C1B;" d="M390.044,473.371c-0.386,0.023-0.775,0.035-1.157,0.035
					c-0.88,0-1.733-0.061-2.478-0.18c-0.391-0.061-0.846-0.154-1.271-0.292c1.047,1.861,3.069,3.125,5.389,3.125
					c2.855,0,5.263-1.916,5.949-4.503c-0.682,0.449-1.505,0.825-2.458,1.122C392.838,473.047,391.463,473.286,390.044,473.371z"/>
				<path id="XMLID_250_" style="fill:#1C1C1B;" d="M390.591,464.68c-3.352,0-6.079,2.666-6.079,5.943
					c0,0.425,0.046,0.849,0.137,1.261c0.674,0.483,2.706,0.891,5.348,0.731c2.88-0.174,5.297-0.958,6.672-2.159
					c-0.005-0.194-0.02-0.39-0.045-0.581C396.244,466.913,393.65,464.68,390.591,464.68z M388.432,471.194
					c-1.02,0-1.85-0.83-1.85-1.85c0-1.021,0.83-1.85,1.85-1.85c1.02,0,1.85,0.83,1.85,1.85
					C390.282,470.364,389.452,471.194,388.432,471.194z M393.169,470.286c-0.75,0-1.36-0.61-1.36-1.36s0.61-1.36,1.36-1.36
					s1.36,0.61,1.36,1.36S393.919,470.286,393.169,470.286z"/>
			</g>
			<path id="XMLID_247_" style="fill:#1C1C1B;" d="M406.595,466.547c-0.295-0.116-0.806-0.31-1.383-0.238
				c-0.551,0.069-0.844,0.341-0.844,1.007v0.866h2.229v1.717h-2.229v5.455h-1.932v-5.455h-1.339v-1.717h1.339v-0.889
				c0-1.68,0.896-2.782,2.568-2.782c0.643,0,1.157,0.121,1.59,0.308V466.547z"/>
			<path id="XMLID_245_" style="fill:#1C1C1B;" d="M411.297,469.878c-0.177-0.029-0.357-0.046-0.525-0.046
				c-0.896,0-1.51,0.548-1.51,1.613v3.908h-1.933v-7.172h1.873v0.784c0.451-0.673,1.14-0.977,2.02-0.977
				c0.414,0,0.848,0.128,1.095,0.337L411.297,469.878z"/>
			<path id="XMLID_242_" style="fill:#1C1C1B;" d="M418.965,471.757c0,0.222-0.016,0.488-0.037,0.651h-5.085
				c0.207,1.036,0.933,1.487,1.843,1.487c0.622,0,1.295-0.252,1.813-0.689l1.133,1.243c-0.815,0.748-1.851,1.089-3.057,1.089
				c-2.198,0-3.724-1.496-3.724-3.753c0-2.258,1.48-3.797,3.627-3.797C417.543,467.989,418.958,469.522,418.965,471.757z
				 M413.851,471.091h3.175c-0.178-0.918-0.732-1.436-1.561-1.436C414.554,469.654,414.021,470.202,413.851,471.091z"/>
			<path id="XMLID_239_" style="fill:#1C1C1B;" d="M426.619,471.757c0,0.222-0.016,0.488-0.037,0.651h-5.085
				c0.207,1.036,0.933,1.487,1.843,1.487c0.622,0,1.296-0.252,1.814-0.689l1.133,1.243c-0.814,0.748-1.851,1.089-3.058,1.089
				c-2.198,0-3.723-1.496-3.723-3.753c0-2.258,1.48-3.797,3.627-3.797C425.197,467.989,426.611,469.522,426.619,471.757z
				 M421.504,471.091h3.175c-0.178-0.918-0.733-1.436-1.561-1.436C422.208,469.654,421.674,470.202,421.504,471.091z"/>
			<path id="XMLID_236_" style="fill:#1C1C1B;" d="M434.964,471.764c0,2.154-1.495,3.775-3.472,3.775
				c-0.962,0-1.643-0.378-2.109-0.933v3.708h-1.925v-10.133h1.888v0.792c0.467-0.585,1.154-0.984,2.139-0.984
				C433.469,467.989,434.964,469.61,434.964,471.764z M429.287,471.764c0,1.133,0.748,1.977,1.844,1.977
				c1.14,0,1.85-0.881,1.85-1.977c0-1.095-0.71-1.976-1.85-1.976C430.035,469.788,429.287,470.632,429.287,471.764z"/>
			<path id="XMLID_233_" style="fill:#1C1C1B;" d="M438.068,465.835c0,0.696-0.541,1.23-1.236,1.23c-0.696,0-1.228-0.533-1.228-1.23
				c0-0.695,0.532-1.243,1.228-1.243C437.527,464.592,438.068,465.14,438.068,465.835z M437.808,475.353h-1.932v-7.172h1.932
				V475.353z"/>
			<path id="XMLID_231_" style="fill:#1C1C1B;" d="M441.032,470.735l2.702-2.554h2.368l-3.478,3.375l3.501,3.797h-2.376
				l-2.717-2.901v2.901H439.1v-10.658h1.932V470.735z"/>
		</g>
		<g id="XMLID_202_">
			<path id="XMLID_227_" style="fill:#1C1C1B;" d="M309.412,475.289v-1.055c-0.527,0.718-1.391,1.23-2.387,1.23
				c-1.846,0-3.149-1.406-3.149-3.706c0-2.256,1.289-3.721,3.149-3.721c0.952,0,1.816,0.469,2.387,1.245v-3.765h1.099v9.771H309.412
				z M309.412,473.37v-3.208c-0.395-0.615-1.245-1.143-2.124-1.143c-1.42,0-2.27,1.172-2.27,2.739c0,1.567,0.85,2.725,2.27,2.725
				C308.167,474.483,309.017,473.985,309.412,473.37z"/>
			<path id="XMLID_224_" style="fill:#1C1C1B;" d="M311.932,471.744c0-2.051,1.465-3.706,3.486-3.706
				c2.139,0,3.398,1.67,3.398,3.794v0.278h-5.727c0.088,1.333,1.025,2.446,2.549,2.446c0.806,0,1.626-0.322,2.182-0.894l0.527,0.718
				c-0.703,0.703-1.655,1.084-2.812,1.084C313.44,475.465,311.932,473.956,311.932,471.744z M315.403,468.946
				c-1.509,0-2.256,1.274-2.314,2.358h4.644C317.718,470.25,317.015,468.946,315.403,468.946z"/>
			<path id="XMLID_222_" style="fill:#1C1C1B;" d="M319.607,474.352l0.571-0.791c0.469,0.542,1.362,1.011,2.329,1.011
				c1.084,0,1.67-0.513,1.67-1.216c0-1.714-4.38-0.659-4.38-3.281c0-1.099,0.952-2.036,2.636-2.036c1.202,0,2.051,0.454,2.623,1.025
				l-0.513,0.762c-0.424-0.513-1.201-0.893-2.109-0.893c-0.966,0-1.567,0.483-1.567,1.113c0,1.553,4.379,0.527,4.379,3.281
				c0,1.186-0.952,2.139-2.783,2.139C321.306,475.465,320.325,475.113,319.607,474.352z"/>
			<path id="XMLID_219_" style="fill:#1C1C1B;" d="M326.477,466.471c0-0.41,0.337-0.747,0.732-0.747c0.41,0,0.747,0.337,0.747,0.747
				c0,0.41-0.337,0.732-0.747,0.732C326.814,467.203,326.477,466.881,326.477,466.471z M326.667,475.289v-7.075h1.099v7.075H326.667
				z"/>
			<path id="XMLID_216_" style="fill:#1C1C1B;" d="M329.582,477.105l0.556-0.82c0.586,0.703,1.289,0.967,2.3,0.967
				c1.172,0,2.271-0.571,2.271-2.124v-1.011c-0.513,0.718-1.377,1.26-2.373,1.26c-1.846,0-3.149-1.377-3.149-3.662
				c0-2.271,1.289-3.677,3.149-3.677c0.952,0,1.802,0.469,2.373,1.245v-1.069h1.099v6.87c0,2.344-1.641,3.076-3.369,3.076
				C331.237,478.16,330.416,477.925,329.582,477.105z M334.708,473.253v-3.091c-0.381-0.615-1.23-1.143-2.109-1.143
				c-1.421,0-2.27,1.128-2.27,2.695c0,1.553,0.849,2.695,2.27,2.695C333.478,474.41,334.328,473.868,334.708,473.253z"/>
			<path id="XMLID_214_" style="fill:#1C1C1B;" d="M342.413,475.289v-4.629c0-1.245-0.63-1.641-1.582-1.641
				c-0.864,0-1.685,0.527-2.094,1.099v5.171h-1.099v-7.075h1.099v1.025c0.497-0.586,1.464-1.201,2.519-1.201
				c1.479,0,2.256,0.747,2.256,2.285v4.966H342.413z"/>
			<path id="XMLID_211_" style="fill:#1C1C1B;" d="M344.932,471.744c0-2.051,1.465-3.706,3.486-3.706
				c2.139,0,3.398,1.67,3.398,3.794v0.278h-5.727c0.088,1.333,1.025,2.446,2.548,2.446c0.806,0,1.626-0.322,2.183-0.894l0.527,0.718
				c-0.703,0.703-1.655,1.084-2.813,1.084C346.441,475.465,344.932,473.956,344.932,471.744z M348.404,468.946
				c-1.509,0-2.256,1.274-2.314,2.358h4.643C350.718,470.25,350.015,468.946,348.404,468.946z"/>
			<path id="XMLID_208_" style="fill:#1C1C1B;" d="M358.35,475.289v-1.055c-0.527,0.718-1.392,1.23-2.388,1.23
				c-1.845,0-3.149-1.406-3.149-3.706c0-2.256,1.289-3.721,3.149-3.721c0.952,0,1.817,0.469,2.388,1.245v-3.765h1.098v9.771H358.35z
				 M358.35,473.37v-3.208c-0.396-0.615-1.245-1.143-2.124-1.143c-1.421,0-2.27,1.172-2.27,2.739c0,1.567,0.85,2.725,2.27,2.725
				C357.105,474.483,357.954,473.985,358.35,473.37z"/>
			<path id="XMLID_205_" style="fill:#1C1C1B;" d="M364.692,475.289v-9.771h1.099v3.765c0.571-0.776,1.421-1.245,2.388-1.245
				c1.845,0,3.149,1.465,3.149,3.721c0,2.3-1.304,3.706-3.149,3.706c-0.996,0-1.86-0.513-2.388-1.23v1.055H364.692z M367.9,474.483
				c1.436,0,2.285-1.157,2.285-2.725c0-1.567-0.85-2.739-2.285-2.739c-0.864,0-1.728,0.527-2.109,1.143v3.208
				C366.171,473.985,367.036,474.483,367.9,474.483z"/>
			<path id="XMLID_203_" style="fill:#1C1C1B;" d="M372.528,477.061c0.161,0.073,0.425,0.117,0.6,0.117
				c0.483,0,0.806-0.161,1.055-0.747l0.469-1.069l-2.959-7.148h1.186l2.358,5.801l2.344-5.801h1.2l-3.544,8.511
				c-0.425,1.024-1.143,1.421-2.08,1.436c-0.234,0-0.6-0.044-0.806-0.103L372.528,477.061z"/>
		</g>
	</g>
</g>
</svg>
