<?xml version="1.0" encoding="utf-8"?>
<!-- Generator: Adobe Illustrator 27.5.0, SVG Export Plug-In . SVG Version: 6.00 Build 0)  -->
<svg version="1.1" xmlns="http://www.w3.org/2000/svg" xmlns:xlink="http://www.w3.org/1999/xlink" x="0px" y="0px"
	 viewBox="0 0 750 500" style="enable-background:new 0 0 750 500;" xml:space="preserve">
<g id="BACKGROUND">
	<g>
		<g>
			<rect style="fill:#FFFFFF;" width="750" height="500"/>
			<rect y="347.667" style="fill:#EDF9FF;" width="750" height="152.333"/>
		</g>
		<g>
			<rect x="396.162" y="131.667" style="fill:#EDF9FF;" width="40.751" height="14.645"/>
			<rect x="413.672" y="146.312" style="fill:#EDF9FF;" width="40.751" height="14.645"/>
			<rect x="34.672" y="81.312" style="fill:#EDF9FF;" width="40.751" height="14.645"/>
			<rect x="676.323" y="88.052" style="fill:#EDF9FF;" width="40.751" height="14.645"/>
			<rect x="345.383" y="221.287" style="fill:#EDF9FF;" width="40.751" height="14.645"/>
		</g>
	</g>
	<g>
		<g>
			<rect x="450.5" y="43.646" style="fill:#EDF9FF;" width="219" height="5.333"/>
			<polygon style="fill:#DEDEDE;" points="676.255,45.509 443.745,45.509 451.144,32.56 668.856,32.56 			"/>
			<g>
				<rect x="477.5" y="-0.021" style="fill:#DEDEDE;" width="3" height="39"/>
				<rect x="639.5" y="-0.021" style="fill:#DEDEDE;" width="3" height="39"/>
			</g>
		</g>
		<g>
			<rect x="80.5" y="43.646" style="fill:#EDF9FF;" width="219" height="5.333"/>
			<polygon style="fill:#DEDEDE;" points="306.255,45.509 73.745,45.509 81.144,32.56 298.856,32.56 			"/>
			<g>
				<rect x="107.5" y="-0.021" style="fill:#DEDEDE;" width="3" height="39"/>
				<rect x="269.5" y="-0.021" style="fill:#DEDEDE;" width="3" height="39"/>
			</g>
		</g>
	</g>
</g>
<g id="OBJECTS">
	<g>
		<g>
			<polygon style="fill:#EDEDED;" points="708.534,312.931 440.069,312.931 459.136,156.709 689.466,156.709 			"/>
			<rect x="440.057" y="312.92" style="fill:#E0E0E0;" width="268.49" height="34.492"/>
			<rect x="453.001" y="152.675" style="fill:#E0E0E0;" width="242.6" height="8.643"/>
			<g>
				<polygon style="fill:#DEDEDE;" points="688.618,225.854 681.303,165.928 467.299,165.928 459.985,225.854 				"/>
				<path style="fill:#D1D1D1;" d="M464.757,196.503c-0.416,0-0.806-0.041-1.177-0.107l-3.595,29.458h228.633l-3.582-29.351H464.757
					z"/>
			</g>
			<g>
				<polygon style="fill:#DEDEDE;" points="458.579,237.378 450.483,303.711 698.12,303.711 690.024,237.378 				"/>
				<polygon style="fill:#D1D1D1;" points="454.511,270.708 450.483,303.711 698.12,303.711 694.092,270.708 				"/>
			</g>
		</g>
		<g>
			<g>
				<g>
					<rect x="460.911" y="250.446" style="fill:#FFC892;" width="30.832" height="53.358"/>
					<rect x="460.911" y="250.446" style="fill:#184178;" width="10.224" height="53.358"/>
					<rect x="477.006" y="264.504" style="fill:#C2D5DA;" width="14.737" height="23.364"/>
					<rect x="480.301" y="248.449" style="fill:#184178;" width="7.968" height="2.037"/>
				</g>
				<g>
					<rect x="498.718" y="250.446" style="fill:#FFC892;" width="30.832" height="53.358"/>
					<rect x="498.718" y="250.446" style="fill:#184178;" width="10.224" height="53.358"/>
					<rect x="514.813" y="264.504" style="fill:#C2D5DA;" width="14.737" height="23.364"/>
					<rect x="518.108" y="248.449" style="fill:#184178;" width="7.968" height="2.037"/>
				</g>
				<g>
					<rect x="536.525" y="250.446" style="fill:#FFC892;" width="30.832" height="53.358"/>
					<rect x="536.525" y="250.446" style="fill:#184178;" width="10.224" height="53.358"/>
					<rect x="552.62" y="264.504" style="fill:#C2D5DA;" width="14.737" height="23.364"/>
					<rect x="555.915" y="248.449" style="fill:#184178;" width="7.968" height="2.037"/>
				</g>
			</g>
			<g>
				<g>
					<rect x="472.176" y="181.647" style="fill:#184178;" width="30.147" height="44.117"/>
					<polygon style="fill:#184178;" points="502.363,181.64 472.135,181.64 479.115,177.284 495.384,177.284 					"/>
					<rect x="479.023" y="174.325" style="fill:#184178;" width="16.452" height="4.55"/>
					<rect x="478.293" y="171.332" style="fill:#FFFFFF;" width="17.912" height="3.55"/>
					<rect x="472.176" y="193.863" style="fill:#FFFFFF;" width="30.147" height="12.669"/>
				</g>
				<g>
					<rect x="507.972" y="181.647" style="fill:#184178;" width="30.147" height="44.117"/>
					<polygon style="fill:#184178;" points="538.159,181.64 507.931,181.64 514.911,177.284 531.18,177.284 					"/>
					<rect x="514.819" y="174.325" style="fill:#184178;" width="16.452" height="4.55"/>
					<rect x="514.089" y="171.332" style="fill:#FFFFFF;" width="17.912" height="3.55"/>
					<rect x="507.972" y="193.863" style="fill:#FFFFFF;" width="30.147" height="12.669"/>
				</g>
				<g>
					<rect x="543.767" y="181.647" style="fill:#184178;" width="30.147" height="44.117"/>
					<polygon style="fill:#184178;" points="573.955,181.64 543.727,181.64 550.706,177.284 566.975,177.284 					"/>
					<rect x="550.615" y="174.325" style="fill:#184178;" width="16.452" height="4.55"/>
					<rect x="549.885" y="171.332" style="fill:#FFFFFF;" width="17.912" height="3.55"/>
					<rect x="543.767" y="193.863" style="fill:#FFFFFF;" width="30.147" height="12.669"/>
				</g>
			</g>
			<g>
				<g>
					<g>
						<path style="fill:#ED7561;" d="M608.097,292.267c-1.315,3.294-2.341,6.998-1.388,10.34c0.157,0.555-0.265,1.098-0.833,1.098
							h-24.699c-0.579,0-0.989-0.543-0.833-1.098c0.941-3.342-0.084-7.047-1.4-10.34c-1.46-3.644-3.306-7.336-3.173-11.258
							c0.096-2.92,1.267-5.659,2.075-8.458c1.146-3.921,1.798-8.434,1.52-12.573c-0.036-0.507,0.35-0.929,0.857-0.929h26.593
							c0.507,0,0.893,0.422,0.857,0.929c-0.266,4.139,0.386,8.651,1.52,12.573c0.808,2.799,1.979,5.538,2.075,8.458
							C611.403,284.931,609.557,288.623,608.097,292.267z"/>
					</g>
					<g>
						<g>
							<g>
								<rect x="584.351" y="259.049" style="fill:#F4EDE3;" width="0.808" height="3.113"/>
							</g>
							<g>
								<rect x="590.203" y="259.049" style="fill:#F4EDE3;" width="0.796" height="3.113"/>
							</g>
							<g>
								<rect x="596.043" y="259.049" style="fill:#F4EDE3;" width="0.808" height="3.113"/>
							</g>
							<g>
								<rect x="601.883" y="259.049" style="fill:#F4EDE3;" width="0.808" height="3.113"/>
							</g>
						</g>
						<g>
							<g>
								<rect x="584.351" y="300.013" style="fill:#F4EDE3;" width="0.808" height="3.692"/>
							</g>
							<g>
								<rect x="590.203" y="300.013" style="fill:#F4EDE3;" width="0.796" height="3.692"/>
							</g>
							<g>
								<rect x="596.043" y="300.013" style="fill:#F4EDE3;" width="0.808" height="3.692"/>
							</g>
							<g>
								<rect x="601.883" y="300.013" style="fill:#F4EDE3;" width="0.808" height="3.692"/>
							</g>
						</g>
					</g>
					<g>
						<path style="fill:#F4EDE3;" d="M593.521,294.037c-4.408,0-7.994-5.841-7.994-13.021c0-7.18,3.586-13.021,7.994-13.021
							c4.408,0,7.994,5.841,7.994,13.021C601.515,288.196,597.93,294.037,593.521,294.037z M593.521,268.598
							c-4.075,0-7.39,5.57-7.39,12.418s3.316,12.418,7.39,12.418c4.075,0,7.39-5.57,7.39-12.418S597.596,268.598,593.521,268.598z"
							/>
					</g>
				</g>
				<g>
					<g>
						<path style="fill:#ED7561;" d="M648.367,292.267c-1.315,3.294-2.341,6.998-1.388,10.34c0.157,0.555-0.265,1.098-0.833,1.098
							h-24.699c-0.579,0-0.989-0.543-0.833-1.098c0.941-3.342-0.084-7.047-1.4-10.34c-1.46-3.644-3.306-7.336-3.173-11.258
							c0.096-2.92,1.267-5.659,2.075-8.458c1.146-3.921,1.798-8.434,1.52-12.573c-0.036-0.507,0.35-0.929,0.857-0.929h26.594
							c0.507,0,0.893,0.422,0.857,0.929c-0.266,4.139,0.386,8.651,1.52,12.573c0.808,2.799,1.979,5.538,2.075,8.458
							C651.673,284.931,649.827,288.623,648.367,292.267z"/>
					</g>
					<g>
						<g>
							<g>
								<rect x="624.622" y="259.049" style="fill:#F4EDE3;" width="0.808" height="3.113"/>
							</g>
							<g>
								<rect x="630.474" y="259.049" style="fill:#F4EDE3;" width="0.796" height="3.113"/>
							</g>
							<g>
								<rect x="636.313" y="259.049" style="fill:#F4EDE3;" width="0.808" height="3.113"/>
							</g>
							<g>
								<rect x="642.153" y="259.049" style="fill:#F4EDE3;" width="0.808" height="3.113"/>
							</g>
						</g>
						<g>
							<g>
								<rect x="624.622" y="300.013" style="fill:#F4EDE3;" width="0.808" height="3.692"/>
							</g>
							<g>
								<rect x="630.474" y="300.013" style="fill:#F4EDE3;" width="0.796" height="3.692"/>
							</g>
							<g>
								<rect x="636.313" y="300.013" style="fill:#F4EDE3;" width="0.808" height="3.692"/>
							</g>
							<g>
								<rect x="642.153" y="300.013" style="fill:#F4EDE3;" width="0.808" height="3.692"/>
							</g>
						</g>
					</g>
					<g>
						<path style="fill:#F4EDE3;" d="M633.792,294.037c-4.408,0-7.994-5.841-7.994-13.021c0-7.18,3.586-13.021,7.994-13.021
							c4.408,0,7.994,5.841,7.994,13.021C641.785,288.196,638.2,294.037,633.792,294.037z M633.792,268.598
							c-4.075,0-7.39,5.57-7.39,12.418s3.316,12.418,7.39,12.418c4.075,0,7.39-5.57,7.39-12.418S637.866,268.598,633.792,268.598z"
							/>
					</g>
				</g>
				<g>
					<g>
						<path style="fill:#ED7561;" d="M688.638,292.267c-1.315,3.294-2.341,6.998-1.388,10.34c0.157,0.555-0.265,1.098-0.833,1.098
							h-24.699c-0.579,0-0.989-0.543-0.833-1.098c0.941-3.342-0.084-7.047-1.4-10.34c-1.46-3.644-3.306-7.336-3.173-11.258
							c0.096-2.92,1.267-5.659,2.075-8.458c1.146-3.921,1.798-8.434,1.52-12.573c-0.036-0.507,0.35-0.929,0.857-0.929h26.593
							c0.507,0,0.893,0.422,0.857,0.929c-0.266,4.139,0.386,8.651,1.52,12.573c0.808,2.799,1.979,5.538,2.075,8.458
							C691.944,284.931,690.098,288.623,688.638,292.267z"/>
					</g>
					<g>
						<g>
							<g>
								<rect x="664.892" y="259.049" style="fill:#F4EDE3;" width="0.808" height="3.113"/>
							</g>
							<g>
								<rect x="670.744" y="259.049" style="fill:#F4EDE3;" width="0.796" height="3.113"/>
							</g>
							<g>
								<rect x="676.584" y="259.049" style="fill:#F4EDE3;" width="0.808" height="3.113"/>
							</g>
							<g>
								<rect x="682.424" y="259.049" style="fill:#F4EDE3;" width="0.808" height="3.113"/>
							</g>
						</g>
						<g>
							<g>
								<rect x="664.892" y="300.013" style="fill:#F4EDE3;" width="0.808" height="3.692"/>
							</g>
							<g>
								<rect x="670.744" y="300.013" style="fill:#F4EDE3;" width="0.796" height="3.692"/>
							</g>
							<g>
								<rect x="676.584" y="300.013" style="fill:#F4EDE3;" width="0.808" height="3.692"/>
							</g>
							<g>
								<rect x="682.424" y="300.013" style="fill:#F4EDE3;" width="0.808" height="3.692"/>
							</g>
						</g>
					</g>
					<g>
						<path style="fill:#F4EDE3;" d="M674.062,294.037c-4.408,0-7.994-5.841-7.994-13.021c0-7.18,3.586-13.021,7.994-13.021
							s7.994,5.841,7.994,13.021C682.056,288.196,678.47,294.037,674.062,294.037z M674.062,268.598c-4.075,0-7.39,5.57-7.39,12.418
							s3.316,12.418,7.39,12.418c4.075,0,7.39-5.57,7.39-12.418S678.136,268.598,674.062,268.598z"/>
					</g>
				</g>
			</g>
			<g>
				<g>
					<path style="fill:#9E8B49;" d="M672.053,191.64l-0.851-1.963c-1.9-4.381-2.88-9.105-2.88-13.88v-3.727h-8.215v3.727
						c0,4.775-0.98,9.499-2.879,13.88l-0.852,1.964c-0.866,1.998-1.314,4.153-1.315,6.331l-0.013,24.762
						c-0.001,1.169,0.947,2.117,2.115,2.117h14.103c1.169,0,2.116-0.948,2.115-2.117l-0.014-24.762
						C673.367,195.792,672.919,193.638,672.053,191.64z"/>
					<rect x="659.678" y="170.083" style="fill:#F4EDE3;" width="9.073" height="2.632"/>
					<rect x="656.106" y="201.156" style="fill:#F4EDE3;" width="16.218" height="16.077"/>
				</g>
				<g>
					<path style="fill:#9E8B49;" d="M649.932,191.64l-0.851-1.963c-1.899-4.381-2.879-9.105-2.879-13.88v-3.727h-8.215v3.727
						c0,4.775-0.98,9.499-2.879,13.88l-0.852,1.964c-0.866,1.998-1.314,4.153-1.315,6.331l-0.013,24.762
						c-0.001,1.169,0.947,2.117,2.115,2.117h14.103c1.169,0,2.116-0.948,2.115-2.117l-0.013-24.762
						C651.246,195.792,650.798,193.638,649.932,191.64z"/>
					<rect x="637.557" y="170.083" style="fill:#F4EDE3;" width="9.073" height="2.632"/>
					<rect x="633.985" y="201.156" style="fill:#F4EDE3;" width="16.218" height="16.077"/>
				</g>
				<g>
					<path style="fill:#9E8B49;" d="M627.811,191.64l-0.851-1.963c-1.899-4.381-2.88-9.105-2.88-13.88v-3.727h-8.215v3.727
						c0,4.775-0.98,9.499-2.879,13.88l-0.852,1.964c-0.866,1.998-1.314,4.153-1.315,6.331l-0.013,24.762
						c-0.001,1.169,0.947,2.117,2.115,2.117h14.103c1.169,0,2.116-0.948,2.115-2.117l-0.013-24.762
						C629.125,195.792,628.677,193.638,627.811,191.64z"/>
					<rect x="615.436" y="170.083" style="fill:#F4EDE3;" width="9.073" height="2.632"/>
					<rect x="611.864" y="201.156" style="fill:#F4EDE3;" width="16.218" height="16.077"/>
				</g>
				<g>
					<path style="fill:#9E8B49;" d="M605.69,191.64l-0.851-1.963c-1.899-4.381-2.879-9.105-2.879-13.88v-3.727h-8.215v3.727
						c0,4.775-0.98,9.499-2.879,13.88l-0.851,1.964c-0.866,1.998-1.314,4.153-1.315,6.331l-0.013,24.762
						c-0.001,1.169,0.947,2.117,2.115,2.117h14.103c1.169,0,2.116-0.948,2.115-2.117l-0.013-24.762
						C607.004,195.792,606.556,193.638,605.69,191.64z"/>
					<rect x="593.315" y="170.083" style="fill:#F4EDE3;" width="9.073" height="2.632"/>
					<rect x="589.743" y="201.156" style="fill:#F4EDE3;" width="16.218" height="16.077"/>
				</g>
			</g>
		</g>
	</g>
	<g>
		<g>
			<g>
				<g>
					<path style="fill:#EBAF7F;" d="M190.782,413.596l0.384-10.372h-15.775c0.348,1.344,0.683,2.568,0.995,3.652
						c0.971,3.38,0.529,6.927-0.854,10.16c-0.042,0.099-0.077,0.193-0.103,0.282c-0.665,2.306-0.606,3.887-0.368,4.906
						c0.21,0.9,0.985,1.535,1.882,1.535h29.356v-1.706C196.743,419.752,192.737,415.881,190.782,413.596z"/>
					<path style="fill:#9E8B49;" d="M190.995,414.111c0,0,20,7.083,20.25,10h-36.226c-0.588,0-1.075-0.453-1.109-1.04
						c-0.081-1.398-0.103-3.907,0.585-5.627c1-2.5,1.75-3.25,1.75-3.25s3.583,4.417,7.583,2.75
						C187.829,415.278,190.995,414.111,190.995,414.111z"/>
				</g>
				<g>
					<path style="fill:#EBAF7F;" d="M167.166,413.595l0.384-10.372h-15.775c0.348,1.344,0.683,2.567,0.995,3.652
						c0.971,3.38,0.529,6.927-0.854,10.161c-0.042,0.099-0.077,0.193-0.103,0.282c-0.665,2.306-0.606,3.887-0.368,4.906
						c0.21,0.9,0.985,1.535,1.881,1.535h29.356v-1.706C173.126,419.752,169.121,415.88,167.166,413.595z"/>
					<path style="fill:#9E8B49;" d="M167.87,414.111c0,0,20,7.083,20.25,10h-36.226c-0.588,0-1.075-0.453-1.109-1.04
						c-0.081-1.398-0.103-3.907,0.585-5.627c1-2.5,1.75-3.25,1.75-3.25s3.583,4.417,7.583,2.75
						C164.704,415.278,167.87,414.111,167.87,414.111z"/>
				</g>
				<path style="fill:#184178;" d="M145.826,221.557c0,0-4.667,17-5.5,29.833c-0.833,12.833,3.833,77,3.833,77l7.5,81.667h17.333
					l0.667-35.167l5.333,34.833h17l3.667-106.167c0,0,2.5-62.833,1.667-71.833s-2.5-10.5-2.5-10.5L145.826,221.557z"/>
			</g>
			<g>
				<g>
					<g>
						<g>
							<path style="fill:#EBAF7F;" d="M183.418,150.734c-0.123-8.633,10.14-12.354,16.245-5.284
								c2.589,2.998,4.64,8.274,5.838,12.723c4.145,15.402,7.018,27.784,12.28,44.002s13.547,33.424,21.146,49.476
								c-2.758,1.622-5.755,2.73-8.615,4.187c-11.14-15.845-21.119-31.243-29.946-48.594S183.701,170.587,183.418,150.734z"/>
						</g>
						<path style="fill:#EBAF7F;" d="M230.709,248.438c0,0-0.96,2.12-1.025,5.348c-0.065,3.227,2.909,6.66,3.336,9.004
							c0.427,2.344,0.67,4.397,1.378,4.47c0.708,0.073,0.732-1.045,0.399-4.782c0,0,0.277-1.839,0.978-0.163s1.275,5.99,2.467,6.045
							c0.966,0.045-0.446-6.214-0.219-6.555c0.227-0.341,3.063,7.026,4.704,6.832c1.642-0.195-3.5-7.336-2.89-8.083
							c0.61-0.748,3.734,4.805,4.561,4.43c1.811-0.819-4.825-8.443-4.083-8.876c0.742-0.433,3.824,1.785,4.473,0.836
							c0.649-0.949-3.078-2.651-3.572-3.244C240.723,253.105,235.631,245.64,230.709,248.438z"/>
					</g>
					<path style="fill:#E48855;" d="M212.003,182.75l-15.57,9.61c-0.11-1.39-0.21-2.76-0.31-4.11l14.88-9.19
						C211.333,180.28,211.663,181.51,212.003,182.75z"/>
				</g>
				<g>
					<g>
						<g>
							<path style="fill:#EBAF7F;" d="M162.005,148.68c0.747,2.012,1.704,4.483,2.973,6.759c2.856,2.902,6.265,5.301,10.049,5.914
								c0.618,0.1,1.202,0.109,1.766,0.067c2.532-1.03,4.921-3.067,6.843-5.154c2.5-4.245,3.993-10.411,5.117-15.835
								c-2.221-0.427-5.047-0.86-8.353-1.125v-20.325h-14.674v20.496c-2.039,0.214-4.147,0.526-6.301,0.936
								C160.164,143.205,161,145.969,162.005,148.68z"/>
							<path style="fill:#E48855;" d="M180.4,132.877v2.745c-1.035,0.041-2.548-0.054-4.299-0.668
								c-1.73-0.6-3.692-1.703-5.675-3.665c-1.935-1.914-3.495-4.96-4.701-8.284v-1.962c1.165,3.025,2.63,5.756,4.414,7.521
								c1.982,1.962,3.944,3.066,5.675,3.665C177.737,132.904,179.365,132.952,180.4,132.877z"/>
						</g>
						<path style="fill:#F4EDE3;" d="M212.43,178.119c0,0-9-31.75-14.5-35s-17.25-3.75-17.25-3.75s-0.25,8.25-6.25,8.75s-9-9-9-9
							l-12,2.25c-9.25,6-8.25,81.75-8.25,81.75h51l-4-32.5L212.43,178.119z"/>
					</g>
					<g>
						<g>
							<path style="fill:#ED7561;" d="M168.743,163.89h25.5c0,0,3.5,45.5,4.75,61.75s-2.5,92.25-2.5,92.25h-41.75l-0.25-107.5
								C154.493,210.39,169.243,204.64,168.743,163.89z"/>
							<g>
								<path style="fill:#ED7561;" d="M192.743,166.3c-0.005-0.14-0.54-14.096-4.4-22.057c-1.287-2.655-6.126-5.11-7.928-5.307
									l0.016-2.063c0.309,0.033,7.678,2.3,9.712,6.496c4.045,8.345,4.287,22.389,4.308,22.978L192.743,166.3z"/>
							</g>
							<g>
								<path style="fill:#ED7561;" d="M165.805,137.546l-0.078-1.078c-1.505,1.426-1.884,4.004-1.016,5.863
									c4.671,10.004,4.041,22.13,4.033,22.251l1.997,0.115c0.029-0.516,0.671-12.74-4.218-23.212
									C166.266,140.933,165.805,138.31,165.805,137.546z"/>
							</g>
						</g>
						<path style="fill:#FFAA9C;" d="M183.118,202.39c-2.454,0.027-4.883-1.209-6.301-3.237c-0.723-1.001-1.16-2.19-1.354-3.41
							c-0.156-1.24-0.09-2.452-0.142-3.678l-0.147-7.337c-0.043-2.446-0.114-4.891-0.12-7.337c-0.001-0.241,0.198-0.438,0.439-0.439
							l7.625-0.06l7.625,0.058h0.007c0.242,0.002,0.436,0.199,0.434,0.441v0c-0.04,4.891-0.181,9.783-0.266,14.674
							c-0.052,1.226,0.013,2.438-0.143,3.678c-0.194,1.22-0.632,2.409-1.355,3.41C188.001,201.181,185.572,202.417,183.118,202.39z
							 M183.118,202.39c2.456-0.012,4.842-1.284,6.207-3.303c0.691-0.997,1.123-2.17,1.251-3.369
							c0.103-1.193-0.009-2.436-0.007-3.653c-0.085-4.891-0.227-9.783-0.266-14.674l0.441,0.441l-7.625,0.058l-7.625-0.06
							l0.439-0.439c-0.005,2.446-0.077,4.891-0.12,7.337l-0.147,7.337c0.002,1.217-0.11,2.459-0.007,3.653
							c0.128,1.2,0.562,2.372,1.252,3.369C178.276,201.106,180.662,202.378,183.118,202.39z"/>
					</g>
				</g>
				<g>
					<g>
						<g>
							<g>
								<path style="fill:#EBAF7F;" d="M163.213,269.13c-0.97,0.61-2.92-2.65-3.77-2.55c-0.86,0.1,2.21,9.74,0.22,9.77
									c-0.91,0.01-1.57-6.32-2.43-5.88c-0.85,0.45,1.03,9.04-0.56,8.57c-1.58-0.47-1.26-8.36-1.6-8.14
									c-0.34,0.22-1.53,6.53-2.4,6.1c-1.07-0.52,0.11-4.71,0.13-6.52c0.03-1.82-0.96-0.24-0.96-0.24
									c-1.18,3.56-1.64,4.58-2.26,4.23c-0.62-0.35-0.03-2.33,0.51-4.65c0.47-2-0.49-5.49,0.1-8.29
									c-3.85-18.66-6.82-36.51-8.01-55.66c-0.34-5.49-0.55-11.09-0.5-16.72l20.6,1.02c-0.78,5.62-1.5,11.47-2.11,17.97
									c-1.57,16.54-0.88,35.08-0.29,52.44c0.87,1.95,1.25,3.83,1.34,4.15C161.443,265.47,164.183,268.51,163.213,269.13z"/>
							</g>
						</g>
						<path style="fill:#E48855;" d="M162.283,190.17c-0.16,1.13-0.31,2.26-0.46,3.41l-20.13-1c-0.02-1.14-0.02-2.28-0.01-3.43
							L162.283,190.17z"/>
					</g>
					<g>
						<path style="fill:#F4EDE3;" d="M166.868,155.932l-3.545,34.288l-1.04-0.05l-20.6-1.02l-1.86-0.09c-0.33-11,5-44,9.5-46.84
							c4.5-2.83,14.878-2.872,14.878-2.872l-1.042,2.792L166.868,155.932z"/>
						<path style="fill:#D6CBBA;" d="M163.243,189.39c-0.039-2.576,0.031-5.145,0.118-7.712c0.076-2.568,0.229-5.132,0.383-7.695
							c0.178-2.562,0.358-5.123,0.615-7.68l0.389-3.835c0.166-1.276,0.298-2.554,0.495-3.828c0.03,1.289-0.005,2.573-0.005,3.86
							l-0.111,3.853c-0.076,2.568-0.23,5.132-0.385,7.695c-0.179,2.562-0.359,5.123-0.617,7.68
							C163.878,184.285,163.615,186.841,163.243,189.39z"/>
					</g>
				</g>
			</g>
			<g>
				<g>
					<g>
						<path style="fill:#EBAF7F;" d="M190.653,98.372c-1.315-2.596-8.4-4.932-15.369-3.624c-6.976,1.26-12.753,5.975-13.06,8.87
							c-0.115,1.099,0.089,3.623,0.625,6.703c-0.666-0.298-1.582-0.489-2.867-0.433c-4.552,0.198-1.347,16.092,5.327,10.015
							c1.227,3.472,2.827,6.677,4.831,8.662c1.982,1.962,3.945,3.066,5.675,3.665c3.331,1.165,5.784,0.47,5.784,0.47l1.328-0.245
							c0,0,3.202-0.286,6.234-3.433c1.07-1.11,2.119-2.582,2.998-4.517c0.811-1.805,1.233-4.094,1.376-6.581
							C193.991,110.177,191.777,100.599,190.653,98.372z"/>
						<g>
							<g>
								<path style="fill:#E9A770;" d="M178.691,125.567c0,2.357-1.281,5.123-2.875,6.663c-1.73-0.6-3.692-1.703-5.675-3.665
									c-2.126-2.105-3.801-5.579-5.055-9.292c1.437-1.226,3.304-1.969,5.348-1.969
									C174.998,117.303,178.691,121.003,178.691,125.567z"/>
								<path style="fill:#E9A770;" d="M193.535,117.923c-0.143,2.486-0.566,4.775-1.376,6.581
									c-0.879,1.935-1.928,3.406-2.997,4.517c-0.491-1.049-0.763-2.221-0.763-3.454
									C188.398,122.113,190.517,119.143,193.535,117.923z"/>
							</g>
							<g>
								<g>
									<path style="fill:#E48855;" d="M160.084,116.838c-0.305-0.368-0.438-0.85-0.559-1.304
										c-0.102-0.464-0.173-0.966-0.024-1.489c0.124-0.532,0.637-1.002,1.194-1.096c0.552-0.116,1.125,0.047,1.565,0.313
										c0.852,0.568,1.507,1.33,1.84,2.295c0.316,0.963,0.198,1.932,0.048,2.848c-0.109-0.929-0.19-1.868-0.544-2.657
										c-0.354-0.764-1.002-1.457-1.695-1.902c-0.667-0.449-1.626-0.378-1.907,0.372c-0.149,0.364-0.171,0.82-0.148,1.27
										C159.865,115.948,159.917,116.398,160.084,116.838z"/>
									<path style="fill:#E48855;" d="M162.409,118.67c-0.397-0.201-0.708-0.592-0.867-1.021c-0.172-0.431-0.225-0.887-0.2-1.35
										c0.039-0.459,0.192-0.969,0.586-1.317c0.368-0.341,0.97-0.443,1.341-0.163c-0.446-0.005-0.753,0.261-0.954,0.527
										c-0.184,0.279-0.273,0.63-0.295,1.005c-0.032,0.378-0.016,0.775,0.032,1.159
										C162.112,117.894,162.201,118.279,162.409,118.67z"/>
								</g>
								<g>
									<path style="fill:#E48855;" d="M177.455,122.058c0.37,0.128,0.669,0.306,0.999,0.439c0.314,0.168,0.643,0.282,0.979,0.483
										c-0.39,0.077-0.77-0.032-1.122-0.175C177.975,122.627,177.647,122.406,177.455,122.058z"/>
									<path style="fill:#E48855;" d="M176.568,119.138c0.809,0.821,1.629,1.528,2.567,2.041c0.926,0.543,1.956,0.812,3.096,1.024
										c-0.555,0.147-1.155,0.23-1.741,0.131c-0.592-0.065-1.166-0.272-1.687-0.561
										C177.767,121.188,176.922,120.251,176.568,119.138z"/>
								</g>
								<g>
									<path style="fill:#E48855;" d="M183.86,110.261c0.04,1.701,0.257,3.319,0.776,4.882c0.232,0.788,0.539,1.688,0.295,2.624
										c-0.242,0.95-1.068,1.53-1.857,1.788c0.682-0.498,1.243-1.16,1.337-1.899c0.101-0.742-0.171-1.513-0.425-2.312
										C183.459,113.711,183.362,111.894,183.86,110.261z"/>
									<path style="fill:#E48855;" d="M180.594,118.992c0.279-0.169,0.497-0.122,0.671-0.024c0.163,0.116,0.296,0.294,0.258,0.619
										c-0.315,0.082-0.478,0.037-0.626-0.046C180.76,119.441,180.652,119.311,180.594,118.992z"/>
								</g>
								<g>
									<g>
										<ellipse style="fill:#5E2B13;" cx="177.988" cy="113.95" rx="1.32" ry="1.766"/>
									</g>
									<g>
										<path style="fill:#5E2B13;" d="M189.243,113.95c0,0.976-0.591,1.766-1.32,1.766c-0.729,0-1.32-0.791-1.32-1.766
											c0-0.976,0.591-1.766,1.32-1.766C188.652,112.184,189.243,112.975,189.243,113.95z"/>
									</g>
								</g>
								<g>
									<g>
										<path style="fill:#5E2B13;" d="M179.845,108.809c-0.438-0.036-0.978-0.073-1.471-0.051
											c-0.505,0.005-1.009,0.053-1.512,0.127c-0.504,0.072-0.998,0.206-1.49,0.363c-0.495,0.153-0.967,0.375-1.458,0.595
											l-0.022,0.01c-0.173,0.078-0.376,0.001-0.453-0.172c-0.062-0.138-0.025-0.296,0.081-0.393
											c0.425-0.39,0.893-0.753,1.414-1.028c0.509-0.304,1.074-0.498,1.643-0.667c0.571-0.172,1.167-0.251,1.763-0.271
											c0.607-0.004,1.174,0.029,1.815,0.216c0.346,0.101,0.545,0.463,0.444,0.809c-0.088,0.303-0.378,0.494-0.681,0.468
											L179.845,108.809z"/>
										<path style="fill:#5E2B13;" d="M181.009,107.667c0.07,0.261-0.023,0.549-0.221,0.75c-0.196,0.2-0.445,0.309-0.682,0.381
											l-0.018,0.006c-0.184,0.056-0.379-0.047-0.435-0.231c-0.056-0.184,0.047-0.379,0.231-0.435
											c0.042-0.013,0.086-0.017,0.128-0.014c0.182,0.013,0.356,0.001,0.499-0.061c0.071-0.031,0.135-0.075,0.185-0.138
											c0.05-0.059,0.086-0.15,0.098-0.224l0.004-0.023c0.009-0.059,0.065-0.099,0.124-0.09
											C180.965,107.595,180.998,107.628,181.009,107.667z"/>
									</g>
									<g>
										<path style="fill:#5E2B13;" d="M186.476,108.809c0.438-0.036,0.978-0.073,1.471-0.051
											c0.505,0.005,1.009,0.053,1.511,0.127c0.504,0.072,0.998,0.206,1.49,0.363c0.495,0.153,0.967,0.375,1.458,0.595
											l0.022,0.01c0.173,0.078,0.376,0.001,0.453-0.172c0.062-0.138,0.025-0.296-0.081-0.393
											c-0.425-0.39-0.893-0.753-1.414-1.028c-0.509-0.304-1.074-0.498-1.643-0.667c-0.571-0.172-1.167-0.251-1.763-0.271
											c-0.607-0.004-1.173,0.029-1.815,0.216c-0.346,0.101-0.545,0.463-0.444,0.809c0.088,0.303,0.378,0.494,0.681,0.468
											L186.476,108.809z"/>
										<path style="fill:#5E2B13;" d="M185.311,107.667c-0.069,0.261,0.023,0.549,0.221,0.75c0.196,0.2,0.445,0.309,0.682,0.381
											l0.018,0.006c0.184,0.056,0.379-0.047,0.435-0.231c0.056-0.184-0.047-0.379-0.231-0.435
											c-0.042-0.013-0.086-0.017-0.128-0.014c-0.182,0.013-0.356,0.001-0.499-0.061c-0.071-0.031-0.135-0.075-0.185-0.138
											c-0.05-0.059-0.086-0.15-0.098-0.224l-0.004-0.023c-0.009-0.059-0.065-0.099-0.124-0.09
											C185.355,107.595,185.322,107.628,185.311,107.667z"/>
									</g>
								</g>
							</g>
						</g>
					</g>
					<g>
						<g>
							<path style="fill:#184178;" d="M195.005,103.11c-0.3-2.613-0.85-5.539-2.192-7.843c-1.115-1.914-3.322-3.267-5.34-4.057
								c-2.58-1.01-5.39-1.29-8.16-1.32c-1.31-0.01-2.62,0.03-3.92,0.2c-7.05,0.89-13.68,6.03-16.72,12.46
								c-1.64,0.81-2.52,2.63-2.95,4.41c-0.67,2.79-0.51,5.78,0.47,8.48c0.8,2.21,2.12,4.21,2.99,6.4c0.86,2.18,1.24,4.76,0.12,6.83
								c0.57,0.2,1.26,0.57,1.83,0.76c0.65,0.22,1.31,0.44,1.98,0.54c0.88,0.13,1.75,0.04,2.61-0.16V121
								c-0.15-0.36-0.28-0.73-0.41-1.1c-6.68,6.08-9.88-9.81-5.33-10.01c0.824-0.038,1.48,0.033,2.031,0.162
								c1.137,2.041,2.1,4.343,3.258,6.34c0.141-1.612,0.903-3.312,1.73-4.702c6.45-1.938,11.514-6.671,15.335-12.216
								c-0.225,3.3-0.971,6.734-1.954,9.892c2.734-3.005,4.357-7,4.494-11.06c3.136,3.281,6.295,6.713,8.255,10.756
								c0.298,2.34,0.483,4.816,0.451,7.188c0.006-0.406,0.46-1.053,0.62-1.432c0.225-0.534,0.442-1.072,0.622-1.622
								c0.345-1.056,0.436-1.95,0.447-3.058C195.296,107.793,195.273,105.442,195.005,103.11z"/>
						</g>
						<path style="opacity:0.5;fill:#184178;" d="M194.633,100.616c-7.369-4.717-17.653-2.606-25.686-1.154
							c-2.89,0.522-5.799,0.494-8.318-0.211c-0.753,1.048-1.414,2.152-1.957,3.299c-0.943,0.466-1.629,1.271-2.128,2.205
							c2.771,0.442,5.307,2.003,7.688,4.365c0.582,0.577,1.491,1.951,2.439,3.151c0.108-0.198,0.218-0.393,0.33-0.581
							c6.45-1.938,11.514-6.671,15.335-12.216c-0.218,3.196-0.93,6.514-1.868,9.59c0.089-0.041,0.177-0.083,0.267-0.123
							c2.513-2.953,4.011-6.759,4.141-10.635c2.417,2.528,4.84,5.149,6.724,8.066c0.895,0.042,1.791,0.156,2.687,0.369
							c0.327,0.078,0.649,0.167,0.966,0.265c-0.032-1.302-0.101-2.602-0.25-3.896C194.912,102.3,194.79,101.459,194.633,100.616z"/>
					</g>
				</g>
				<g>
					<path style="fill:#C2D5DA;" d="M193.839,116.583c0,0-13.417-0.5-20.167,0.25c0,0,2,9.75-1.833,12.75
						c0,0,4.75,4.917,14.25,2.083C195.589,128.833,193.839,116.583,193.839,116.583z"/>
					<g>
						<path style="fill:#C2D5DA;" d="M174.339,117.333c-1.699-1.547-3.562-2.835-5.463-4.063c-1.918-1.201-3.876-2.341-5.999-3.22
							c1.698,1.549,3.561,2.837,5.463,4.063C170.259,115.313,172.217,116.452,174.339,117.333z"/>
						<path style="fill:#C2D5DA;" d="M173.922,129.666c-1.179-0.244-2.206-0.8-3.117-1.469c-0.904-0.686-1.671-1.534-2.325-2.465
							c-0.693-0.908-1.205-1.948-1.747-2.979l-0.723-1.607c-0.221-0.548-0.441-1.099-0.707-1.647
							c0.049,0.599,0.145,1.194,0.238,1.793c0.131,0.588,0.298,1.171,0.469,1.755c0.416,1.141,0.923,2.269,1.659,3.269
							c0.724,0.997,1.616,1.912,2.708,2.53C171.455,129.458,172.714,129.841,173.922,129.666z"/>
					</g>
				</g>
			</g>
		</g>
		<g>
			<g>
				<g>
					<g>
						
							<rect x="259.734" y="217.453" transform="matrix(-1 -1.224647e-16 1.224647e-16 -1 535.5464 450.0287)" style="fill:#BDBBBA;" width="16.077" height="15.122"/>
						
							<rect x="275.016" y="217.453" transform="matrix(-1 -1.224647e-16 1.224647e-16 -1 554.0116 450.0287)" style="fill:#CFCDCB;" width="3.98" height="15.122"/>
					</g>
					<g>
						
							<rect x="252.134" y="207.863" transform="matrix(-1 -1.224647e-16 1.224647e-16 -1 536.422 426.8677)" style="fill:#BDBBBA;" width="32.155" height="11.143"/>
						<rect x="283.094" y="207.863" style="fill:#CFCDCB;" width="3.502" height="11.143"/>
					</g>
				</g>
				<polygon style="fill:#BDBBBA;" points="237.429,253.786 237.429,229.909 267.196,229.909 267.196,253.786 267.196,272.411 
					237.429,272.411 223.74,272.411 223.74,253.786 				"/>
				<polygon style="fill:#CFCDCB;" points="265.604,253.786 265.604,229.909 295.371,229.909 295.371,234.685 295.371,272.411 
					265.604,272.411 251.915,272.411 251.915,253.786 				"/>
			</g>
			<g>
				<g>
					
						<rect x="77.746" y="99.3" transform="matrix(-1 -1.224647e-16 1.224647e-16 -1 159.7107 321.4891)" style="fill:#BDBBBA;" width="4.218" height="122.889"/>
					
						<rect x="77.667" y="99.3" transform="matrix(-1 -1.224647e-16 1.224647e-16 -1 185.1799 226.0593)" style="fill:#F4EDE3;" width="29.847" height="27.459"/>
				</g>
				
					<rect x="80.353" y="209.773" transform="matrix(-1 -1.224647e-16 1.224647e-16 -1 254.3048 482.104)" style="fill:#BDBBBA;" width="93.599" height="62.559"/>
				<g>
					
						<rect x="80.353" y="207.504" transform="matrix(-1 -1.224647e-16 1.224647e-16 -1 258.921 419.028)" style="fill:#DEDEDE;" width="98.215" height="4.019"/>
					
						<rect x="71.757" y="207.504" transform="matrix(-1 -1.224647e-16 1.224647e-16 -1 155.9302 419.028)" style="fill:#BDBBBA;" width="12.416" height="4.019"/>
				</g>
				
					<rect x="77.647" y="209.773" transform="matrix(-1 -1.224647e-16 1.224647e-16 -1 158.9546 482.104)" style="fill:#BDBBBA;" width="3.661" height="62.559"/>
			</g>
			<g>
				<g>
					<rect x="286.776" y="272.331" style="fill:#BDBBBA;" width="124.326" height="11.378"/>
					<rect x="165.503" y="283.709" style="fill:#CFCDCB;" width="228.47" height="140.402"/>
					<rect x="77.333" y="283.709" style="fill:#DEDEDE;" width="228.47" height="140.402"/>
					<rect x="67.191" y="272.331" style="fill:#CFCDCB;" width="248.401" height="11.378"/>
					<g>
						<g>
							<rect x="87.463" y="291.808" style="fill:#CFCDCB;" width="208.21" height="26.949"/>
							<rect x="87.463" y="305.89" style="fill:#B8B7B4;" width="208.21" height="12.866"/>
						</g>
						<g>
							<rect x="87.463" y="328.579" style="fill:#CFCDCB;" width="208.21" height="26.948"/>
							<rect x="87.463" y="342.39" style="fill:#B8B7B4;" width="208.21" height="13.137"/>
						</g>
					</g>
				</g>
				<g>
					<g>
						<g>
							<rect x="175.414" y="345.532" style="fill:#FFC892;" width="24.546" height="9.153"/>
							<g>
								<rect x="174.816" y="344.765" style="fill:#F4EDE3;" width="25.742" height="1.716"/>
								<rect x="174.816" y="353.736" style="fill:#F4EDE3;" width="25.742" height="1.716"/>
							</g>
							<path style="fill:#F4EDE3;" d="M193.986,350.108c0,1.239-2.82,2.243-6.299,2.243c-3.479,0-6.299-1.004-6.299-2.243
								c0-1.239,2.82-2.243,6.299-2.243C191.166,347.866,193.986,348.87,193.986,350.108z"/>
						</g>
						<g>
							<rect x="175.414" y="334.782" style="fill:#FFC892;" width="24.546" height="9.153"/>
							<g>
								<rect x="174.816" y="334.015" style="fill:#F4EDE3;" width="25.742" height="1.716"/>
								<rect x="174.816" y="342.986" style="fill:#F4EDE3;" width="25.742" height="1.716"/>
							</g>
							<path style="fill:#F4EDE3;" d="M193.986,339.358c0,1.239-2.82,2.243-6.299,2.243c-3.479,0-6.299-1.004-6.299-2.243
								c0-1.239,2.82-2.243,6.299-2.243C191.166,337.116,193.986,338.12,193.986,339.358z"/>
						</g>
						<g>
							<rect x="204.414" y="345.532" style="fill:#FFC892;" width="24.546" height="9.153"/>
							<g>
								<rect x="203.816" y="344.765" style="fill:#F4EDE3;" width="25.742" height="1.716"/>
								<rect x="203.816" y="353.736" style="fill:#F4EDE3;" width="25.742" height="1.716"/>
							</g>
							<path style="fill:#F4EDE3;" d="M222.986,350.108c0,1.239-2.82,2.243-6.299,2.243c-3.479,0-6.299-1.004-6.299-2.243
								c0-1.239,2.82-2.243,6.299-2.243C220.166,347.866,222.986,348.87,222.986,350.108z"/>
						</g>
						<g>
							<rect x="204.414" y="334.782" style="fill:#FFC892;" width="24.546" height="9.153"/>
							<g>
								<rect x="203.816" y="334.015" style="fill:#F4EDE3;" width="25.742" height="1.716"/>
								<rect x="203.816" y="342.986" style="fill:#F4EDE3;" width="25.742" height="1.716"/>
							</g>
							<path style="fill:#F4EDE3;" d="M222.986,339.358c0,1.239-2.82,2.243-6.299,2.243c-3.479,0-6.299-1.004-6.299-2.243
								c0-1.239,2.82-2.243,6.299-2.243C220.166,337.116,222.986,338.12,222.986,339.358z"/>
						</g>
					</g>
					<g>
						<g>
							<rect x="225.539" y="308.907" style="fill:#FFC892;" width="24.546" height="9.153"/>
							<g>
								<rect x="224.941" y="308.14" style="fill:#F4EDE3;" width="25.742" height="1.716"/>
								<rect x="224.941" y="317.111" style="fill:#F4EDE3;" width="25.742" height="1.716"/>
							</g>
							<path style="fill:#F4EDE3;" d="M244.111,313.483c0,1.239-2.82,2.243-6.299,2.243c-3.479,0-6.299-1.004-6.299-2.243
								c0-1.239,2.82-2.243,6.299-2.243C241.291,311.241,244.111,312.245,244.111,313.483z"/>
						</g>
						<g>
							<rect x="225.539" y="298.157" style="fill:#FFC892;" width="24.546" height="9.153"/>
							<g>
								<rect x="224.941" y="297.39" style="fill:#F4EDE3;" width="25.742" height="1.716"/>
								<rect x="224.941" y="306.361" style="fill:#F4EDE3;" width="25.742" height="1.716"/>
							</g>
							<path style="fill:#F4EDE3;" d="M244.111,302.733c0,1.239-2.82,2.243-6.299,2.243c-3.479,0-6.299-1.004-6.299-2.243
								c0-1.239,2.82-2.243,6.299-2.243C241.291,300.491,244.111,301.495,244.111,302.733z"/>
						</g>
						<g>
							<rect x="257.164" y="308.907" style="fill:#FFC892;" width="24.546" height="9.153"/>
							<g>
								<rect x="256.566" y="308.14" style="fill:#F4EDE3;" width="25.742" height="1.716"/>
								<rect x="256.566" y="317.111" style="fill:#F4EDE3;" width="25.742" height="1.716"/>
							</g>
							<path style="fill:#F4EDE3;" d="M275.736,313.483c0,1.239-2.82,2.243-6.299,2.243c-3.479,0-6.299-1.004-6.299-2.243
								c0-1.239,2.82-2.243,6.299-2.243C272.916,311.241,275.736,312.245,275.736,313.483z"/>
						</g>
						<g>
							<rect x="257.164" y="298.157" style="fill:#FFC892;" width="24.546" height="9.153"/>
							<g>
								<rect x="256.566" y="297.39" style="fill:#F4EDE3;" width="25.742" height="1.716"/>
								<rect x="256.566" y="306.361" style="fill:#F4EDE3;" width="25.742" height="1.716"/>
							</g>
							<path style="fill:#F4EDE3;" d="M275.736,302.733c0,1.239-2.82,2.243-6.299,2.243c-3.479,0-6.299-1.004-6.299-2.243
								c0-1.239,2.82-2.243,6.299-2.243C272.916,300.491,275.736,301.495,275.736,302.733z"/>
						</g>
					</g>
					<g>
						<g>
							<rect x="93.805" y="297.89" style="fill:#ED7561;" width="17.907" height="20.71"/>
							<rect x="99.325" y="304.274" style="fill:#F4EDE3;" width="6.867" height="7.941"/>
						</g>
						<g>
							<rect x="115.43" y="297.89" style="fill:#ED7561;" width="17.907" height="20.71"/>
							<rect x="120.95" y="304.274" style="fill:#F4EDE3;" width="6.867" height="7.941"/>
						</g>
						<g>
							<rect x="137.055" y="297.89" style="fill:#ED7561;" width="17.907" height="20.71"/>
							<rect x="142.575" y="304.274" style="fill:#F4EDE3;" width="6.867" height="7.941"/>
						</g>
					</g>
					<g>
						<g>
							<rect x="159.556" y="297.89" style="fill:#9E8B49;" width="17.907" height="20.71"/>
							<rect x="165.076" y="304.274" style="fill:#F4EDE3;" width="6.867" height="7.941"/>
						</g>
						<g>
							<rect x="181.181" y="297.89" style="fill:#9E8B49;" width="17.907" height="20.71"/>
							<rect x="186.701" y="304.274" style="fill:#F4EDE3;" width="6.867" height="7.941"/>
						</g>
						<g>
							<rect x="202.806" y="297.89" style="fill:#9E8B49;" width="17.907" height="20.71"/>
							<rect x="208.326" y="304.274" style="fill:#F4EDE3;" width="6.867" height="7.941"/>
						</g>
					</g>
					<g>
						<g>
							<g>
								<rect x="94.972" y="340.85" style="fill:#FFC892;" width="35.667" height="14.5"/>
								<rect x="96.472" y="337.267" style="fill:#FFC892;" width="32.667" height="4.724"/>
							</g>
							<rect x="94.972" y="335.517" style="fill:#184178;" width="35.667" height="2.583"/>
							<ellipse style="fill:#184178;" cx="112.68" cy="347.203" rx="12.062" ry="2.438"/>
						</g>
						<g>
							<g>
								<rect x="134.472" y="340.85" style="fill:#FFC892;" width="35.667" height="14.5"/>
								<rect x="135.972" y="337.267" style="fill:#FFC892;" width="32.667" height="4.724"/>
							</g>
							<rect x="134.472" y="335.517" style="fill:#184178;" width="35.667" height="2.583"/>
							<ellipse style="fill:#184178;" cx="152.18" cy="347.203" rx="12.062" ry="2.438"/>
						</g>
					</g>
					<g>
						<g>
							<path style="fill:#ED7561;" d="M248.195,346.732c-0.184-1.012-0.572-1.974-0.846-2.966c-0.585-2.112-0.836-4.524-0.373-6.666
								h-5.36h-0.087h-5.36c0.463,2.142,0.211,4.554-0.374,6.666c-0.274,0.991-0.662,1.954-0.846,2.966
								c-0.674,3.698,1.851,7.7,5.479,8.684h0.071h2.145h0.071C246.344,354.432,248.869,350.43,248.195,346.732z"/>
							<rect x="235.251" y="335.557" style="fill:#F4EDE3;" width="12.642" height="1.543"/>
							<rect x="237.309" y="344.414" style="fill:#F4EDE3;" width="8.526" height="3.491"/>
						</g>
						<g>
							<path style="fill:#ED7561;" d="M263.57,346.732c-0.184-1.012-0.572-1.974-0.846-2.966c-0.585-2.112-0.836-4.524-0.374-6.666
								h-5.36h-0.087h-5.36c0.463,2.142,0.211,4.554-0.374,6.666c-0.274,0.991-0.662,1.954-0.846,2.966
								c-0.674,3.698,1.851,7.7,5.479,8.684h0.071h2.145h0.071C261.719,354.432,264.244,350.43,263.57,346.732z"/>
							<rect x="250.626" y="335.557" style="fill:#F4EDE3;" width="12.642" height="1.543"/>
							<rect x="252.684" y="344.414" style="fill:#F4EDE3;" width="8.526" height="3.491"/>
						</g>
						<g>
							<path style="fill:#ED7561;" d="M278.945,346.732c-0.184-1.012-0.572-1.974-0.846-2.966c-0.585-2.112-0.836-4.524-0.374-6.666
								h-5.36h-0.087h-5.36c0.463,2.142,0.211,4.554-0.374,6.666c-0.275,0.991-0.662,1.954-0.846,2.966
								c-0.674,3.698,1.851,7.7,5.479,8.684h0.071h2.145h0.071C277.094,354.432,279.619,350.43,278.945,346.732z"/>
							<rect x="266.001" y="335.557" style="fill:#F4EDE3;" width="12.642" height="1.543"/>
							<rect x="268.059" y="344.414" style="fill:#F4EDE3;" width="8.526" height="3.491"/>
						</g>
						<g>
							<path style="fill:#ED7561;" d="M294.32,346.732c-0.184-1.012-0.572-1.974-0.846-2.966c-0.585-2.112-0.836-4.524-0.374-6.666
								h-5.36h-0.087h-5.36c0.463,2.142,0.211,4.554-0.374,6.666c-0.275,0.991-0.662,1.954-0.846,2.966
								c-0.674,3.698,1.851,7.7,5.479,8.684h0.071h2.145h0.071C292.469,354.432,294.994,350.43,294.32,346.732z"/>
							<rect x="281.376" y="335.557" style="fill:#F4EDE3;" width="12.642" height="1.543"/>
							<rect x="283.434" y="344.414" style="fill:#F4EDE3;" width="8.526" height="3.491"/>
						</g>
					</g>
				</g>
			</g>
		</g>
	</g>
	<g>
		<g>
			<g>
				<g>
					<g>
						<g>
							<path style="fill:#E2974B;" d="M525.673,398.73c-0.803-0.765-3.111-1.573-4.655-2.038c0,0,0,0,0,0
								c-0.14-0.808-0.697-3.813-1.996-8.602c-4.906,1.898-9.897,3.565-15.012,4.893l6.529,10.282
								c-0.536,2.96-2.043,8.322-9.13,15.127l0.861,1.473l25.346-14.811c0.774-0.452,1.122-1.391,0.85-2.275
								C528.158,401.78,527.411,400.385,525.673,398.73z"/>
							<path style="fill:#9E8B49;" d="M509.727,404.15c0,0-13.898,16.032-12.676,18.692l31.506-17.881
								c0.511-0.29,0.711-0.925,0.451-1.452c-0.62-1.256-1.839-3.448-3.286-4.605c-2.104-1.681-3.126-1.963-3.126-1.963
								s-0.936,5.61-5.238,6.135C513.057,403.602,509.727,404.15,509.727,404.15z"/>
						</g>
						<path style="fill:#184178;" d="M428.993,231.89c0,0-0.192,21.108,3.237,27.054c3.429,5.946,24.429,61.279,31.429,71.946
							c7,10.667,41.667,74,41.667,74l20.667-11l-34.667-79.333c0,0,1.667-75-14.333-97.333L428.993,231.89z"/>
					</g>
					<g>
						<g>
							<path style="fill:#E2974B;" d="M458.854,417.089c-1.383-3.234-1.824-6.78-0.854-10.161c0.804-2.799,1.759-6.484,2.72-10.982
								c-6.15-0.206-12.295-0.774-18.437-1.536l1.747,18.731c-1.783,2.173-5.634,6.483-15.944,8.965v1.706h29.356
								c0.896,0,1.671-0.635,1.881-1.535c0.238-1.019,0.297-2.6-0.368-4.906C458.931,417.282,458.896,417.188,458.854,417.089z"/>
							<path style="fill:#9E8B49;" d="M443.245,414.111c0,0-20,7.083-20.25,10h36.226c0.588,0,1.075-0.453,1.109-1.04
								c0.081-1.398,0.103-3.907-0.585-5.627c-1-2.5-1.75-3.25-1.75-3.25s-3.583,4.417-7.583,2.75
								C446.412,415.278,443.245,414.111,443.245,414.111z"/>
						</g>
						<g>
							<polygon style="fill:#184178;" points="428.993,231.89 441.66,407.557 462.326,407.557 476.993,267.89 							"/>
							<path style="fill:#5E2B13;" d="M469.493,340.515c0,0-7.375-10.5-9.125-14.75s-23-62.5-23-62.5l19,73.125l11.5,18.281
								L469.493,340.515z"/>
						</g>
					</g>
				</g>
				<g>
					<g>
						<g>
							<g>
								<path style="fill:#E2974B;" d="M351.312,203.78c-6.77,3.745-13.639,7.362-20.287,10.884c1.24,2.95,2.977,5.631,4.397,8.51
									c7.176-2.351,14.167-4.759,21.064-7.326C354.276,212.054,352.657,207.972,351.312,203.78z"/>
							</g>
							<path style="fill:#E2974B;" d="M339.532,217.007c0,0-0.499,2.274-2.378,4.898c-1.879,2.625-6.316,3.595-8.061,5.218
								c-1.745,1.623-3.168,3.122-3.778,2.757c-0.611-0.365,0.038-1.275,2.542-4.071c0,0,0.878-1.639-0.686-0.716
								c-1.565,0.923-4.605,4.036-5.594,3.367c-0.8-0.542,4.075-4.712,4.097-5.121c0.022-0.409-6.658,3.797-7.857,2.659
								c-1.199-1.138,7.193-3.784,7.152-4.748c-0.042-0.964-5.866,1.616-6.305,0.821c-0.961-1.74,8.918-3.878,8.583-4.669
								c-0.335-0.791-4.132-0.858-4.084-2.006c0.047-1.149,4.052-0.282,4.803-0.462C328.716,214.756,337.262,211.82,339.532,217.007
								z"/>
						</g>
						<path style="fill:#9E8B49;" d="M430.618,147.39l-92.625,61.25l7.669,14.119c0,0,61.081-17.119,75.581-37.869l-0.75-26.5
							L430.618,147.39z"/>
					</g>
					<g>
						<g>
							<path style="fill:#E2974B;" d="M425.398,154.738c6.228,3.794,14.385-1.824,21.084-8.031c-0.363,0.018-0.738,0.03-1.091,0.052
								l-2.902-19.313l-14.511,2.181l2.992,19.911C428.347,150.704,426.763,152.467,425.398,154.738z"/>
							<path style="fill:#C96A35;" d="M430.043,143.367l0.408,2.715c1.03-0.113,2.511-0.433,4.152-1.299
								c1.622-0.85,3.398-2.233,5.067-4.468c1.629-2.181,2.719-5.424,3.417-8.891l-0.292-1.94c-0.702,3.164-1.745,6.083-3.248,8.093
								c-1.669,2.235-3.445,3.618-5.067,4.468C432.681,142.998,431.078,143.287,430.043,143.367z"/>
						</g>
						<g>
							<path style="fill:#9E8B49;" d="M426.93,152.702c0,0-1.42,1.701,1.214,1.939c1.311,0.118,2.619-0.257,3.729-0.963l13.12-8.351
								c0,0,9.333-0.104,13.833,6.396s20.667,68.167,20.667,68.167s-30.833,15.667-51.667,15.667l-10.333-48.833
								c0,0-5.813-20.771,1.062-29.521s12.063-9.813,12.063-9.813l0.354,2.042L426.93,152.702z"/>
							<path style="fill:#D9C271;" d="M418.183,186.731c-1.055-1.624-1.834-3.44-2.351-5.322c-0.532-1.881-0.814-3.823-0.961-5.762
								c-0.259-3.889,0.032-7.756,0.599-11.577c0.223,3.865,0.116,7.707,0.398,11.506
								C416.122,179.376,416.769,183.126,418.183,186.731z"/>
						</g>
					</g>
					<g>
						<path style="fill:#E2974B;" d="M425.447,238.98c-2.344-3.79-4.775-7.532-7.009-11.365
							c-5.996,5.061-12.137,10.006-18.098,14.819c-2.034,0.627-3.687,1.558-3.993,1.697c-0.703,0.32-4.8,0.236-4.626,1.372
							c0.173,1.136,3.912,0.475,4.393,1.188c0.48,0.712-8.807,4.701-7.531,6.225c0.583,0.696,5.806-2.95,6.032-2.012
							c0.225,0.938-7.506,5.141-6.111,6.028c1.395,0.888,7.147-4.519,7.203-4.113c0.056,0.405-3.931,5.431-3.042,5.81
							c1.098,0.468,3.487-3.169,4.846-4.375c1.359-1.206,0.81,0.571,0.81,0.571c-1.922,3.223-2.385,4.241-1.716,4.482
							c0.669,0.241,1.779-1.502,3.181-3.429c1.207-1.659,4.462-3.227,6.201-5.504c0.002-0.001,0.004-0.003,0.007-0.004
							C412.653,246.64,419.106,242.878,425.447,238.98z"/>
						<g>
							<path style="fill:#9E8B49;" d="M436.493,158.64l-1.25,50.5l-32.25,28.25l7.5,13.5c0,0,41-23.75,45.25-30.75
								s4.5-58.25,4.5-58.25L436.493,158.64z"/>
							<path style="fill:#5E2B13;" d="M459.993,174.223c0,0-0.833,37.167-3.833,45.167c0,0-9.167,10.833-18.833,15.333
								c0,0,19-7,22.333-13.5C462.993,214.723,459.993,174.223,459.993,174.223z"/>
							<g>
								<path style="fill:#D9C271;" d="M424.993,218.39c1.626-1.894,3.374-3.655,5.177-5.355c1.802-1.701,3.663-3.337,5.588-4.903
									l0.031-0.025c0.085-0.069,0.198-0.085,0.295-0.054c1.23,0.409,2.452,0.847,3.66,1.338c-1.292-0.175-2.57-0.404-3.84-0.662
									l0.325-0.079c-1.742,1.767-3.548,3.464-5.412,5.096C428.952,215.379,427.033,216.951,424.993,218.39z"/>
								<path style="fill:#D9C271;" d="M436.493,206.64c-0.039-3.51,0.031-7.014,0.118-10.518c0.075-3.504,0.229-7.005,0.383-10.506
									c0.178-3.499,0.358-6.999,0.615-10.495l0.389-5.243c0.166-1.746,0.298-3.494,0.495-5.238
									c0.03,1.755-0.005,3.508-0.005,5.262l-0.111,5.257c-0.076,3.504-0.23,7.005-0.385,10.505
									c-0.179,3.499-0.359,6.999-0.617,10.494C437.129,199.654,436.866,203.15,436.493,206.64z"/>
							</g>
						</g>
					</g>
				</g>
				<g>
					<g>
						<g>
							<path style="fill:#E2974B;" d="M411.774,130.279c0.147-1.234,0.792-2.415,1.37-3.545c0.358-0.701,0.698-1.456,0.889-2.222
								c-0.416-6.049,0.159-11.971,0.742-13.743c0.915-2.762,7.574-6.126,14.66-5.868c7.086,0.209,13.499,4.013,14.233,6.83
								c0.277,1.07,1.445,5.336-0.631,16.563c-0.698,3.615-1.803,7.023-3.49,9.284c-1.669,2.235-3.445,3.618-5.067,4.468
								c-3.121,1.647-5.65,1.324-5.65,1.324l-1.35-0.045c0,0-3.209,0.193-6.674-2.469c-1.223-0.939-2.479-2.238-3.635-4.021
								c-0.795-1.237-1.417-2.771-1.894-4.477c-0.944,0.129-1.948-0.051-2.761-0.532
								C411.982,131.512,411.701,130.894,411.774,130.279z"/>
							<g>
								<g>
									<g>
										<path style="fill:#C96A35;" d="M437.588,126.014c0.1-0.46,0.085-0.913,0.027-1.37c-0.044-0.448-0.133-0.896-0.335-1.234
											c-0.389-0.7-1.348-0.627-1.941-0.084c-0.619,0.543-1.156,1.325-1.393,2.133c-0.233,0.833-0.173,1.773-0.143,2.708
											c-0.285-0.883-0.546-1.824-0.376-2.823c0.186-1.003,0.721-1.854,1.478-2.542c0.396-0.329,0.937-0.575,1.501-0.542
											c0.565,0.01,1.142,0.399,1.343,0.906c0.225,0.495,0.229,1.002,0.198,1.476
											C437.895,125.109,437.835,125.605,437.588,126.014z"/>
										<path style="fill:#C96A35;" d="M435.562,128.172c0.147-0.418,0.178-0.812,0.179-1.201c-0.009-0.386-0.052-0.781-0.14-1.15
											c-0.078-0.367-0.217-0.701-0.441-0.95c-0.238-0.234-0.581-0.451-1.021-0.38c0.325-0.332,0.936-0.32,1.35-0.038
											c0.442,0.286,0.668,0.767,0.775,1.215c0.093,0.454,0.109,0.912,0.002,1.365
											C436.174,127.481,435.924,127.914,435.562,128.172z"/>
									</g>
									<g>
										<path style="fill:#C96A35;" d="M421.186,133.758c-0.138,0.372-0.429,0.64-0.735,0.866
											c-0.327,0.194-0.687,0.359-1.084,0.34c0.302-0.249,0.61-0.411,0.896-0.623C420.57,134.16,420.84,133.94,421.186,133.758z"
											/>
										<path style="fill:#C96A35;" d="M421.629,130.738c-0.185,1.154-0.88,2.206-1.818,2.938
											c-0.473,0.363-1.009,0.654-1.585,0.806c-0.565,0.185-1.171,0.192-1.741,0.129c1.096-0.38,2.074-0.799,2.909-1.473
											C420.246,132.491,420.952,131.671,421.629,130.738z"/>
									</g>
									<g>
										<path style="fill:#C96A35;" d="M417.991,131.137c-0.01,0.325-0.098,0.469-0.218,0.589
											c-0.134,0.105-0.288,0.173-0.612,0.139c-0.086-0.316,0.019-0.512,0.163-0.651
											C417.482,131.09,417.69,131.012,417.991,131.137z"/>
									</g>
									<g>
										<g>
											<path style="fill:#5E2B13;" d="M418.149,126.016c0.145,0.965,0.847,1.659,1.568,1.551
												c0.721-0.108,1.188-0.978,1.043-1.943c-0.145-0.965-0.847-1.659-1.568-1.551
												C418.471,124.181,418.004,125.051,418.149,126.016z"/>
										</g>
									</g>
									<g>
										<g>
											<path style="fill:#5E2B13;" d="M416.854,121.012c0.428-0.101,0.956-0.217,1.447-0.269c0.5-0.07,1.005-0.098,1.514-0.099
												c0.509-0.004,1.017,0.055,1.527,0.138c0.513,0.078,1.013,0.227,1.53,0.372l0.023,0.006
												c0.182,0.051,0.372-0.055,0.423-0.238c0.041-0.146-0.02-0.296-0.138-0.377c-0.478-0.323-0.995-0.612-1.551-0.806
												c-0.548-0.225-1.136-0.333-1.724-0.416c-0.59-0.085-1.191-0.075-1.784-0.006c-0.601,0.086-1.156,0.203-1.763,0.483
												c-0.327,0.151-0.47,0.539-0.319,0.867c0.133,0.287,0.447,0.432,0.743,0.362L416.854,121.012z"/>
											<path style="fill:#5E2B13;" d="M415.533,120.055c-0.03,0.268,0.104,0.54,0.33,0.709c0.224,0.168,0.486,0.239,0.731,0.276
												l0.019,0.003c0.19,0.028,0.367-0.103,0.396-0.293c0.028-0.19-0.103-0.367-0.293-0.396
												c-0.044-0.007-0.088-0.004-0.129,0.005c-0.178,0.04-0.352,0.054-0.502,0.014c-0.075-0.02-0.144-0.054-0.203-0.109
												c-0.058-0.051-0.108-0.136-0.13-0.207l-0.007-0.023c-0.018-0.057-0.079-0.088-0.136-0.07
												C415.566,119.978,415.538,120.014,415.533,120.055z"/>
										</g>
									</g>
								</g>
								<path style="fill:#E2A363;" d="M422.856,135.711c0.496,3.302,3.575,5.577,6.878,5.08c3.302-0.496,5.577-3.575,5.08-6.878
									c-0.496-3.302-3.575-5.577-6.877-5.08C424.635,129.33,422.36,132.409,422.856,135.711z"/>
							</g>
						</g>
						<g>
							<path style="fill:#5E2B13;" d="M449.913,122.7c0.92-1.43,1.17-3.27,0.67-4.9c-0.43-1.42-1.4-2.7-1.43-4.18
								c-0.02-1.4,0.82-2.7,0.78-4.1c-0.04-1.4-0.96-2.63-1.99-3.59c-1.24-1.15-2.74-2.09-4.41-2.36c-2.56-0.43-5.43,0.66-7.64-0.69
								c-1.07-0.66-1.77-1.79-2.77-2.56c-2.26-1.74-5.5-1.27-8.21-0.36c-2.71,0.92-5.68,1.69-8.52,1.98
								c-1.93,0.2-3.59,1.9-3.75,3.83c-0.04,0.46,0,0.94-0.07,1.4c-0.28,1.79-2.07,2.85-3.29,4.19c-1.21,1.31-1.93,3.07-1.97,4.85
								c-0.03,1.78,0.65,3.58,1.87,4.87c0.99,1.05,2.29,1.75,3.43,2.62c0.47,0.36,0.92,0.76,1.3,1.22c0.05-0.13,0.09-0.27,0.12-0.41
								c-0.136-1.957-0.166-3.898-0.126-5.691c0.441,0.068,0.913,0.046,1.401,0.044c1.602-0.009,3.2-0.383,4.639-1.087
								c2.521-1.233,4.752-3.156,6.607-5.262c-0.909,1.266-0.773,3.005-0.334,4.5c0.262,0.891,0.648,1.796,1.379,2.368
								c0.374,0.292,0.818,0.481,1.272,0.622c1.144,0.356,2.377,0.421,3.552,0.189c-0.019,0.419-0.079,0.782-0.201,1.184
								c-0.262,0.862-0.752,1.641-1.015,2.503c-0.263,0.862-0.25,1.902,0.38,2.545c0.529-1.318,1.482-2.922,2.513-3.898
								c1.032-0.976,2.681-1.453,3.901-0.726c1.247,0.743,1.592,2.49,1.125,3.864c-0.467,1.375-1.555,2.44-2.673,3.366
								c-0.172,2.557,0.301,5.149,1.97,7.092c1.428,1.663,3.638,2.334,5.799,2.833l0.091,0.605c0.55-0.03,1.1-0.1,1.65-0.19
								c-0.88-0.98-0.89-2.61-0.04-3.6c0.34-0.41,0.8-0.7,1.18-1.08c0.66-0.66,1.07-1.58,1.11-2.52c0.09-1.91-1.26-3.75-0.85-5.61
								C447.693,125.04,449.073,124.01,449.913,122.7z"/>
							<path style="opacity:0.5;fill:#5E2B13;" d="M449.923,109.746c-2.893-2.587-5.869-5.059-9.581-5.972
								c-0.324-0.08-0.647-0.145-0.968-0.199c-0.786,0.022-1.553-0.009-2.277-0.197c-3.665-0.038-7.184,1.212-10.769,2.174
								c-4.498,1.207-9.398,1.928-13.716,1.033c-0.005,0.196-0.009,0.393-0.039,0.585c-0.28,1.79-2.07,2.85-3.29,4.19
								c-0.874,0.946-1.487,2.127-1.778,3.38c1.426,2.134,3.368,4.019,5.991,4.4c0.138,0.02,0.274,0.029,0.41,0.04
								c0.002-0.118-0.002-0.245,0-0.362c0.441,0.068,0.913,0.046,1.401,0.044c0.625-0.003,1.246-0.079,1.86-0.191
								c1.725-0.62,3.364-1.651,4.996-2.392c0.201-0.091,0.407-0.159,0.609-0.245c1.386-1.031,2.654-2.24,3.781-3.52
								c-0.501,0.698-0.678,1.541-0.668,2.407c4.876-1.436,10.004-1.585,15.108-0.926c3.033,0.392,6.25,1.402,9.26,2.929
								c-0.467-1.088-1.076-2.133-1.1-3.303C449.134,112.296,449.875,111.061,449.923,109.746z"/>
						</g>
					</g>
					<g>
						<path style="fill:#C2D5DA;" d="M422.561,127.012c0,0-0.156,6.406,8.06,11.027c0,0-0.604,4.869-4.352,5.783
							c0,0-10.699,0.571-14.881-13.935C411.388,129.888,418.163,128.754,422.561,127.012z"/>
						<g>
							<path style="fill:#C2D5DA;" d="M421.435,127.718c2.889-0.984,5.645-2.21,8.395-3.445l4.093-1.917l4.085-1.978
								c-1.507,0.257-2.977,0.689-4.407,1.201c-1.437,0.5-2.835,1.094-4.218,1.714C426.632,124.566,423.944,125.977,421.435,127.718
								z"/>
							<path style="fill:#C2D5DA;" d="M439.479,127.142c-0.875,1.101-1.74,2.191-2.576,3.294c-0.847,1.095-1.686,2.189-2.562,3.247
								c-0.857,1.074-1.754,2.111-2.702,3.092c-0.961,0.967-1.935,1.932-3.135,2.671c1.376-0.354,2.615-1.152,3.705-2.052
								c1.108-0.897,2.074-1.941,2.968-3.031C436.942,132.166,438.438,129.762,439.479,127.142z"/>
						</g>
					</g>
				</g>
			</g>
			<g>
				<g>
					<g>
						<path style="fill:#9E8B49;" d="M315.895,240.487l-1.525-0.905c-3.403-2.02-6.355-4.717-8.673-7.925l-1.809-2.503l-5.518,3.989
							l1.809,2.503c2.318,3.207,3.954,6.856,4.805,10.721l0.382,1.733c0.388,1.763,1.134,3.427,2.19,4.891l12.014,16.638
							c0.567,0.785,1.664,0.962,2.448,0.395l9.472-6.847c0.785-0.568,0.961-1.664,0.393-2.449L319.852,244.1
							C318.794,242.638,317.447,241.408,315.895,240.487z"/>
						
							<rect x="297.044" y="229.607" transform="matrix(0.8104 -0.5859 0.5859 0.8104 -78.1282 219.9647)" style="fill:#F4EDE3;" width="7.519" height="2.182"/>
						
							<rect x="312.434" y="249.421" transform="matrix(0.8104 -0.5858 0.5858 0.8104 -89.5211 235.5244)" style="fill:#F4EDE3;" width="13.441" height="13.324"/>
					</g>
					<g>
						<g>
							<path style="fill:#ED7561;" d="M347.193,262.457c-2.678,1.213-5.418,2.838-6.767,5.382c-0.225,0.422-0.789,0.504-1.128,0.178
								l-14.759-14.184c-0.346-0.333-0.279-0.893,0.133-1.134c2.482-1.457,3.996-4.259,5.102-6.983
								c1.22-3.016,2.237-6.282,4.569-8.549c1.734-1.689,4.007-2.654,6.098-3.863c2.937-1.685,5.918-4.007,8.129-6.64
								c0.269-0.324,0.743-0.354,1.046-0.063l15.891,15.272c0.303,0.291,0.291,0.765-0.022,1.047
								c-2.535,2.321-4.737,5.391-6.312,8.386c-1.125,2.137-1.998,4.446-3.617,6.246
								C353.382,259.971,350.158,261.117,347.193,262.457z"/>
						</g>
						<g>
							<g>
								<g>
									
										<rect x="350.137" y="229.798" transform="matrix(0.6929 -0.721 0.721 0.6929 -58.0094 324.0672)" style="fill:#F4EDE3;" width="2.58" height="0.67"/>
								</g>
								<g>
									
										<rect x="353.631" y="233.16" transform="matrix(0.6929 -0.721 0.721 0.6929 -59.3626 327.5933)" style="fill:#F4EDE3;" width="2.58" height="0.66"/>
								</g>
								<g>
									
										<rect x="357.124" y="236.512" transform="matrix(0.6929 -0.721 0.721 0.6929 -60.7105 331.1429)" style="fill:#F4EDE3;" width="2.58" height="0.67"/>
								</g>
								<g>
									
										<rect x="360.614" y="239.866" transform="matrix(0.6929 -0.721 0.721 0.6929 -62.0518 334.712)" style="fill:#F4EDE3;" width="2.58" height="0.67"/>
								</g>
							</g>
							<g>
								<g>
									
										<rect x="326.206" y="254.449" transform="matrix(0.6929 -0.721 0.721 0.6929 -83.0612 314.5448)" style="fill:#F4EDE3;" width="3.06" height="0.67"/>
								</g>
								<g>
									
										<rect x="329.7" y="257.811" transform="matrix(0.6929 -0.721 0.721 0.6929 -84.4105 318.0847)" style="fill:#F4EDE3;" width="3.06" height="0.66"/>
								</g>
								<g>
									
										<rect x="333.193" y="261.163" transform="matrix(0.6929 -0.721 0.721 0.6929 -85.7584 321.6343)" style="fill:#F4EDE3;" width="3.06" height="0.67"/>
								</g>
								<g>
									
										<rect x="336.683" y="264.517" transform="matrix(0.6929 -0.721 0.721 0.6929 -87.1021 325.1999)" style="fill:#F4EDE3;" width="3.06" height="0.67"/>
								</g>
							</g>
						</g>
						<g>
							<path style="fill:#F4EDE3;" d="M337.467,255.143c-2.634-2.531-1.423-8.081,2.701-12.371c4.123-4.29,9.62-5.722,12.254-3.19
								c2.634,2.531,1.422,8.081-2.701,12.371C345.598,256.244,340.101,257.675,337.467,255.143z M352.076,239.942
								c-2.435-2.34-7.615-0.915-11.547,3.176c-3.932,4.092-5.15,9.325-2.715,11.664c2.435,2.34,7.615,0.915,11.547-3.176
								C353.293,247.515,354.511,242.282,352.076,239.942z"/>
						</g>
					</g>
					<g>
						
							<rect x="276.432" y="222.614" transform="matrix(0.9368 -0.3498 0.3498 0.9368 -67.3353 116.6305)" style="fill:#FFC892;" width="25.553" height="44.222"/>
						
							<rect x="276.972" y="225.601" transform="matrix(0.9368 -0.3498 0.3498 0.9368 -68.8859 114.021)" style="fill:#184178;" width="8.474" height="44.221"/>
						
							<rect x="289.078" y="231.981" transform="matrix(0.9368 -0.3498 0.3498 0.9368 -65.887 118.5286)" style="fill:#C2D5DA;" width="12.214" height="19.363"/>
						
							<rect x="284.067" y="220.1" transform="matrix(0.9368 -0.3498 0.3498 0.9368 -59.1336 114.4869)" style="fill:#184178;" width="6.603" height="1.688"/>
					</g>
				</g>
				<g>
					<path style="fill:#C2D5DA;" d="M369.235,228.816c-0.432-0.595-1.102-0.937-1.837-0.937l-28.793-0.008
						c-1.437-0.09-2.961-0.544-3.126-1.354c-0.385-1.885-1.497-3.113-3.052-3.37c-1.531-0.254-3.175,0.559-4.001,1.973
						c-1.358,2.324-2.668,2.704-3.16,2.76H313.83c-0.996-0.018-3.117-0.374-3.319-1.363c-0.385-1.885-1.497-3.113-3.052-3.37
						c-1.529-0.254-3.175,0.559-4.001,1.973c-1.692,2.896-3.309,2.774-3.363,2.768l-0.05-0.008h-32.299
						c-0.735,0-1.405,0.341-1.838,0.936c-0.432,0.595-0.55,1.338-0.323,2.038l12.343,37.967c0.737,2.265,2.831,3.787,5.213,3.787
						h68.86c2.382,0,4.477-1.522,5.213-3.787l12.343-37.968C369.784,230.153,369.667,229.411,369.235,228.816z M350.5,229.252
						l-3.101,15.63h-10.561l1.648-15.64c0.024,0.002,0.051,0.004,0.074,0.005L350.5,229.252z M344.687,258.553h-9.289l1.296-12.292
						h10.432L344.687,258.553z M348.531,246.261h14.567l-3.996,12.292h-13.01L348.531,246.261z M272.044,246.261h13.089
						l2.413,12.292H276.04L272.044,246.261z M286.538,246.261h10.303l1.21,12.292h-9.1L286.538,246.261z M286.267,244.882
						l-3.067-15.624h11.968l1.538,15.624H286.267z M323.246,258.553h-9.78l-0.325-12.292h10.564L323.246,258.553z M325.084,246.261
						h10.223l-1.296,12.292h-9.386L325.084,246.261z M312.087,258.553h-12.651l-1.21-12.292h13.535L312.087,258.553z
						 M298.186,259.932l1.112,11.297h-7.859l-2.217-11.297H298.186z M299.572,259.932h12.551l0.299,11.297h-11.739L299.572,259.932z
						 M313.502,259.932h9.692l-0.415,11.118l1.378,0.051l0.417-11.169h9.292l-1.191,11.297h-18.874L313.502,259.932z
						 M335.252,259.932h9.161l-2.241,11.297h-8.111L335.252,259.932z M325.919,229.14c0.939-0.26,2.364-1.044,3.697-3.325
						c0.545-0.932,1.609-1.471,2.586-1.309c0.974,0.161,1.658,0.973,1.926,2.286c0.283,1.388,1.727,1.996,2.993,2.264l-1.668,15.827
						h-10.316l0.583-15.624h0.2V229.14z M324.34,229.258l-0.583,15.624h-10.652l-0.416-15.724c0.558,0.083,0.997,0.098,1.13,0.1
						H324.34z M304.648,225.815c0.545-0.932,1.605-1.473,2.586-1.309c0.974,0.161,1.658,0.973,1.926,2.286
						c0.222,1.088,1.16,1.692,2.14,2.032l0.425,16.058h-13.634l-1.538-15.624h3.411
						C300.397,229.289,302.628,229.271,304.648,225.815z M267.023,229.626c0.17-0.234,0.433-0.368,0.722-0.368h14.05l3.067,15.624
						h-13.267l-4.699-14.455C266.807,230.152,266.853,229.86,267.023,229.626z M279.239,268.394l-2.751-8.462h11.329l2.217,11.297
						h-6.893C281.358,271.228,279.79,270.089,279.239,268.394z M355.903,268.394c-0.551,1.695-2.119,2.834-3.902,2.834h-8.424
						l2.241-11.297h12.835L355.903,268.394z M368.246,230.426l-4.699,14.456h-14.742l3.101-15.63l15.492,0.005
						c0.289,0,0.552,0.134,0.722,0.368C368.289,229.859,368.335,230.151,368.246,230.426z"/>
					<g>
						<g>
							<g>
								<path style="fill:#C2D5DA;" d="M313.044,200.459c-0.092,0-0.186-0.011-0.279-0.035c-0.616-0.154-0.99-0.777-0.837-1.393
									l2.445-9.805c0.154-0.616,0.777-0.991,1.393-0.837c0.616,0.154,0.99,0.777,0.837,1.393l-2.445,9.805
									C314.028,200.11,313.559,200.459,313.044,200.459z"/>
							</g>
							<g>
								<path style="fill:#C2D5DA;" d="M305.777,229.143c-0.055,0-0.111-0.007-0.167-0.021c-0.369-0.092-0.594-0.466-0.502-0.836
									l7.267-29.144c0.092-0.369,0.466-0.595,0.836-0.502c0.369,0.092,0.594,0.466,0.502,0.836l-7.267,29.144
									C306.367,228.934,306.086,229.143,305.777,229.143z"/>
							</g>
						</g>
						<g>
							<g>
								<path style="fill:#C2D5DA;" d="M325.07,200.459c0.092,0,0.186-0.011,0.279-0.035c0.616-0.154,0.99-0.777,0.837-1.393
									l-2.445-9.805c-0.154-0.616-0.777-0.991-1.393-0.837c-0.615,0.154-0.99,0.777-0.837,1.393l2.445,9.805
									C324.086,200.11,324.555,200.459,325.07,200.459z"/>
							</g>
							<g>
								<path style="fill:#C2D5DA;" d="M332.337,229.143c0.055,0,0.111-0.007,0.167-0.021c0.369-0.092,0.594-0.466,0.502-0.836
									l-7.267-29.144c-0.092-0.369-0.466-0.595-0.836-0.502c-0.369,0.092-0.594,0.466-0.502,0.836l7.267,29.144
									C331.747,228.934,332.029,229.143,332.337,229.143z"/>
							</g>
						</g>
					</g>
				</g>
			</g>
		</g>
		<ellipse style="fill:#EDF9FF;" cx="482.667" cy="424" rx="84.667" ry="9"/>
	</g>
	<g>
		<g>
			<g>
				<g>
					<g>
						<g>
							<g>
								<path style="fill:#CE7F49;" d="M623.418,208.406c-4.995,15.325-12.38,31.425-19.191,46.512
									c2.787,1.572,5.803,2.626,8.69,4.031c8.846-13.079,16.912-25.865,24.208-39.623
									C632.401,215.9,627.876,212.145,623.418,208.406z"/>
							</g>
							<path style="fill:#CE7F49;" d="M612.385,251.557c0,0,0.999,2.102,1.122,5.328c0.123,3.226-2.788,6.711-3.173,9.063
								c-0.384,2.352-0.59,4.408-1.297,4.494c-0.706,0.086-0.751-1.031-0.486-4.774c0,0-0.31-1.834-0.981-0.145
								s-1.166,6.012-2.357,6.088c-0.965,0.062,0.333-6.22,0.1-6.557c-0.233-0.337-2.935,7.081-4.58,6.916
								c-1.645-0.165,3.367-7.398,2.743-8.134c-0.624-0.736-3.646,4.871-4.48,4.512c-1.826-0.786,4.671-8.529,3.922-8.949
								c-0.75-0.42-3.791,1.854-4.457,0.917c-0.666-0.937,3.03-2.706,3.513-3.308C602.458,256.405,607.413,248.849,612.385,251.557z
								"/>
						</g>
						<path style="fill:#C4683D;" d="M626.103,238.581c-0.96,1.57-1.94,3.13-2.92,4.69l-10.34-7.67c0.75-1.73,1.5-3.46,2.23-5.2
							L626.103,238.581z"/>
					</g>
					<path style="fill:#FFC892;" d="M636.493,158.611l-23.5,70.25l14.5,10.75c0,0,18-31.5,22-40.25s8.75-35.75,8.75-35.75
						L636.493,158.611z"/>
				</g>
				<path style="fill:#FFC892;" d="M651.111,139.267c0,0-6.243,2.094-9.743,3.844s-9,14.5-9.375,21.875s4.125,94.125,4.125,94.125
					s22.125,7.375,38.875,0l-34.25-101.125L651.111,139.267z"/>
			</g>
			<g>
				<g>
					<g>
						<path style="fill:#CE7F49;" d="M666.108,417.226c-1.383-3.234-1.824-6.78-0.854-10.161c0.366-1.274,0.764-2.74,1.179-4.371
							h-15.879l0.732,10.582c-1.782,2.173-5.633,6.484-15.945,8.966v1.707h29.356c0.896,0,1.671-0.635,1.881-1.535
							c0.238-1.019,0.297-2.6-0.368-4.906C666.185,417.42,666.151,417.325,666.108,417.226z"/>
						<path style="fill:#1F5C4C;" d="M666.41,417.954c0,0,1.095,2.583,0.755,4.653c-0.138,0.839-0.886,1.442-1.736,1.444
							l-30.929,0.061c0,0-1.245-1.754,1.108-2.653c2.353-0.899,8.491-2.373,8.491-2.373s-0.504,5.025,11.976,0.461
							C662.816,417.081,666.41,417.954,666.41,417.954z"/>
					</g>
					<g>
						<path style="fill:#CE7F49;" d="M669.102,417.226c-1.383-3.234-1.824-6.78-0.854-10.16c0.366-1.274,0.764-2.74,1.179-4.372
							h-15.986l0.411,11.092c-1.955,2.285-5.96,6.156-15.517,8.457v1.707h29.356c0.896,0,1.671-0.635,1.881-1.535
							c0.238-1.019,0.297-2.6-0.368-4.906C669.179,417.42,669.144,417.325,669.102,417.226z"/>
						<path style="fill:#1F5C4C;" d="M669.347,417.954c0,0,1.095,2.583,0.755,4.653c-0.138,0.839-0.886,1.442-1.736,1.444
							l-30.929,0.061c0,0-1.245-1.754,1.108-2.653c2.353-0.899,8.491-2.373,8.491-2.373s-0.504,5.025,11.976,0.461
							C665.754,417.081,669.347,417.954,669.347,417.954z"/>
					</g>
				</g>
				<g>
					<path style="fill:#7CC7DA;" d="M677.493,325.611c4,48-9.5,85.75-9.5,85.75h-18.25l-0.02-0.26
						c-0.42-7.11-9.5-158.94-10.4-167.22c-0.19-1.73-0.26-4.13-0.26-6.84c0.01-10.55,1.18-25.93,1.18-25.93l41.75-0.25
						c0,0,4,23.5,4,44.75S677.493,325.611,677.493,325.611z"/>
					<path style="fill:#70BDCF;" d="M653.323,411.361h-3.58l-0.02-0.26c-0.42-7.11-9.5-158.94-10.4-167.22
						c-0.19-1.73-0.26-4.13-0.26-6.84l7.6-3.85L653.323,411.361z"/>
				</g>
			</g>
			<g>
				<g>
					<g>
						<path style="fill:#CE7F49;" d="M639.481,152.699c0.726,1.828,1.308,3.716,1.942,5.573c0.321,0.639,0.681,1.256,1.069,1.855
							c6.223,0.933,11.973-3.672,16.465-7.634c4.086-3.603,7.546-7.703,10.697-12.069c-0.817-0.3-1.674-0.522-2.573-0.632
							c-0.445-0.054-0.867-0.094-1.295-0.138v-20.504h-14.674v21.409c-3.32,1.198-6.193,3.466-8.156,6.46
							c-1.355,2.066-2.593,3.738-3.646,5.301C639.369,152.443,639.429,152.566,639.481,152.699z"/>
						<path style="fill:#C4683D;" d="M651.112,133.044v2.745c1.036,0.041,2.548-0.055,4.299-0.668c1.73-0.6,3.692-1.703,5.675-3.665
							c1.935-1.914,3.495-4.959,4.701-8.284v-1.962c-1.165,3.025-2.63,5.756-4.414,7.521c-1.982,1.962-3.944,3.066-5.675,3.665
							C653.776,133.072,652.148,133.12,651.112,133.044z"/>
					</g>
					<path style="fill:#F4EDE3;" d="M643.483,146.414c3.138-3.428,7.639-5.9,7.639-5.9l-0.012-1.247
						c-9.875,3.125-16.868,18.344-16.868,23.344s6.625,29.25,6.625,29.25l-1.625,20.75c10.75,6.75,46.125,0,46.125,0l-7.5-16.75
						c0,0,0.625-39.75-0.25-46.125s-6.375-10.125-11.75-10.125s-10.125,4.875-10.125,4.875s-11.25,11.625-13,10.25
						c-0.981-0.77-1.698-1.852-1.646-3.313l0,0C641.415,149.566,642.21,147.805,643.483,146.414z"/>
				</g>
				<g>
					<path style="fill:#FFC892;" d="M665.743,136.236l3,2.5c0,0,7.125,2,10.25,7.375s8.75,66.75,8.75,66.75l0.75,47.5
						c0,0-20.25,4.75-34,0.625l-1.25-69.25l-5.125-31.25l9.5-16.5L665.743,136.236z"/>
					<g>
						<g>
							<g>
								<g>
									<path style="fill:#ED7561;" d="M693.443,329.52c0.561-1.102,0.892-2.304,1.352-3.452c0.98-2.445,2.497-4.934,4.5-6.645
										l-5.124-3.906l-0.083-0.063l-5.124-3.906c-1.118,2.384-3.117,4.508-5.214,6.1c-0.985,0.748-2.056,1.385-2.97,2.218
										c-3.339,3.045-3.841,8.71-1.09,12.295l0.068,0.052l2.051,1.563l0.068,0.052
										C686.062,335.532,691.392,333.546,693.443,329.52z"/>
									
										<rect x="687.094" y="313.82" transform="matrix(0.7953 0.6062 -0.6062 0.7953 333.0133 -356.7071)" style="fill:#F4EDE3;" width="15.196" height="1.855"/>
									
										<rect x="682.405" y="322.048" transform="matrix(0.7953 0.6062 -0.6062 0.7953 337.2459 -350.4416)" style="fill:#F4EDE3;" width="10.249" height="4.197"/>
								</g>
								<g>
									<rect x="628.053" y="327.647" style="fill:#FFC892;" width="24.546" height="9.153"/>
									<g>
										<rect x="627.455" y="326.88" style="fill:#F4EDE3;" width="25.742" height="1.716"/>
										<rect x="627.455" y="335.851" style="fill:#F4EDE3;" width="25.742" height="1.716"/>
									</g>
									<ellipse style="fill:#F4EDE3;" cx="640.326" cy="332.223" rx="6.299" ry="2.243"/>
								</g>
								<g>
									<rect x="634.387" y="316.98" style="fill:#FFC892;" width="24.546" height="9.153"/>
									<g>
										<rect x="633.789" y="316.213" style="fill:#F4EDE3;" width="25.742" height="1.716"/>
										<rect x="633.789" y="325.184" style="fill:#F4EDE3;" width="25.742" height="1.716"/>
									</g>
									<path style="fill:#F4EDE3;" d="M652.959,321.557c0,1.239-2.82,2.243-6.299,2.243c-3.479,0-6.299-1.004-6.299-2.243
										s2.82-2.243,6.299-2.243C650.138,319.314,652.959,320.318,652.959,321.557z"/>
								</g>
							</g>
							<path style="fill:#C2D5DA;" d="M714.373,296.389c-0.432-0.595-1.102-0.937-1.837-0.937l-28.793-0.008
								c-1.437-0.09-2.961-0.544-3.126-1.354c-0.385-1.885-1.497-3.113-3.052-3.37c-1.531-0.254-3.175,0.559-4.001,1.973
								c-1.358,2.324-2.668,2.704-3.16,2.76h-11.436c-0.996-0.017-3.117-0.374-3.319-1.363c-0.385-1.885-1.497-3.113-3.052-3.37
								c-1.529-0.254-3.175,0.559-4.001,1.973c-1.692,2.896-3.309,2.774-3.363,2.768l-0.05-0.008h-32.299
								c-0.736,0-1.405,0.341-1.838,0.936c-0.432,0.595-0.55,1.338-0.323,2.038l12.343,37.967c0.736,2.265,2.831,3.787,5.213,3.787
								h68.861c2.382,0,4.477-1.522,5.213-3.787l12.343-37.968C714.923,297.727,714.805,296.985,714.373,296.389z M695.638,296.826
								l-3.101,15.63h-10.561l1.648-15.64c0.024,0.002,0.051,0.004,0.074,0.005L695.638,296.826z M689.825,326.127h-9.289
								l1.296-12.292h10.432L689.825,326.127z M693.669,313.835h14.567l-3.996,12.292h-13.01L693.669,313.835z M617.182,313.835
								h13.089l2.413,12.292h-11.506L617.182,313.835z M631.676,313.835h10.303l1.21,12.292h-9.1L631.676,313.835z M631.406,312.456
								l-3.067-15.624h11.968l1.537,15.624H631.406z M668.384,326.127h-9.78l-0.325-12.292h10.564L668.384,326.127z
								 M670.223,313.835h10.223l-1.296,12.292h-9.386L670.223,313.835z M657.225,326.127h-12.651l-1.21-12.292H656.9
								L657.225,326.127z M643.325,327.506l1.112,11.297h-7.859l-2.217-11.297H643.325z M644.71,327.506h12.551l0.299,11.297
								h-11.739L644.71,327.506z M658.641,327.506h9.692l-0.415,11.118l1.378,0.051l0.417-11.169h9.292l-1.191,11.297h-18.874
								L658.641,327.506z M680.391,327.506h9.161l-2.241,11.297H679.2L680.391,327.506z M671.057,296.714
								c0.939-0.26,2.364-1.044,3.697-3.325c0.545-0.932,1.609-1.471,2.586-1.309c0.974,0.161,1.658,0.972,1.926,2.285
								c0.283,1.388,1.727,1.996,2.993,2.264l-1.668,15.827h-10.316l0.583-15.624h0.2V296.714z M669.478,296.832l-0.583,15.624
								h-10.652l-0.416-15.724c0.558,0.083,0.997,0.098,1.13,0.1H669.478z M649.786,293.389c0.545-0.932,1.605-1.473,2.586-1.309
								c0.974,0.161,1.658,0.972,1.926,2.285c0.222,1.088,1.16,1.692,2.14,2.032l0.425,16.058h-13.634l-1.538-15.624h3.411
								C645.536,296.862,647.767,296.845,649.786,293.389z M612.161,297.2c0.17-0.234,0.433-0.368,0.722-0.368h14.05l3.067,15.624
								h-13.267l-4.699-14.455C611.945,297.726,611.991,297.434,612.161,297.2z M624.377,335.968l-2.751-8.462h11.329l2.217,11.297
								h-6.893C626.496,338.802,624.928,337.663,624.377,335.968z M701.041,335.968c-0.551,1.695-2.119,2.834-3.902,2.834h-8.424
								l2.241-11.297h12.835L701.041,335.968z M713.384,298l-4.699,14.456h-14.742l3.101-15.63l15.492,0.005
								c0.289,0,0.552,0.134,0.722,0.368C713.427,297.433,713.474,297.725,713.384,298z"/>
							<g>
								<g>
									<g>
										<path style="fill:#C2D5DA;" d="M658.183,268.033c-0.092,0-0.185-0.011-0.279-0.035c-0.615-0.153-0.99-0.777-0.837-1.392
											l2.445-9.805c0.154-0.616,0.777-0.991,1.393-0.837c0.616,0.154,0.99,0.777,0.837,1.393l-2.445,9.805
											C659.166,267.684,658.698,268.033,658.183,268.033z"/>
									</g>
									<g>
										<path style="fill:#C2D5DA;" d="M650.915,296.717c-0.055,0-0.111-0.007-0.167-0.021c-0.369-0.092-0.594-0.466-0.502-0.836
											l7.267-29.144c0.092-0.369,0.466-0.595,0.836-0.502c0.369,0.092,0.594,0.466,0.502,0.836l-7.267,29.144
											C651.505,296.508,651.224,296.717,650.915,296.717z"/>
									</g>
								</g>
								<g>
									<g>
										<path style="fill:#C2D5DA;" d="M670.208,268.033c0.092,0,0.186-0.011,0.279-0.035c0.615-0.153,0.99-0.777,0.837-1.392
											l-2.445-9.805c-0.154-0.616-0.777-0.991-1.393-0.837c-0.616,0.154-0.99,0.777-0.837,1.393l2.445,9.805
											C669.225,267.684,669.693,268.033,670.208,268.033z"/>
									</g>
									<g>
										<path style="fill:#C2D5DA;" d="M677.476,296.717c0.055,0,0.111-0.007,0.167-0.021c0.369-0.092,0.594-0.466,0.502-0.836
											l-7.267-29.144c-0.092-0.369-0.466-0.595-0.836-0.502c-0.369,0.092-0.594,0.466-0.502,0.836l7.267,29.144
											C676.886,296.508,677.167,296.717,677.476,296.717z"/>
									</g>
								</g>
							</g>
						</g>
						<g>
							<g>
								<path style="fill:#CE7F49;" d="M675.879,205.628c0.107,0.304,0.212,0.599,0.319,0.906c0.258,0.734,0.507,1.478,0.745,2.222
									c-3.343,13.122-7.933,26.696-12.228,39.587l-3.93,4.716c0,0-3.277,2.469-2.873,4.22c0.404,1.751,3.142-0.045,3.142-0.045
									l-1.347,4.04c1.02,0.752,1.37,2.415,2.613,2.663c0.231,0.046,0.474,0.042,0.691,0.132c0.276,0.115,0.468,0.366,0.707,0.546
									c0.572,0.431,1.361,0.423,2.066,0.293s1.404-0.362,2.119-0.314c0.668,0.045,1.339,0.334,1.988,0.168
									c0.619-0.158,1.059-0.691,1.454-1.193l0.883-1.123c0.423-0.538,0.643-1.197,0.678-1.88c0.152-3.017,0.886-6.038,0.962-9.045
									c0.024-0.046,0.048-0.092,0.073-0.137c3.365-6.275,6.572-12.477,9.628-18.725c3.309-6.784,6.424-13.62,9.329-20.667
									c0.732-1.775,1.091-3.672,1.095-5.579C687.964,206.727,681.935,206.153,675.879,205.628z"/>
								<path style="fill:#C4683D;" d="M685.293,229.071c-0.56,1.2-1.14,2.4-1.72,3.59c-0.07,0.14-0.13,0.27-0.2,0.41l-13.55-0.17
									c0.43-1.33,0.86-2.66,1.29-4L685.293,229.071z"/>
							</g>
							<g>
								<path style="fill:#FFC892;" d="M654.243,156.361l19.5,52.5l-5.5,20l20,0.25c0,0,7-15.75,8-24.25s-11.25-44.5-21.5-59.25
									C674.743,145.611,661.243,139.861,654.243,156.361z"/>
								<g>
									<path style="fill:#FFD8B3;" d="M658.993,168.861c1.351,3.331,2.689,6.666,3.967,10.023
										c1.284,3.355,2.593,6.701,3.824,10.075l3.736,10.107l3.629,10.146c0.03,0.081,0.033,0.169,0.015,0.248
										c-0.766,3.163-1.6,6.309-2.397,9.465c-0.811,3.152-1.652,6.297-2.523,9.435c0.629-3.195,1.288-6.384,1.977-9.565
										c0.703-3.178,1.369-6.364,2.103-9.535l0.014,0.247l-3.746-10.104l-3.639-10.143c-1.227-3.376-2.377-6.78-3.551-10.175
										C661.22,175.695,660.101,172.28,658.993,168.861z"/>
									<path style="fill:#FFD8B3;" d="M665.406,144.558c0.446-1.511,1.795-2.679,3.291-3.215c0.758-0.261,1.566-0.39,2.364-0.325
										c0.793,0.056,1.579,0.291,2.218,0.74c-1.538-0.117-2.925,0.054-4.247,0.527
										C667.707,142.751,666.523,143.495,665.406,144.558z"/>
								</g>
							</g>
						</g>
					</g>
				</g>
			</g>
			<g>
				<g>
					<g>
						<path style="fill:#CE7F49;" d="M634.992,117.387c0.329-1.198,1.142-2.271,1.882-3.302c0.458-0.639,0.907-1.336,1.21-2.065
							c0.488-6.043,1.936-11.815,2.776-13.48c1.315-2.595,8.4-4.932,15.369-3.624c6.976,1.26,12.753,5.975,13.06,8.87
							c0.115,1.099,0.636,5.491-3.085,16.285c-1.227,3.472-2.827,6.677-4.831,8.662c-1.982,1.962-3.944,3.066-5.675,3.665
							c-3.331,1.165-5.784,0.47-5.784,0.47l-1.328-0.245c0,0-3.202-0.286-6.233-3.434c-1.07-1.11-2.119-2.582-2.998-4.517
							c-0.602-1.341-0.989-2.95-1.208-4.708c-0.952-0.013-1.919-0.34-2.652-0.936C635.014,118.637,634.828,117.984,634.992,117.387z
							"/>
						<g>
							<g>
								<g>
									<path style="fill:#C4683D;" d="M661.153,117.006c0.167-0.44,0.219-0.89,0.23-1.35c0.023-0.449,0.001-0.906-0.148-1.27
										c-0.28-0.75-1.24-0.821-1.907-0.372c-0.693,0.445-1.341,1.138-1.695,1.902c-0.354,0.789-0.435,1.728-0.544,2.657
										c-0.15-0.916-0.269-1.885,0.048-2.848c0.333-0.964,0.988-1.726,1.84-2.295c0.44-0.266,1.012-0.43,1.565-0.313
										c0.557,0.094,1.07,0.564,1.194,1.096c0.149,0.523,0.078,1.025-0.024,1.489
										C661.591,116.156,661.458,116.638,661.153,117.006z"/>
									<path style="fill:#C4683D;" d="M658.828,118.838c0.208-0.392,0.297-0.777,0.356-1.161c0.048-0.383,0.064-0.78,0.032-1.158
										c-0.022-0.375-0.111-0.725-0.295-1.005c-0.2-0.266-0.507-0.532-0.953-0.527c0.371-0.28,0.973-0.178,1.341,0.163
										c0.394,0.348,0.547,0.858,0.586,1.317c0.024,0.463-0.028,0.918-0.2,1.35C659.536,118.246,659.225,118.637,658.828,118.838z
										"/>
								</g>
								<g>
									<path style="fill:#C4683D;" d="M643.782,122.226c-0.192,0.347-0.519,0.569-0.856,0.747
										c-0.353,0.143-0.733,0.252-1.122,0.175c0.336-0.202,0.664-0.316,0.979-0.483
										C643.114,122.532,643.413,122.354,643.782,122.226z"/>
									<path style="fill:#C4683D;" d="M644.669,119.305c-0.354,1.113-1.198,2.05-2.235,2.635
										c-0.521,0.289-1.095,0.496-1.687,0.561c-0.586,0.099-1.186,0.016-1.741-0.131c1.14-0.213,2.17-0.481,3.096-1.024
										C643.041,120.834,643.861,120.127,644.669,119.305z"/>
								</g>
								<g>
									<path style="fill:#C4683D;" d="M641.012,119.16c-0.058,0.319-0.166,0.449-0.303,0.549c-0.148,0.084-0.31,0.128-0.626,0.046
										c-0.038-0.326,0.095-0.504,0.258-0.619C640.515,119.037,640.733,118.991,641.012,119.16z"/>
								</g>
								<g>
									<g>
										<path style="fill:#5E2B13;" d="M641.93,114.118c0,0.976,0.591,1.766,1.32,1.766c0.729,0,1.32-0.791,1.32-1.766
											c0-0.975-0.591-1.766-1.32-1.766C642.521,112.352,641.93,113.143,641.93,114.118z"/>
										<path style="fill:#5E2B13;" d="M641.409,112.133c0.043,0.039,0.188,0.148,0.325,0.184
											c0.143,0.048,0.304,0.072,0.465,0.087c0.328,0.023,0.671-0.005,1.012-0.052c0.295-0.041,0.567,0.165,0.608,0.46
											c0.041,0.295-0.165,0.567-0.46,0.608c-0.056,0.008-0.117,0.005-0.169-0.003c-0.392-0.067-0.785-0.156-1.169-0.309
											c-0.192-0.081-0.382-0.174-0.56-0.306c-0.174-0.144-0.346-0.272-0.429-0.585c-0.024-0.091,0.03-0.184,0.12-0.208
											c0.057-0.015,0.115,0.001,0.156,0.037L641.409,112.133z"/>
									</g>
								</g>
								<g>
									<g>
										<path style="fill:#5E2B13;" d="M641.393,108.977c0.438-0.036,0.978-0.073,1.471-0.051
											c0.505,0.005,1.009,0.053,1.511,0.127c0.504,0.072,0.998,0.206,1.49,0.363c0.496,0.153,0.967,0.375,1.458,0.595
											l0.022,0.01c0.173,0.078,0.376,0,0.453-0.172c0.062-0.138,0.025-0.296-0.081-0.393c-0.425-0.39-0.893-0.753-1.414-1.028
											c-0.509-0.303-1.074-0.498-1.643-0.667c-0.571-0.172-1.167-0.251-1.763-0.271c-0.607-0.004-1.174,0.029-1.815,0.216
											c-0.346,0.101-0.545,0.463-0.444,0.809c0.088,0.303,0.378,0.494,0.681,0.468L641.393,108.977z"/>
										<path style="fill:#5E2B13;" d="M640.229,107.835c-0.07,0.261,0.022,0.549,0.22,0.75c0.196,0.2,0.445,0.309,0.682,0.381
											l0.018,0.006c0.184,0.056,0.379-0.047,0.435-0.231c0.056-0.184-0.047-0.379-0.231-0.435
											c-0.042-0.013-0.086-0.017-0.128-0.014c-0.181,0.014-0.356,0.001-0.499-0.061c-0.071-0.031-0.135-0.075-0.185-0.138
											c-0.05-0.059-0.086-0.15-0.098-0.224l-0.004-0.023c-0.009-0.059-0.065-0.099-0.124-0.09
											C640.273,107.763,640.239,107.795,640.229,107.835z"/>
									</g>
								</g>
							</g>
							<path style="fill:#DE894F;" d="M645.144,124.406c0,3.339,2.707,6.046,6.046,6.046c3.339,0,6.046-2.707,6.046-6.046
								c0-3.339-2.707-6.046-6.046-6.046C647.85,118.359,645.144,121.066,645.144,124.406z"/>
						</g>
					</g>
					<g>
						<path style="fill:#F4EDE3;" d="M676.563,127.261c-1.14-1.2-2.01-2.82-2.7-4.31c-2.34-5.09-1.71-9.55-0.77-14.82
							c0.6-3.37,0.15-6.19-2.1-8.86c-3.62-4.32-8.74-7.37-14.26-8.49c-6.23-1.27-15.72-0.58-19.37,5.45
							c-1.54,2.54-1.74,5.96-0.1,8.42c0.74,1.13,1.1,2.36,1.24,3.66c0.146-1.028,0.313-2.018,0.491-2.955
							c1.781,0.804,3.761,1.168,5.709,1.02c2.511-0.19,5.366-1.132,7.256-2.797c-0.878,1.045-1.148,2.469-1.232,3.832
							c-0.097,1.564,0.015,3.168,0.592,4.624c0.578,1.456,1.664,2.756,3.113,3.352c0.213,2.087-0.209,4.069,0.072,6.148
							c0.533-1.543,0.883-3.244,1.417-4.787c0.393-1.138,0.797-2.295,1.512-3.262c0.716-0.968,1.805-1.734,3.009-1.761
							c0.501-0.011,1.017,0.113,1.414,0.419c0.448,0.344,0.705,0.882,0.874,1.421c0.453,1.445,0.367,3.051-0.236,4.44
							c-0.603,1.389-1.719,2.548-3.083,3.204c0.553,2.407,1.851,4.239,3.11,6.364c1.087,1.835,2.174,3.671,3.262,5.506v0.433
							c2.03,0.18,4.07,0.14,6.06-0.26c2.91-0.59,6.14-1.78,8.03-4.07C679.423,129.721,676.913,127.621,676.563,127.261z"/>
						<path style="opacity:0.5;fill:#F4EDE3;" d="M668.95,97.142c-2.443-0.342-4.982-0.194-7.622,0.565
							c-5.665,1.629-10.104,5.724-15.244,8.484c2.127-0.377,4.326-1.248,5.876-2.613c-0.878,1.045-1.148,2.469-1.232,3.832
							c-0.023,0.376-0.033,0.755-0.029,1.133c0.581,0.395,1.105,0.953,1.528,1.711c1.503,2.694,2.046,3.814,5.005,2.283
							c2.543-1.315,4.717-3.221,7.299-4.491c2.694-1.325,5.732-2.425,8.79-2.65c-0.039-2.215-0.716-4.211-2.328-6.124
							C670.361,98.516,669.668,97.816,668.95,97.142z"/>
					</g>
				</g>
				<g>
					<path style="fill:#C2D5DA;" d="M645.796,115.402c0,0-1.009,6.328,6.519,12.002c0,0-1.247,4.745-5.084,5.152
						c0,0-10.679-0.859-12.892-15.793C634.34,116.764,641.205,116.542,645.796,115.402z"/>
					<g>
						<path style="fill:#C2D5DA;" d="M644.587,115.952c2.994-0.59,5.889-1.438,8.779-2.296l4.312-1.355l4.312-1.417
							c-1.528,0.054-3.042,0.286-4.528,0.604c-1.491,0.304-2.955,0.706-4.409,1.137C650.157,113.521,647.305,114.56,644.587,115.952
							z"/>
						<path style="fill:#C2D5DA;" d="M662.547,117.785c-1.014,0.975-2.016,1.94-2.992,2.922c-0.986,0.972-1.962,1.945-2.971,2.877
							c-0.992,0.95-2.02,1.858-3.09,2.704c-1.081,0.83-2.175,1.657-3.463,2.229c1.411-0.167,2.745-0.793,3.945-1.54
							c1.218-0.741,2.314-1.647,3.345-2.608C659.362,122.426,661.166,120.243,662.547,117.785z"/>
					</g>
				</g>
			</g>
		</g>
		<ellipse style="fill:#EDF9FF;" cx="660" cy="424" rx="62" ry="6.591"/>
	</g>
</g>
</svg>
